<svg width="228" height="57" viewBox="0 0 228 57" fill="none" xmlns="http://www.w3.org/2000/svg">
<path d="M35.564 11.8943C35.1828 12.5042 34.7761 12.9617 34.3441 13.2667C33.9374 13.5717 33.4037 13.7242 32.7429 13.7242C32.1584 13.7242 31.523 13.5463 30.8368 13.1904C30.176 12.8092 29.4135 12.3899 28.5494 11.9324C27.7107 11.4749 26.745 11.0683 25.6521 10.7125C24.5593 10.3312 23.3139 10.1406 21.9161 10.1406C19.5017 10.1406 17.6972 10.6616 16.5027 11.7037C15.3336 12.7203 14.749 14.1054 14.749 15.859C14.749 16.9773 15.1048 17.905 15.8165 18.642C16.5281 19.379 17.4557 20.0144 18.5994 20.5481C19.7685 21.0818 21.0901 21.5774 22.5642 22.0349C24.0637 22.467 25.5886 22.9626 27.1389 23.5217C28.6892 24.0554 30.2014 24.6908 31.6755 25.4278C33.175 26.1649 34.4966 27.1052 35.6403 28.2489C36.8093 29.3926 37.7497 30.7904 38.4613 32.4424C39.173 34.069 39.5288 36.0386 39.5288 38.3514C39.5288 40.9183 39.084 43.3201 38.1945 45.5566C37.3049 47.7931 36.0088 49.7501 34.306 51.4275C32.6286 53.0795 30.5445 54.3884 28.0538 55.3541C25.5886 56.2945 22.7802 56.7647 19.6287 56.7647C17.9005 56.7647 16.1341 56.5868 14.3297 56.231C12.5506 55.8751 10.8224 55.3796 9.14499 54.7442C7.46759 54.0834 5.89185 53.3082 4.41777 52.4187C3.44486 51.8316 2.55497 51.2002 1.74813 50.5245C1.03086 49.9239 0.922889 48.8834 1.42322 48.0929L4.37965 43.4217C4.68463 42.9897 5.07857 42.6339 5.56145 42.3543C6.06976 42.0493 6.61618 41.8968 7.20073 41.8968C7.96318 41.8968 8.72564 42.1383 9.48809 42.6212C10.276 43.104 11.1528 43.6378 12.1186 44.2223C13.1097 44.8069 14.2407 45.3406 15.5115 45.8235C16.7822 46.3064 18.2817 46.5478 20.01 46.5478C22.3481 46.5478 24.1653 46.0395 25.4615 45.0229C26.7577 43.9809 27.4058 42.3416 27.4058 40.1051C27.4058 38.8089 27.0499 37.7542 26.3383 36.9409C25.6267 36.1276 24.6863 35.4541 23.5172 34.9204C22.3736 34.3867 21.0647 33.9165 19.5906 33.5098C18.1165 33.1032 16.6043 32.6584 15.054 32.1755C13.5037 31.6672 11.9915 31.0573 10.5174 30.3457C9.04333 29.6086 7.72174 28.6556 6.55264 27.4865C5.40896 26.2919 4.48131 24.8179 3.76969 23.0642C3.05807 21.2852 2.70225 19.0995 2.70225 16.5071C2.70225 14.4231 3.1216 12.3899 3.9603 10.4075C4.799 8.42511 6.03163 6.65876 7.6582 5.10844C9.28477 3.55812 11.2799 2.32548 13.6435 1.41054C16.0071 0.470179 18.7138 0 21.7636 0C23.4664 0 25.1184 0.139784 26.7195 0.419351C28.3461 0.673502 29.8837 1.06744 31.3324 1.60115C32.7811 2.10946 34.1281 2.73213 35.3734 3.46916C36.1637 3.91172 36.8999 4.39359 37.582 4.91478C38.3059 5.4678 38.4663 6.46975 38.0366 7.27293L35.564 11.8943Z" fill="black"/>
<path d="M93.4807 34.9204L88.3341 19.7094C87.9529 18.7437 87.5463 17.6127 87.1142 16.3165C86.6822 14.9949 86.2501 13.5717 85.818 12.0468C85.4368 13.5971 85.0302 15.033 84.5981 16.3546C84.1661 17.6762 83.7594 18.8199 83.3782 19.7857L78.2698 34.9204H93.4807ZM113.953 56.1547H103.964C102.846 56.1547 101.944 55.9006 101.258 55.3923C100.572 54.8585 100.051 54.185 99.6947 53.3718L93.4807 34.9204H78.2698L72.0176 53.3718C71.7381 54.0834 71.2298 54.7315 70.4927 55.316C69.7811 55.8752 68.8916 56.1547 67.8241 56.1547H57.7597L79.2609 0.609964H85.8562H92.4514L113.953 56.1547Z" fill="black"/>
<path d="M149.593 56.1547H136.631V28.3823V14.4962V0.609964H149.593V56.1547Z" fill="black"/>
<path d="M197.057 12.2539L225.723 12.2539L225.723 40.9206M223.733 14.2447L188.187 50.1571" stroke="#007AFF" stroke-width="3" stroke-linecap="round" stroke-linejoin="round"/>
</svg>
