<svg width="1340" height="622" viewBox="0 0 1340 622" fill="none" xmlns="http://www.w3.org/2000/svg">
<g clip-path="url(#clip0_128_20634)">
<rect width="1340" height="622" fill="black"/>
<path d="M458.556 324V298.8H474.576V301.896H462.372V309.744H473.496V312.768H462.372V320.904H474.576V324H458.556ZM477.25 324L483.586 315.072L477.25 306.144H481.318L486.106 312.984L490.858 306.144H494.962L488.626 315.072L494.962 324H490.858L486.106 317.16L481.318 324H477.25ZM498.068 331.92V306.144H501.488L501.884 308.916C502.46 308.076 503.252 307.332 504.26 306.684C505.268 306.036 506.564 305.712 508.148 305.712C509.876 305.712 511.4 306.12 512.72 306.936C514.04 307.752 515.072 308.868 515.816 310.284C516.584 311.7 516.968 313.308 516.968 315.108C516.968 316.908 516.584 318.516 515.816 319.932C515.072 321.324 514.04 322.428 512.72 323.244C511.4 324.036 509.864 324.432 508.112 324.432C506.72 324.432 505.484 324.156 504.404 323.604C503.348 323.052 502.508 322.272 501.884 321.264V331.92H498.068ZM507.464 321.12C509.096 321.12 510.44 320.568 511.496 319.464C512.552 318.336 513.08 316.872 513.08 315.072C513.08 313.896 512.84 312.852 512.36 311.94C511.88 311.028 511.22 310.32 510.38 309.816C509.54 309.288 508.568 309.024 507.464 309.024C505.832 309.024 504.488 309.588 503.432 310.716C502.4 311.844 501.884 313.296 501.884 315.072C501.884 316.872 502.4 318.336 503.432 319.464C504.488 320.568 505.832 321.12 507.464 321.12ZM529.448 324.432C527.696 324.432 526.136 324.048 524.768 323.28C523.424 322.488 522.368 321.396 521.6 320.004C520.832 318.612 520.448 316.992 520.448 315.144C520.448 313.272 520.82 311.628 521.564 310.212C522.332 308.796 523.388 307.692 524.732 306.9C526.1 306.108 527.684 305.712 529.484 305.712C531.236 305.712 532.76 306.108 534.056 306.9C535.352 307.668 536.36 308.7 537.08 309.996C537.8 311.292 538.16 312.72 538.16 314.28C538.16 314.52 538.148 314.784 538.124 315.072C538.124 315.336 538.112 315.636 538.088 315.972H524.192C524.312 317.7 524.876 319.02 525.884 319.932C526.916 320.82 528.104 321.264 529.448 321.264C530.528 321.264 531.428 321.024 532.148 320.544C532.892 320.04 533.444 319.368 533.804 318.528H537.62C537.14 320.208 536.18 321.612 534.74 322.74C533.324 323.868 531.56 324.432 529.448 324.432ZM529.448 308.844C528.176 308.844 527.048 309.228 526.064 309.996C525.08 310.74 524.48 311.868 524.264 313.38H534.344C534.272 311.988 533.78 310.884 532.868 310.068C531.956 309.252 530.816 308.844 529.448 308.844ZM542.119 324V306.144H545.539L545.863 309.528C546.487 308.352 547.351 307.428 548.455 306.756C549.583 306.06 550.939 305.712 552.523 305.712V309.708H551.479C550.423 309.708 549.475 309.888 548.635 310.248C547.819 310.584 547.159 311.172 546.655 312.012C546.175 312.828 545.935 313.968 545.935 315.432V324H542.119ZM557.955 302.76C557.235 302.76 556.635 302.544 556.155 302.112C555.699 301.656 555.471 301.092 555.471 300.42C555.471 299.748 555.699 299.196 556.155 298.764C556.635 298.308 557.235 298.08 557.955 298.08C558.675 298.08 559.263 298.308 559.719 298.764C560.199 299.196 560.439 299.748 560.439 300.42C560.439 301.092 560.199 301.656 559.719 302.112C559.263 302.544 558.675 302.76 557.955 302.76ZM556.047 324V306.144H559.863V324H556.047ZM573.252 324.432C571.5 324.432 569.94 324.048 568.572 323.28C567.228 322.488 566.172 321.396 565.404 320.004C564.636 318.612 564.252 316.992 564.252 315.144C564.252 313.272 564.624 311.628 565.368 310.212C566.136 308.796 567.192 307.692 568.536 306.9C569.904 306.108 571.488 305.712 573.288 305.712C575.04 305.712 576.564 306.108 577.86 306.9C579.156 307.668 580.164 308.7 580.884 309.996C581.604 311.292 581.964 312.72 581.964 314.28C581.964 314.52 581.952 314.784 581.928 315.072C581.928 315.336 581.916 315.636 581.892 315.972H567.996C568.116 317.7 568.68 319.02 569.688 319.932C570.72 320.82 571.908 321.264 573.252 321.264C574.332 321.264 575.232 321.024 575.952 320.544C576.696 320.04 577.248 319.368 577.608 318.528H581.424C580.944 320.208 579.984 321.612 578.544 322.74C577.128 323.868 575.364 324.432 573.252 324.432ZM573.252 308.844C571.98 308.844 570.852 309.228 569.868 309.996C568.884 310.74 568.284 311.868 568.068 313.38H578.148C578.076 311.988 577.584 310.884 576.672 310.068C575.76 309.252 574.62 308.844 573.252 308.844ZM585.924 324V306.144H589.308L589.596 309.276C590.148 308.172 590.952 307.308 592.008 306.684C593.088 306.036 594.324 305.712 595.716 305.712C597.876 305.712 599.568 306.384 600.792 307.728C602.04 309.072 602.664 311.076 602.664 313.74V324H598.884V314.136C598.884 310.68 597.468 308.952 594.636 308.952C593.22 308.952 592.044 309.456 591.108 310.464C590.196 311.472 589.74 312.912 589.74 314.784V324H585.924ZM615.618 324.432C613.866 324.432 612.294 324.036 610.902 323.244C609.534 322.452 608.454 321.36 607.662 319.968C606.894 318.552 606.51 316.92 606.51 315.072C606.51 313.224 606.894 311.604 607.662 310.212C608.454 308.796 609.534 307.692 610.902 306.9C612.294 306.108 613.866 305.712 615.618 305.712C617.826 305.712 619.674 306.288 621.162 307.44C622.674 308.592 623.646 310.152 624.078 312.12H620.082C619.842 311.136 619.314 310.368 618.498 309.816C617.682 309.264 616.722 308.988 615.618 308.988C614.682 308.988 613.818 309.228 613.026 309.708C612.234 310.164 611.598 310.848 611.118 311.76C610.638 312.648 610.398 313.752 610.398 315.072C610.398 316.392 610.638 317.508 611.118 318.42C611.598 319.308 612.234 319.992 613.026 320.472C613.818 320.952 614.682 321.192 615.618 321.192C616.722 321.192 617.682 320.916 618.498 320.364C619.314 319.812 619.842 319.032 620.082 318.024H624.078C623.67 319.944 622.71 321.492 621.198 322.668C619.686 323.844 617.826 324.432 615.618 324.432ZM636.569 324.432C634.817 324.432 633.257 324.048 631.889 323.28C630.545 322.488 629.489 321.396 628.721 320.004C627.953 318.612 627.569 316.992 627.569 315.144C627.569 313.272 627.941 311.628 628.685 310.212C629.453 308.796 630.509 307.692 631.853 306.9C633.221 306.108 634.805 305.712 636.605 305.712C638.357 305.712 639.881 306.108 641.177 306.9C642.473 307.668 643.481 308.7 644.201 309.996C644.921 311.292 645.281 312.72 645.281 314.28C645.281 314.52 645.269 314.784 645.245 315.072C645.245 315.336 645.233 315.636 645.209 315.972H631.313C631.433 317.7 631.997 319.02 633.005 319.932C634.037 320.82 635.225 321.264 636.569 321.264C637.649 321.264 638.549 321.024 639.269 320.544C640.013 320.04 640.565 319.368 640.925 318.528H644.741C644.261 320.208 643.301 321.612 641.861 322.74C640.445 323.868 638.681 324.432 636.569 324.432ZM636.569 308.844C635.297 308.844 634.169 309.228 633.185 309.996C632.201 310.74 631.601 311.868 631.385 313.38H641.465C641.393 311.988 640.901 310.884 639.989 310.068C639.077 309.252 637.937 308.844 636.569 308.844ZM658.454 324V298.8H666.626C669.578 298.8 672.002 299.316 673.898 300.348C675.818 301.38 677.234 302.844 678.146 304.74C679.082 306.612 679.55 308.844 679.55 311.436C679.55 314.004 679.082 316.236 678.146 318.132C677.234 320.004 675.818 321.456 673.898 322.488C672.002 323.496 669.578 324 666.626 324H658.454ZM662.27 320.76H666.482C668.762 320.76 670.562 320.388 671.882 319.644C673.226 318.9 674.186 317.832 674.762 316.44C675.362 315.048 675.662 313.38 675.662 311.436C675.662 309.492 675.362 307.812 674.762 306.396C674.186 304.98 673.226 303.9 671.882 303.156C670.562 302.388 668.762 302.004 666.482 302.004H662.27V320.76ZM691.975 324.432C690.223 324.432 688.663 324.048 687.295 323.28C685.951 322.488 684.895 321.396 684.127 320.004C683.359 318.612 682.975 316.992 682.975 315.144C682.975 313.272 683.347 311.628 684.091 310.212C684.859 308.796 685.915 307.692 687.259 306.9C688.627 306.108 690.211 305.712 692.011 305.712C693.763 305.712 695.287 306.108 696.583 306.9C697.879 307.668 698.887 308.7 699.607 309.996C700.327 311.292 700.687 312.72 700.687 314.28C700.687 314.52 700.675 314.784 700.651 315.072C700.651 315.336 700.639 315.636 700.615 315.972H686.719C686.839 317.7 687.403 319.02 688.411 319.932C689.443 320.82 690.631 321.264 691.975 321.264C693.055 321.264 693.955 321.024 694.675 320.544C695.419 320.04 695.971 319.368 696.331 318.528H700.147C699.667 320.208 698.707 321.612 697.267 322.74C695.851 323.868 694.087 324.432 691.975 324.432ZM691.975 308.844C690.703 308.844 689.575 309.228 688.591 309.996C687.607 310.74 687.007 311.868 686.791 313.38H696.871C696.799 311.988 696.307 310.884 695.395 310.068C694.483 309.252 693.343 308.844 691.975 308.844ZM711.774 324.432C709.518 324.432 707.658 323.88 706.194 322.776C704.73 321.672 703.89 320.208 703.674 318.384H707.526C707.718 319.2 708.174 319.908 708.894 320.508C709.614 321.084 710.562 321.372 711.738 321.372C712.89 321.372 713.73 321.132 714.258 320.652C714.786 320.172 715.05 319.62 715.05 318.996C715.05 318.084 714.678 317.472 713.934 317.16C713.214 316.824 712.206 316.524 710.91 316.26C709.902 316.044 708.894 315.756 707.886 315.396C706.902 315.036 706.074 314.532 705.402 313.884C704.754 313.212 704.43 312.312 704.43 311.184C704.43 309.624 705.03 308.328 706.23 307.296C707.43 306.24 709.11 305.712 711.27 305.712C713.262 305.712 714.87 306.192 716.094 307.152C717.342 308.112 718.074 309.468 718.29 311.22H714.618C714.498 310.452 714.138 309.852 713.538 309.42C712.962 308.988 712.182 308.772 711.198 308.772C710.238 308.772 709.494 308.976 708.966 309.384C708.438 309.768 708.174 310.272 708.174 310.896C708.174 311.52 708.534 312.012 709.254 312.372C709.998 312.732 710.97 313.056 712.17 313.344C713.37 313.608 714.474 313.92 715.482 314.28C716.514 314.616 717.342 315.12 717.966 315.792C718.59 316.464 718.902 317.448 718.902 318.744C718.926 320.376 718.29 321.732 716.994 322.812C715.722 323.892 713.982 324.432 711.774 324.432ZM725.228 302.76C724.508 302.76 723.908 302.544 723.428 302.112C722.972 301.656 722.744 301.092 722.744 300.42C722.744 299.748 722.972 299.196 723.428 298.764C723.908 298.308 724.508 298.08 725.228 298.08C725.948 298.08 726.536 298.308 726.992 298.764C727.472 299.196 727.712 299.748 727.712 300.42C727.712 301.092 727.472 301.656 726.992 302.112C726.536 302.544 725.948 302.76 725.228 302.76ZM723.32 324V306.144H727.136V324H723.32ZM739.482 318.528C738.546 318.528 737.682 318.42 736.89 318.204L735.342 319.716C735.606 319.884 735.93 320.028 736.314 320.148C736.698 320.268 737.238 320.376 737.934 320.472C738.63 320.568 739.578 320.664 740.778 320.76C743.154 320.976 744.87 321.552 745.926 322.488C746.982 323.4 747.51 324.624 747.51 326.16C747.51 327.216 747.222 328.212 746.646 329.148C746.094 330.108 745.218 330.876 744.018 331.452C742.842 332.052 741.33 332.352 739.482 332.352C736.986 332.352 734.958 331.872 733.398 330.912C731.862 329.976 731.094 328.548 731.094 326.628C731.094 325.884 731.286 325.14 731.67 324.396C732.078 323.676 732.714 322.992 733.578 322.344C733.074 322.128 732.63 321.9 732.246 321.66C731.886 321.396 731.562 321.132 731.274 320.868V320.004L734.37 316.836C732.978 315.636 732.282 314.064 732.282 312.12C732.282 310.944 732.558 309.876 733.11 308.916C733.686 307.932 734.514 307.152 735.594 306.576C736.674 306 737.97 305.712 739.482 305.712C740.49 305.712 741.426 305.856 742.29 306.144H748.95V308.664L745.782 308.844C746.358 309.828 746.646 310.92 746.646 312.12C746.646 313.32 746.358 314.4 745.782 315.36C745.23 316.32 744.414 317.088 743.334 317.664C742.278 318.24 740.994 318.528 739.482 318.528ZM739.482 315.54C740.586 315.54 741.474 315.252 742.146 314.676C742.842 314.076 743.19 313.236 743.19 312.156C743.19 311.052 742.842 310.212 742.146 309.636C741.474 309.06 740.586 308.772 739.482 308.772C738.354 308.772 737.442 309.06 736.746 309.636C736.074 310.212 735.738 311.052 735.738 312.156C735.738 313.236 736.074 314.076 736.746 314.676C737.442 315.252 738.354 315.54 739.482 315.54ZM734.694 326.268C734.694 327.3 735.15 328.068 736.062 328.572C736.974 329.1 738.114 329.364 739.482 329.364C740.802 329.364 741.87 329.076 742.686 328.5C743.502 327.948 743.91 327.204 743.91 326.268C743.91 325.572 743.634 324.972 743.082 324.468C742.53 323.988 741.486 323.688 739.95 323.568C738.798 323.496 737.778 323.388 736.89 323.244C736.05 323.7 735.474 324.192 735.162 324.72C734.85 325.248 734.694 325.764 734.694 326.268ZM752.353 324V306.144H755.737L756.025 309.276C756.577 308.172 757.381 307.308 758.437 306.684C759.517 306.036 760.753 305.712 762.145 305.712C764.305 305.712 765.997 306.384 767.221 307.728C768.469 309.072 769.093 311.076 769.093 313.74V324H765.313V314.136C765.313 310.68 763.897 308.952 761.065 308.952C759.649 308.952 758.473 309.456 757.537 310.464C756.625 311.472 756.169 312.912 756.169 314.784V324H752.353ZM775.748 302.76C775.028 302.76 774.428 302.544 773.948 302.112C773.492 301.656 773.264 301.092 773.264 300.42C773.264 299.748 773.492 299.196 773.948 298.764C774.428 298.308 775.028 298.08 775.748 298.08C776.468 298.08 777.056 298.308 777.512 298.764C777.992 299.196 778.232 299.748 778.232 300.42C778.232 301.092 777.992 301.656 777.512 302.112C777.056 302.544 776.468 302.76 775.748 302.76ZM773.84 324V306.144H777.656V324H773.84ZM782.693 324V306.144H786.077L786.365 309.276C786.917 308.172 787.721 307.308 788.777 306.684C789.857 306.036 791.093 305.712 792.485 305.712C794.645 305.712 796.337 306.384 797.561 307.728C798.809 309.072 799.433 311.076 799.433 313.74V324H795.653V314.136C795.653 310.68 794.237 308.952 791.405 308.952C789.989 308.952 788.813 309.456 787.877 310.464C786.965 311.472 786.509 312.912 786.509 314.784V324H782.693ZM811.236 318.528C810.3 318.528 809.436 318.42 808.644 318.204L807.096 319.716C807.36 319.884 807.684 320.028 808.068 320.148C808.452 320.268 808.992 320.376 809.688 320.472C810.384 320.568 811.332 320.664 812.532 320.76C814.908 320.976 816.624 321.552 817.68 322.488C818.736 323.4 819.264 324.624 819.264 326.16C819.264 327.216 818.976 328.212 818.4 329.148C817.848 330.108 816.972 330.876 815.772 331.452C814.596 332.052 813.084 332.352 811.236 332.352C808.74 332.352 806.712 331.872 805.152 330.912C803.616 329.976 802.848 328.548 802.848 326.628C802.848 325.884 803.04 325.14 803.424 324.396C803.832 323.676 804.468 322.992 805.332 322.344C804.828 322.128 804.384 321.9 804 321.66C803.64 321.396 803.316 321.132 803.028 320.868V320.004L806.124 316.836C804.732 315.636 804.036 314.064 804.036 312.12C804.036 310.944 804.312 309.876 804.864 308.916C805.44 307.932 806.268 307.152 807.348 306.576C808.428 306 809.724 305.712 811.236 305.712C812.244 305.712 813.18 305.856 814.044 306.144H820.704V308.664L817.536 308.844C818.112 309.828 818.4 310.92 818.4 312.12C818.4 313.32 818.112 314.4 817.536 315.36C816.984 316.32 816.168 317.088 815.088 317.664C814.032 318.24 812.748 318.528 811.236 318.528ZM811.236 315.54C812.34 315.54 813.228 315.252 813.9 314.676C814.596 314.076 814.944 313.236 814.944 312.156C814.944 311.052 814.596 310.212 813.9 309.636C813.228 309.06 812.34 308.772 811.236 308.772C810.108 308.772 809.196 309.06 808.5 309.636C807.828 310.212 807.492 311.052 807.492 312.156C807.492 313.236 807.828 314.076 808.5 314.676C809.196 315.252 810.108 315.54 811.236 315.54ZM806.448 326.268C806.448 327.3 806.904 328.068 807.816 328.572C808.728 329.1 809.868 329.364 811.236 329.364C812.556 329.364 813.624 329.076 814.44 328.5C815.256 327.948 815.664 327.204 815.664 326.268C815.664 325.572 815.388 324.972 814.836 324.468C814.284 323.988 813.24 323.688 811.704 323.568C810.552 323.496 809.532 323.388 808.644 323.244C807.804 323.7 807.228 324.192 806.916 324.72C806.604 325.248 806.448 325.764 806.448 326.268ZM832.818 324V321.264C834.45 319.968 836.01 318.66 837.498 317.34C838.986 316.02 840.306 314.724 841.458 313.452C842.634 312.156 843.558 310.896 844.23 309.672C844.902 308.424 845.238 307.224 845.238 306.072C845.238 305.304 845.106 304.584 844.842 303.912C844.578 303.216 844.146 302.664 843.546 302.256C842.946 301.824 842.142 301.608 841.134 301.608C839.622 301.608 838.482 302.088 837.714 303.048C836.97 304.008 836.61 305.16 836.634 306.504H832.926C832.95 304.728 833.322 303.24 834.042 302.04C834.786 300.84 835.77 299.928 836.994 299.304C838.242 298.68 839.646 298.368 841.206 298.368C843.582 298.368 845.478 299.04 846.894 300.384C848.334 301.704 849.054 303.552 849.054 305.928C849.054 307.344 848.706 308.748 848.01 310.14C847.338 311.532 846.45 312.876 845.346 314.172C844.266 315.444 843.102 316.644 841.854 317.772C840.606 318.9 839.418 319.92 838.29 320.832H849.81V324H832.818ZM855.291 324.216C854.571 324.216 853.971 323.988 853.491 323.532C853.035 323.052 852.807 322.488 852.807 321.84C852.807 321.168 853.035 320.604 853.491 320.148C853.971 319.668 854.571 319.428 855.291 319.428C856.011 319.428 856.599 319.668 857.055 320.148C857.511 320.604 857.739 321.168 857.739 321.84C857.739 322.488 857.511 323.052 857.055 323.532C856.599 323.988 856.011 324.216 855.291 324.216ZM870.366 324.432C868.086 324.432 866.118 323.892 864.462 322.812C862.83 321.708 861.57 320.184 860.682 318.24C859.818 316.272 859.386 313.992 859.386 311.4C859.386 308.808 859.818 306.54 860.682 304.596C861.57 302.628 862.83 301.104 864.462 300.024C866.118 298.92 868.086 298.368 870.366 298.368C872.646 298.368 874.602 298.92 876.234 300.024C877.866 301.104 879.114 302.628 879.978 304.596C880.866 306.54 881.31 308.808 881.31 311.4C881.31 313.992 880.866 316.272 879.978 318.24C879.114 320.184 877.866 321.708 876.234 322.812C874.602 323.892 872.646 324.432 870.366 324.432ZM870.366 321.012C871.734 321.012 872.946 320.628 874.002 319.86C875.082 319.092 875.922 317.988 876.522 316.548C877.122 315.108 877.422 313.392 877.422 311.4C877.422 309.408 877.122 307.692 876.522 306.252C875.922 304.812 875.082 303.708 874.002 302.94C872.946 302.172 871.734 301.788 870.366 301.788C868.974 301.788 867.75 302.172 866.694 302.94C865.638 303.708 864.81 304.812 864.21 306.252C863.61 307.692 863.31 309.408 863.31 311.4C863.31 313.392 863.61 315.108 864.21 316.548C864.81 317.988 865.638 319.092 866.694 319.86C867.75 320.628 868.974 321.012 870.366 321.012Z" fill="url(#paint0_linear_128_20634)"/>
<line opacity="0.12" y1="-0.7" x2="743.15" y2="-0.7" transform="matrix(1 -1.89068e-05 1.72882e-07 -1 596.691 595.805)" stroke="url(#paint1_linear_128_20634)" stroke-width="1.4"/>
<line opacity="0.12" y1="-0.7" x2="743.15" y2="-0.7" transform="matrix(1 -1.89068e-05 1.72882e-07 -1 596.691 544.023)" stroke="url(#paint2_linear_128_20634)" stroke-width="1.4"/>
<line opacity="0.12" y1="-0.7" x2="206.703" y2="-0.7" transform="matrix(7.2752e-08 -1 -1 1.15077e-08 1199.3 621.703)" stroke="url(#paint3_linear_128_20634)" stroke-width="1.4"/>
<line opacity="0.12" y1="-0.7" x2="206.703" y2="-0.7" transform="matrix(7.2752e-08 -1 -1 1.15077e-08 1139.68 621.703)" stroke="url(#paint4_linear_128_20634)" stroke-width="1.4"/>
<line opacity="0.12" y1="-0.7" x2="206.703" y2="-0.7" transform="matrix(7.2752e-08 -1 -1 1.15077e-08 1080.06 621.703)" stroke="url(#paint5_linear_128_20634)" stroke-width="1.4"/>
<line opacity="0.12" y1="-0.7" x2="206.703" y2="-0.7" transform="matrix(7.2752e-08 -1 -1 1.15077e-08 1020.44 621.703)" stroke="url(#paint6_linear_128_20634)" stroke-width="1.4"/>
<line opacity="0.12" y1="-0.7" x2="206.703" y2="-0.7" transform="matrix(7.2752e-08 -1 -1 1.15077e-08 1258.93 621.703)" stroke="url(#paint7_linear_128_20634)" stroke-width="1.4"/>
<line opacity="0.12" y1="-0.7" x2="206.703" y2="-0.7" transform="matrix(7.2752e-08 -1 -1 1.15077e-08 1318.54 621.703)" stroke="url(#paint8_linear_128_20634)" stroke-width="1.4"/>
<line opacity="0.12" y1="-0.7" x2="743" y2="-0.7" transform="matrix(-1 1.12537e-05 -8.41198e-08 1 743 26.8047)" stroke="url(#paint9_linear_128_20634)" stroke-width="1.4"/>
<line opacity="0.12" y1="-0.7" x2="743" y2="-0.7" transform="matrix(-1 1.12537e-05 -8.41198e-08 1 743 78.4141)" stroke="url(#paint10_linear_128_20634)" stroke-width="1.4"/>
<line opacity="0.12" y1="-0.7" x2="206" y2="-0.7" transform="matrix(2.60116e-08 1 1 -8.02994e-08 140.51 1)" stroke="url(#paint11_linear_128_20634)" stroke-width="1.4"/>
<line opacity="0.12" y1="-0.7" x2="206" y2="-0.7" transform="matrix(-2.10452e-08 1 1 -1.99202e-07 200.119 1)" stroke="url(#paint12_linear_128_20634)" stroke-width="1.4"/>
<line opacity="0.12" y1="-0.7" x2="206" y2="-0.7" transform="matrix(1.49986e-08 1 1 -9.8334e-08 259.732 1)" stroke="url(#paint13_linear_128_20634)" stroke-width="1.4"/>
<line opacity="0.12" y1="-0.7" x2="206" y2="-0.7" transform="matrix(-2.10452e-08 1 1 -1.99202e-07 319.342 1)" stroke="url(#paint14_linear_128_20634)" stroke-width="1.4"/>
<line opacity="0.12" y1="-0.7" x2="206" y2="-0.7" transform="matrix(-2.10452e-08 1 1 -1.99202e-07 80.8984 1)" stroke="url(#paint15_linear_128_20634)" stroke-width="1.4"/>
<line opacity="0.12" y1="-0.7" x2="206" y2="-0.7" transform="matrix(1.49986e-08 1 1 -9.8334e-08 21.291 1)" stroke="url(#paint16_linear_128_20634)" stroke-width="1.4"/>
<path opacity="0.1" d="M473.215 482.728C482.661 460.126 535.02 419.591 668.889 438.261C836.225 461.599 963.176 537.865 954.702 375.532C949.162 269.416 856.93 163.625 1030.55 45.0307" stroke="white" stroke-width="1.4"/>
<path opacity="0.1" d="M566.084 534.375C591.608 482.215 690.6 386.525 792.315 396.42C935.76 410.374 999.538 426.24 1058.19 278.402C1080.39 222.438 1136.64 186.433 1176.25 180.021" stroke="white" stroke-width="1.4"/>
</g>
<defs>
<linearGradient id="paint0_linear_128_20634" x1="482.809" y1="294.528" x2="483.57" y2="335.006" gradientUnits="userSpaceOnUse">
<stop stop-color="#347EA9"/>
<stop offset="0.526042" stop-color="#A8D4F0" stop-opacity="0.81"/>
<stop offset="1" stop-color="#6490B1"/>
</linearGradient>
<linearGradient id="paint1_linear_128_20634" x1="-1.4413e-06" y1="0.247192" x2="743.15" y2="0.177276" gradientUnits="userSpaceOnUse">
<stop stop-opacity="0.54"/>
<stop offset="1" stop-color="white"/>
</linearGradient>
<linearGradient id="paint2_linear_128_20634" x1="-1.4413e-06" y1="0.247192" x2="743.15" y2="0.177276" gradientUnits="userSpaceOnUse">
<stop stop-opacity="0.54"/>
<stop offset="1" stop-color="white"/>
</linearGradient>
<linearGradient id="paint3_linear_128_20634" x1="0" y1="0" x2="201.381" y2="5.11965e-05" gradientUnits="userSpaceOnUse">
<stop offset="0.421875" stop-color="white"/>
<stop offset="0.953125"/>
</linearGradient>
<linearGradient id="paint4_linear_128_20634" x1="0" y1="0" x2="201.381" y2="5.11965e-05" gradientUnits="userSpaceOnUse">
<stop offset="0.421875" stop-color="white"/>
<stop offset="0.953125"/>
</linearGradient>
<linearGradient id="paint5_linear_128_20634" x1="0" y1="0" x2="201.381" y2="5.11965e-05" gradientUnits="userSpaceOnUse">
<stop offset="0.421875" stop-color="white"/>
<stop offset="0.953125"/>
</linearGradient>
<linearGradient id="paint6_linear_128_20634" x1="0" y1="0" x2="201.381" y2="5.11965e-05" gradientUnits="userSpaceOnUse">
<stop offset="0.421875" stop-color="white"/>
<stop offset="0.953125"/>
</linearGradient>
<linearGradient id="paint7_linear_128_20634" x1="0" y1="0" x2="201.381" y2="5.11965e-05" gradientUnits="userSpaceOnUse">
<stop offset="0.421875" stop-color="white"/>
<stop offset="0.953125"/>
</linearGradient>
<linearGradient id="paint8_linear_128_20634" x1="0" y1="0" x2="201.381" y2="5.11965e-05" gradientUnits="userSpaceOnUse">
<stop offset="0.421875" stop-color="white"/>
<stop offset="0.953125"/>
</linearGradient>
<linearGradient id="paint9_linear_128_20634" x1="-1.44101e-06" y1="0.247192" x2="743" y2="0.177304" gradientUnits="userSpaceOnUse">
<stop stop-opacity="0.54"/>
<stop offset="1" stop-color="white"/>
</linearGradient>
<linearGradient id="paint10_linear_128_20634" x1="-1.44101e-06" y1="0.247192" x2="743" y2="0.177304" gradientUnits="userSpaceOnUse">
<stop stop-opacity="0.54"/>
<stop offset="1" stop-color="white"/>
</linearGradient>
<linearGradient id="paint11_linear_128_20634" x1="0" y1="0" x2="200.696" y2="5.08489e-05" gradientUnits="userSpaceOnUse">
<stop offset="0.421875" stop-color="white"/>
<stop offset="0.953125"/>
</linearGradient>
<linearGradient id="paint12_linear_128_20634" x1="0" y1="0" x2="200.696" y2="5.08489e-05" gradientUnits="userSpaceOnUse">
<stop offset="0.421875" stop-color="white"/>
<stop offset="0.953125"/>
</linearGradient>
<linearGradient id="paint13_linear_128_20634" x1="0" y1="0" x2="200.696" y2="5.08489e-05" gradientUnits="userSpaceOnUse">
<stop offset="0.421875" stop-color="white"/>
<stop offset="0.953125"/>
</linearGradient>
<linearGradient id="paint14_linear_128_20634" x1="0" y1="0" x2="200.696" y2="5.08489e-05" gradientUnits="userSpaceOnUse">
<stop offset="0.421875" stop-color="white"/>
<stop offset="0.953125"/>
</linearGradient>
<linearGradient id="paint15_linear_128_20634" x1="0" y1="0" x2="200.696" y2="5.08489e-05" gradientUnits="userSpaceOnUse">
<stop offset="0.421875" stop-color="white"/>
<stop offset="0.953125"/>
</linearGradient>
<linearGradient id="paint16_linear_128_20634" x1="0" y1="0" x2="200.696" y2="5.08489e-05" gradientUnits="userSpaceOnUse">
<stop offset="0.421875" stop-color="white"/>
<stop offset="0.953125"/>
</linearGradient>
<clipPath id="clip0_128_20634">
<rect width="1340" height="622" fill="white"/>
</clipPath>
</defs>
</svg>
