<svg width="38" height="36" viewBox="0 0 38 36" fill="none" xmlns="http://www.w3.org/2000/svg">
<g clip-path="url(#clip0_5_10)">
<path d="M31.3706 0.00250244H6.74665C3.36667 0.00250244 0.626648 2.74252 0.626648 6.1225V29.8249C0.626648 33.2049 3.36667 35.9449 6.74665 35.9449H31.3706C34.7506 35.9449 37.4906 33.2049 37.4906 29.8249V6.1225C37.4906 2.74252 34.7506 0.00250244 31.3706 0.00250244Z" fill="#330000"/>
<path d="M18.4904 21.5723H12.778L11.6156 25.1828C11.5998 25.2486 11.5615 25.3069 11.5073 25.3475C11.4531 25.3882 11.3865 25.4086 11.3188 25.4054H8.42541C8.26053 25.4054 8.20279 25.3147 8.25232 25.1332L13.1983 10.889C13.2477 10.7407 13.2972 10.5718 13.3466 10.3822C13.4114 10.0521 13.4445 9.71689 13.4455 9.38065C13.4422 9.35713 13.4443 9.33315 13.4518 9.3106C13.4593 9.28806 13.472 9.26757 13.4888 9.25077C13.5056 9.23396 13.5261 9.22129 13.5486 9.21377C13.5711 9.20624 13.5951 9.20407 13.6186 9.20741H17.5507C17.6659 9.20741 17.7318 9.24874 17.7485 9.33125L23.3621 25.158C23.4116 25.323 23.3621 25.4055 23.2138 25.4054H19.9988C19.9436 25.4115 19.8881 25.3973 19.8426 25.3655C19.7971 25.3336 19.7647 25.2863 19.7516 25.2323L18.4904 21.5723ZM13.6682 18.4564H17.5755L17.5197 18.2725L17.4303 17.9813L17.3665 17.7769L17.2647 17.4549L17.0483 16.7771L16.8579 16.1762L16.3636 14.6109C16.2405 14.2218 16.1224 13.8311 16.0093 13.439L15.9189 13.1208L15.8132 12.7445L15.6519 12.1613L15.6217 12.0514H15.597C15.4733 12.645 15.3226 13.2326 15.1455 13.8125L14.7785 14.9928L14.5767 15.6448L14.3729 16.3049C14.336 16.4241 14.2995 16.5421 14.2627 16.6585L14.1533 17.0039L14.0444 17.3411L13.9361 17.67L13.8284 17.9907C13.7927 18.0962 13.757 18.2004 13.7214 18.3032L13.6682 18.4564ZM26.7003 11.8288C26.4481 11.8389 26.1966 11.7957 25.9622 11.7019C25.7278 11.6082 25.5159 11.466 25.3402 11.2848C25.165 11.0956 25.029 10.8737 24.9398 10.6318C24.8507 10.3899 24.8102 10.1327 24.8208 9.87514C24.8119 9.62013 24.8568 9.3661 24.9527 9.12963C25.0485 8.89317 25.1932 8.67958 25.3772 8.50282C25.7322 8.16206 26.2049 7.97137 26.697 7.97045L26.7497 7.97103C27.3433 7.97103 27.8091 8.14815 28.1471 8.50268C28.3177 8.68688 28.4502 8.90292 28.5372 9.13843C28.6242 9.37393 28.6639 9.62428 28.654 9.87514C28.6643 10.1338 28.6226 10.3918 28.5313 10.634C28.4399 10.8762 28.3009 11.0975 28.1223 11.2849C27.942 11.4626 27.728 11.6024 27.4929 11.6962C27.2578 11.7899 27.0062 11.8356 26.7532 11.8307L26.7003 11.8288ZM24.9939 25.158V13.3373C24.9939 13.189 25.0596 13.1147 25.1918 13.1147H28.2336C28.3654 13.1147 28.4313 13.1889 28.4315 13.3373V25.158C28.4315 25.323 28.3655 25.4055 28.2336 25.4054H25.2165C25.076 25.4054 25.002 25.3314 24.9946 25.1834L24.9939 25.158Z" fill="#FF9A00"/>
</g>
<defs>
<clipPath id="clip0_5_10">
<rect width="36.864" height="36" fill="white" transform="translate(0.626648 0.00250244)"/>
</clipPath>
</defs>
</svg>
