<svg width="60" height="36" viewBox="0 0 60 36" fill="none" xmlns="http://www.w3.org/2000/svg">
<path d="M25.7346 19.5544L24.5807 16.3473H23.96V12.0113H11.983V23.9887H23.96V18.1986L25.1261 21.1082H26.3251L28.2334 16.3473H26.8979L25.7346 19.5544Z" fill="#FF0066"/>
<path d="M29.9332 16.3473H28.6428V21.1082H29.9332V16.3473Z" fill="#FF0066"/>
<path d="M32.0056 17.7374C32.0056 17.4739 32.2409 17.2739 32.6597 17.2739C33.1228 17.2739 33.3501 17.5468 33.3774 17.8466H34.6221C34.5859 17.1468 34.095 16.2381 32.6687 16.2381C31.4969 16.2381 30.7609 16.9468 30.7609 17.8099C30.7609 19.6998 33.4047 18.9459 33.4047 19.7454C33.4047 20.0085 33.1501 20.1812 32.6597 20.1812C32.1237 20.1812 31.8875 19.8814 31.8691 19.5633H30.5609C30.6244 20.4541 31.1331 21.2169 32.6235 21.2169C33.9134 21.2169 34.6404 20.5449 34.6404 19.6908C34.6404 17.7374 32.0056 18.5369 32.0056 17.7374Z" fill="#FF0066"/>
<path d="M36.5831 16.3473H35.2927V21.1082H36.5831V16.3473Z" fill="#FF0066"/>
<path d="M39.6465 16.2381C38.1204 16.2381 37.1482 17.3741 37.1482 18.7275C37.1482 20.0809 38.1204 21.2169 39.6465 21.2169C41.1727 21.2169 42.1454 20.0814 42.1454 18.7275C42.1454 17.3736 41.1731 16.2381 39.6465 16.2381ZM39.6465 20.0814C38.9656 20.0814 38.4385 19.5816 38.4385 18.7275C38.4385 17.8734 38.9647 17.3741 39.6465 17.3741C40.3284 17.3741 40.855 17.8739 40.855 18.7275C40.855 19.5812 40.3294 20.0814 39.6465 20.0814Z" fill="#FF0066"/>
<path d="M45.3224 16.2381C44.6137 16.2381 44.1233 16.5205 43.905 16.9289V16.3473H42.7148V21.1082H44.0052V18.3826C44.0052 17.7464 44.3501 17.3473 44.977 17.3473C45.5497 17.3473 45.7859 17.7289 45.7859 18.2828V21.1087H47.0758V18.1369C47.0758 17.0014 46.4673 16.2381 45.3224 16.2381Z" fill="#FF0066"/>
<path d="M16.1783 15.7831C16.314 15.7815 16.4462 15.7398 16.5583 15.6632C16.6704 15.5867 16.7573 15.4787 16.8082 15.3529C16.859 15.227 16.8715 15.0889 16.8441 14.956C16.8166 14.8231 16.7505 14.7012 16.654 14.6058C16.5574 14.5104 16.4348 14.4457 16.3016 14.4198C16.1684 14.3938 16.0304 14.4079 15.9052 14.4602C15.7799 14.5125 15.673 14.6007 15.5977 14.7137C15.5225 14.8266 15.4823 14.9593 15.4823 15.0951C15.4826 15.186 15.5009 15.276 15.5361 15.3598C15.5712 15.4437 15.6227 15.5198 15.6873 15.5837C15.752 15.6476 15.8287 15.6982 15.9129 15.7324C15.9972 15.7666 16.0874 15.7838 16.1783 15.7831Z" fill="white"/>
<path d="M14.7294 19.4687C14.6899 19.6385 14.6693 19.8121 14.6678 19.9864C14.6678 20.5925 14.9972 20.9948 15.6951 20.9948C16.2744 20.9948 16.744 20.6508 17.0819 20.0951L16.8758 20.9238H18.0259L18.6847 18.2885C18.848 17.6188 19.1666 17.2706 19.6494 17.2706C20.0292 17.2706 20.2654 17.5059 20.2654 17.8969C20.2672 18.0221 20.2499 18.1468 20.2141 18.2668L19.8753 19.4824C19.827 19.6492 19.8027 19.8221 19.8033 19.9958C19.8033 20.5713 20.1421 20.992 20.8509 20.992C21.457 20.992 21.9398 20.6019 22.2066 19.6673L21.7549 19.4927C21.529 20.1191 21.3313 20.232 21.1798 20.232C21.0283 20.232 20.9445 20.1294 20.9445 19.9242C20.9489 19.8164 20.9662 19.7094 20.9958 19.6056L21.3252 18.4249C21.3994 18.1821 21.4376 17.9297 21.4386 17.6758C21.4386 16.7925 20.9045 16.3313 20.257 16.3313C19.6513 16.3313 19.0334 16.8781 18.7266 17.4532L18.953 16.4207H17.1944L16.9478 17.3304H17.7699L17.2636 19.3562C16.8664 20.2395 16.1341 20.2536 16.0447 20.2334C15.8941 20.1995 15.7981 20.1421 15.7981 19.9468C15.8027 19.7876 15.8269 19.6295 15.8701 19.4762L16.6405 16.4202H14.689L14.4424 17.3299H15.2537L14.7294 19.4687Z" fill="white"/>
</svg>
