<svg width="37" height="36" viewBox="0 0 37 36" fill="none" xmlns="http://www.w3.org/2000/svg">
<g clip-path="url(#clip0_5_13)">
<path d="M30.744 0.00250244H6.12C2.74002 0.00250244 0 2.74252 0 6.1225V29.8249C0 33.2049 2.74002 35.9449 6.12 35.9449H30.744C34.124 35.9449 36.864 33.2049 36.864 29.8249V6.1225C36.864 2.74252 34.124 0.00250244 30.744 0.00250244Z" fill="#001E36"/>
<path d="M8.30078 25.2075V9.40527C8.30078 9.29007 8.35032 9.23218 8.44924 9.23218L8.60577 9.23175L8.87332 9.22887L9.24513 9.22153L10.4907 9.19517L11.8263 9.17041C12.2961 9.16234 12.7618 9.15802 13.2234 9.15802C14.4762 9.15802 15.5313 9.31469 16.3888 9.62789C17.1623 9.88954 17.8678 10.3204 18.4538 10.889C18.9506 11.382 19.3345 11.9769 19.579 12.6326C19.8103 13.2707 19.9276 13.9445 19.9253 14.6233C19.9253 15.9424 19.6202 17.0305 19.0102 17.8876C18.4136 18.7238 17.5814 19.3632 16.6198 19.7245L16.5373 19.7547C15.5332 20.1292 14.4212 20.2646 13.2017 20.2731L13.0122 20.2737L12.7309 20.2722L12.5891 20.2702L12.431 20.2665L12.3357 20.2627L12.2778 20.2597L12.1354 20.2545L11.9613 20.2509L11.6992 20.249L11.6409 20.2489V25.1828C11.6452 25.213 11.6424 25.2439 11.6328 25.2728C11.6231 25.3018 11.6068 25.3282 11.5852 25.3498C11.5636 25.3714 11.5373 25.3877 11.5083 25.3973C11.4793 25.407 11.4485 25.4097 11.4182 25.4054H8.47401C8.35838 25.4054 8.30078 25.3397 8.30078 25.2075ZM11.641 12.1997V17.3538C11.8384 17.3697 12.0363 17.378 12.2343 17.3786H13.0505C13.6132 17.3767 14.1726 17.2929 14.7112 17.1299L14.8187 17.0963C15.3086 16.9508 15.7464 16.6675 16.0799 16.2801C16.3898 15.9146 16.5504 15.4111 16.5615 14.7693L16.5622 14.6974C16.5752 14.219 16.4507 13.747 16.2035 13.3373C15.9436 12.9411 15.5681 12.6346 15.1278 12.4594C14.553 12.2359 13.9389 12.1308 13.3225 12.1503L13.0089 12.1512L12.811 12.1529L12.6222 12.1554L12.3558 12.1606L12.1614 12.166L12.0605 12.1698L11.9255 12.1761L11.8106 12.1832L11.7451 12.1884L11.6885 12.1938L11.6636 12.1967L11.641 12.1997ZM29.4869 16.4166C29.0555 16.1949 28.5979 16.0284 28.125 15.921L28.0155 15.8974C27.4952 15.778 26.964 15.7122 26.4302 15.7011L26.2969 15.6995C25.984 15.691 25.6715 15.7285 25.3695 15.8108C25.1773 15.8536 25.0064 15.9631 24.8871 16.1198C24.8065 16.2453 24.7637 16.3912 24.7636 16.5403C24.7681 16.6849 24.8202 16.824 24.9119 16.9359C25.0431 17.0894 25.2009 17.218 25.3777 17.3156L25.4313 17.344C25.7839 17.5338 26.1472 17.7031 26.5194 17.8509C27.3493 18.1287 28.1424 18.5066 28.881 18.9761C29.3842 19.2937 29.8007 19.7314 30.0929 20.2498C30.3385 20.7406 30.4616 21.2836 30.4514 21.8323C30.4662 22.557 30.2591 23.269 29.8579 23.8727C29.4283 24.4854 28.8317 24.9617 28.1391 25.245C27.4138 25.5638 26.523 25.7284 25.4669 25.7392L25.3571 25.7398C24.7024 25.7464 24.0487 25.6891 23.4051 25.5687L23.2674 25.5419C22.7256 25.4425 22.1981 25.2764 21.6971 25.0473C21.6468 25.0213 21.6042 24.9824 21.5738 24.9346C21.5434 24.8868 21.5262 24.8317 21.524 24.7751V22.0797C21.521 22.0536 21.5252 22.0271 21.5361 22.0031C21.5471 21.9791 21.5643 21.9586 21.5859 21.9436C21.6072 21.9316 21.6315 21.9264 21.6558 21.9286C21.6801 21.9308 21.7032 21.9404 21.7219 21.956C22.3135 22.3049 22.9559 22.5594 23.626 22.7103C24.2166 22.8584 24.8225 22.9372 25.4313 22.9453C26.0082 22.9453 26.4327 22.871 26.7048 22.7227C26.8277 22.6664 26.9317 22.5758 27.0041 22.4616C27.0765 22.3475 27.1143 22.2149 27.1129 22.0797C27.1129 21.8657 26.9892 21.6595 26.742 21.4615C26.6383 21.3786 26.4896 21.2883 26.296 21.1908L26.2034 21.1453L26.1047 21.0988L26.0528 21.0752L25.9442 21.0271C25.9254 21.0189 25.9065 21.0107 25.8876 21.0026L25.7696 20.9531L25.7081 20.9279L25.5805 20.8767L25.5143 20.8508L25.377 20.798L25.2335 20.7443C24.4569 20.474 23.7207 20.0996 23.0448 19.6314C22.5614 19.2952 22.1634 18.8506 21.8826 18.3331C21.6394 17.8458 21.5164 17.3074 21.524 16.7628C21.5226 16.1085 21.7024 15.4666 22.0433 14.9081C22.4321 14.2932 22.9902 13.8036 23.6507 13.4986C24.3761 13.1362 25.2827 12.9547 26.3709 12.9544C27.0083 12.9493 27.645 12.9948 28.2752 13.0905C28.7315 13.1484 29.1776 13.2691 29.6008 13.4491C29.6689 13.4687 29.7238 13.5189 29.7491 13.5852C29.766 13.6455 29.7742 13.7078 29.7739 13.7706V16.2683C29.7775 16.3274 29.7491 16.3839 29.6998 16.4166C29.6667 16.4331 29.6303 16.4416 29.5933 16.4416C29.5564 16.4416 29.52 16.4331 29.4869 16.4166Z" fill="#31A8FF"/>
</g>
<defs>
<clipPath id="clip0_5_13">
<rect width="36.864" height="36" fill="white" transform="translate(0 0.00250244)"/>
</clipPath>
</defs>
</svg>
