<svg width="40" height="37" viewBox="0 0 40 37" fill="none" xmlns="http://www.w3.org/2000/svg">
<g clip-path="url(#clip0_5_30)">
<path d="M19.8621 0.440002L8.66716 1.62366L0 13.2583L19.8621 36.3876L39.7241 13.2583L31.0571 1.62366L19.8621 0.440002Z" fill="#FDB300"/>
<path d="M0 13.2585L19.8621 36.3876L8.04507 13.2585H0ZM31.6789 13.2585L19.8621 36.3876L39.724 13.2585H31.6789Z" fill="#EB6C00"/>
<path d="M8.04504 13.2585L19.862 36.3876L31.679 13.2585H8.04504Z" fill="#FDAD00"/>
<path d="M8.66713 1.62366L8.04504 13.2583L19.862 0.440002L8.66713 1.62366ZM31.6789 13.2585L31.057 1.62366L19.862 0.440158L31.6789 13.2585Z" fill="#FDD231"/>
<path d="M31.6791 13.2585H39.724L31.057 1.62366L31.6791 13.2585ZM0 13.2585H8.04507L8.66716 1.62366L0 13.2585Z" fill="#FDAD00"/>
<path d="M19.862 0.440002L8.04504 13.2583H31.679L19.862 0.440002Z" fill="#FEEEB7"/>
</g>
<defs>
<clipPath id="clip0_5_30">
<rect width="39.7241" height="36" fill="white" transform="translate(0 0.440002)"/>
</clipPath>
</defs>
</svg>
