<svg width="37" height="36" viewBox="0 0 37 36" fill="none" xmlns="http://www.w3.org/2000/svg">
<g clip-path="url(#clip0_5_27)">
<path d="M30.744 0.00250244H6.12C2.74002 0.00250244 0 2.74252 0 6.1225V29.8249C0 33.2049 2.74002 35.9449 6.12 35.9449H30.744C34.124 35.9449 36.864 33.2049 36.864 29.8249V6.1225C36.864 2.74252 34.124 0.00250244 30.744 0.00250244Z" fill="#470137"/>
<path d="M19.3792 9.45466L14.7794 17.0468L19.7006 25.1086C19.7323 25.1651 19.741 25.2313 19.7253 25.2941C19.7177 25.3209 19.7013 25.3275 19.6761 25.3285L19.6482 25.3281L19.6142 25.3272C19.5957 25.3272 19.5752 25.3281 19.5523 25.3318H16.0041L15.9344 25.3307C15.7432 25.3256 15.6054 25.2983 15.5214 25.158C15.1931 24.5184 14.8633 23.8796 14.5321 23.2415C14.2359 22.6724 13.9315 22.1075 13.6192 21.5471L13.4812 21.3002C13.1076 20.6363 12.7408 19.9686 12.3808 19.2972H12.356C12.0235 19.9616 11.6814 20.6211 11.3297 21.2755C10.975 21.935 10.6247 22.5905 10.2787 23.2415C9.93242 23.8931 9.57796 24.5402 9.21536 25.1828C9.15704 25.3138 9.06013 25.3412 8.9252 25.3456L8.86904 25.3465H5.48115L5.46647 25.3469L5.41808 25.3513C5.39115 25.3528 5.37503 25.3471 5.36984 25.3065C5.36055 25.2462 5.37377 25.1846 5.40699 25.1334L10.1797 17.294L5.53055 9.43018C5.48115 9.36452 5.47295 9.31095 5.50578 9.26948C5.52403 9.24835 5.54694 9.23176 5.57271 9.22101C5.59848 9.21027 5.62639 9.20566 5.65424 9.20756H9.14106C9.2171 9.20339 9.29312 9.21608 9.36368 9.24471C9.42272 9.27826 9.47355 9.32477 9.512 9.38079C9.80879 10.0403 10.1385 10.6998 10.5013 11.3591C10.8612 12.0141 11.228 12.6654 11.6017 13.3127C11.9697 13.95 12.3121 14.6017 12.628 15.2664H12.6528C12.9766 14.6019 13.3105 13.9424 13.6543 13.2881C13.992 12.6451 14.3383 11.9978 14.6928 11.3467C15.0429 10.7039 15.385 10.0568 15.7191 9.40556C15.7381 9.3445 15.7721 9.28921 15.8181 9.24471C15.8791 9.21379 15.9478 9.2009 16.0159 9.20756H19.2555C19.2853 9.20013 19.3166 9.20258 19.3449 9.21453C19.3732 9.22648 19.3968 9.24729 19.4122 9.27383C19.4277 9.30036 19.4341 9.33119 19.4305 9.36167C19.4269 9.39216 19.4135 9.42065 19.3923 9.44285L19.3792 9.45466ZM26.6468 25.6508L26.4764 25.6526C25.3381 25.67 24.2103 25.4335 23.1749 24.9603C22.2103 24.5139 21.404 23.7852 20.8627 22.8706C20.3168 21.9639 20.0365 20.8341 20.0224 19.4815L20.0218 19.3714C20.0126 18.2364 20.3026 17.119 20.8628 16.1318C21.4234 15.1547 22.2407 14.3497 23.2261 13.8039L23.3109 13.7578C24.3823 13.1642 25.6766 12.8675 27.1935 12.8675L27.2597 12.8682L27.3355 12.8706L27.4204 12.8744L27.5149 12.8798L27.6736 12.8911L27.8533 12.9055L27.9848 12.917V8.04519C27.9848 7.92999 28.0343 7.8721 28.1331 7.8721H31.2491C31.2692 7.86921 31.2898 7.87106 31.3091 7.87749C31.3284 7.88392 31.346 7.89476 31.3604 7.90916C31.3747 7.92355 31.3856 7.9411 31.392 7.96041C31.3985 7.97973 31.4003 8.00027 31.3974 8.02042V22.6357C31.3974 22.8811 31.4069 23.1455 31.4259 23.4283L31.472 24.0698L31.4965 24.4409C31.4995 24.4923 31.487 24.5434 31.4605 24.5875C31.434 24.6317 31.3948 24.6668 31.348 24.6883C30.5442 25.0235 29.7069 25.2721 28.8503 25.43C28.1232 25.5642 27.3862 25.6381 26.6468 25.6508ZM27.9848 22.5862V15.835C27.8511 15.7988 27.7146 15.774 27.5768 15.7609C27.4083 15.7439 27.2391 15.7356 27.0698 15.7361C26.4697 15.7301 25.8767 15.8657 25.3388 16.1318C24.8148 16.3922 24.3675 16.7842 24.0404 17.2694C23.714 17.7469 23.5451 18.3704 23.534 19.14L23.5334 19.223C23.5214 19.7621 23.6094 20.2987 23.7931 20.8056C23.9425 21.2142 24.1789 21.5854 24.4857 21.8938C24.7793 22.1775 25.1349 22.3891 25.5242 22.512C25.9355 22.6452 26.3654 22.712 26.7978 22.71C27.0284 22.71 27.2427 22.7017 27.4407 22.6851C27.5986 22.6732 27.7552 22.6472 27.9084 22.6073L27.9848 22.5862Z" fill="#FF61F6"/>
</g>
<defs>
<clipPath id="clip0_5_27">
<rect width="36.864" height="36" fill="white" transform="translate(0 0.00250244)"/>
</clipPath>
</defs>
</svg>
