<svg width="1300" height="1080" viewBox="0 0 1300 1080" fill="none" xmlns="http://www.w3.org/2000/svg">
<rect width="1300" height="1080" fill="black"/>
<path d="M488.32 543.411C491.888 537.111 495.683 532.386 499.705 529.236C503.783 526.087 508.06 524.512 512.535 524.512C515.65 524.512 518.341 525.636 520.607 527.886C522.873 530.08 524.006 532.583 524.006 535.395C524.006 540.739 521.711 543.411 517.123 543.411C514.971 543.411 513.158 541.92 511.686 538.939C509.873 535.171 507.465 533.286 504.463 533.286C501.631 533.286 498.714 534.861 495.712 538.011C492.71 541.161 490.699 544.62 489.679 548.389C488.66 552.101 488.15 559.92 488.15 571.845C488.15 582.757 488.603 589.029 489.509 590.66C490.416 592.235 492.738 593.247 496.476 593.697C497.496 593.81 498.006 594.203 498.006 594.878C498.006 596.06 496.675 596.65 494.012 596.65H466.908C464.983 596.65 464.02 596.172 464.02 595.216C464.02 594.316 465.294 593.81 467.843 593.697C471.412 593.472 473.621 592.375 474.47 590.407C475.32 588.438 475.745 581.182 475.745 568.638C475.745 550.245 475.348 539.192 474.555 535.48C473.819 531.767 470.987 529.799 466.059 529.574C464.02 529.461 463 528.927 463 527.971C463 527.464 463.198 527.099 463.595 526.874C464.048 526.593 466.654 526.311 471.412 526.03L487.045 525.186C487.442 528.224 487.867 534.299 488.32 543.411ZM547.881 483C550.033 483 551.959 483.787 553.659 485.362C555.358 486.937 556.208 488.653 556.208 490.509C556.208 492.703 555.499 494.587 554.083 496.162C552.724 497.737 550.826 498.525 548.39 498.525C546.238 498.525 544.312 497.85 542.613 496.5C540.914 495.093 540.064 493.209 540.064 490.847C540.064 488.541 540.772 486.656 542.188 485.194C543.661 483.731 545.558 483 547.881 483ZM557.312 524.258L557.227 543.242L557.397 560.96V574.291L557.312 584.416C557.312 588.466 557.963 591.053 559.266 592.179C560.626 593.247 562.636 593.838 565.299 593.95C568.414 594.119 569.972 594.766 569.972 595.891C569.972 596.791 569.377 597.241 568.188 597.241C567.734 597.241 567.225 597.213 566.658 597.156C561.39 596.482 556.491 596.144 551.959 596.144C544.709 596.144 539.696 596.369 536.92 596.819C536.354 596.931 535.787 596.988 535.221 596.988C533.861 596.988 533.182 596.482 533.182 595.469C533.182 594.456 534.768 593.754 537.94 593.36C541.112 592.966 543.123 592.291 543.972 591.335C544.879 590.322 545.332 587.51 545.332 582.897L545.842 547.967C545.842 538.63 545.134 533.118 543.717 531.43C542.301 529.686 539.554 528.758 535.476 528.646C534.116 528.646 533.437 528.196 533.437 527.296C533.437 526.789 533.663 526.396 534.116 526.114C534.569 525.833 537.94 525.468 544.227 525.018C550.515 524.568 554.876 524.315 557.312 524.258ZM578.553 562.732C578.553 552.439 581.867 543.439 588.495 535.733C595.179 528.027 603.307 524.174 612.879 524.174C619.054 524.174 624.973 525.693 630.637 528.73C636.302 531.711 639.134 535.452 639.134 539.952C639.134 541.695 638.596 543.242 637.52 544.592C636.443 545.886 635.197 546.533 633.781 546.533C630.609 546.533 628.173 544.001 626.474 538.939C623.869 531.177 619.309 527.296 612.795 527.296C606.337 527.296 601.409 530.08 598.01 535.649C594.669 541.161 592.998 548.417 592.998 557.417C592.998 567.992 595.348 576.626 600.05 583.319C604.751 590.013 610.416 593.36 617.043 593.36C621.405 593.36 625.624 591.672 629.703 588.297C633.725 584.979 636.075 580.929 636.755 576.148C637.038 574.516 637.661 573.701 638.624 573.701C639.644 573.701 640.154 574.207 640.154 575.22C640.154 580.732 637.576 585.907 632.422 590.744C627.324 595.582 620.47 598 611.86 598C602.457 598 594.555 594.456 588.155 587.369C581.754 580.282 578.553 572.07 578.553 562.732ZM651.369 561.467C651.369 551.567 654.966 542.848 662.16 535.311C669.354 527.774 678.19 524.005 688.669 524.005C698.525 524.005 706.993 527.38 714.074 534.13C721.211 540.88 724.78 549.317 724.78 559.442C724.78 569.679 721.041 578.679 713.564 586.441C706.087 594.147 697.364 598 687.395 598C677.539 598 669.07 594.456 661.99 587.369C654.909 580.226 651.369 571.592 651.369 561.467ZM665.133 560.96C665.133 570.635 667.371 578.679 671.846 585.091C676.377 591.504 681.957 594.71 688.584 594.71C694.645 594.71 699.969 591.7 704.557 585.682C709.202 579.663 711.525 571.676 711.525 561.72C711.525 552.832 709.287 544.93 704.813 538.011C700.394 531.036 694.645 527.549 687.564 527.549C680.994 527.549 675.613 530.727 671.421 537.083C667.229 543.383 665.133 551.342 665.133 560.96ZM826.992 596.397L823.424 596.65C771.766 596.65 745.2 596.706 743.727 596.819C741.631 596.819 740.356 596.763 739.903 596.65C739.507 596.482 739.309 596.088 739.309 595.469C739.478 594.85 740.895 592.319 743.557 587.876C746.219 583.375 751.572 575.22 759.616 563.407L781.707 530.924C788.448 521.08 793.063 514.471 795.556 511.096C802.918 501.14 807.337 494.306 808.809 490.594C798.784 490.143 790.967 489.919 785.36 489.919C776.863 489.919 770.576 490.565 766.498 491.859C762.419 493.097 758.992 494.953 756.217 497.428C753.498 499.903 750.156 504.009 746.191 509.746C744.265 512.558 742.99 513.965 742.367 513.965C741.461 513.965 741.008 513.458 741.008 512.446C741.008 512.165 742.226 508.059 744.661 500.128C747.154 492.14 748.655 487.612 749.164 486.544C749.674 485.419 750.156 484.856 750.609 484.856L763.269 485.7C767.801 485.925 777.034 486.038 790.967 486.038C810.284 486.038 822.547 485.7 827.757 485.025C828.323 484.969 828.748 484.941 829.033 484.941C829.713 484.941 830.054 485.306 830.054 486.038C830.054 487.725 819.6 503.39 798.699 533.033C779.724 559.976 766.696 579.804 759.616 592.516C767.772 592.853 774.739 593.022 780.517 593.022C788.504 593.022 794.764 592.657 799.294 591.925C803.883 591.138 807.988 589.872 811.616 588.129C815.295 586.329 818.017 584.669 819.77 583.151C821.585 581.632 824.444 578.454 828.353 573.616C831.921 569.285 834.018 567.12 834.639 567.12C835.545 567.12 836 567.767 836 569.06L826.992 596.397Z" fill="#DFCBA1"/>
</svg>
