<svg width="128" height="128" viewBox="0 0 128 128" fill="none" xmlns="http://www.w3.org/2000/svg">
<path d="M0 29.2571C0 13.0989 13.0989 0 29.2571 0H98.7429C114.901 0 128 13.0989 128 29.2571V98.7429C128 114.901 114.901 128 98.7429 128H29.2571C13.0989 128 0 114.901 0 98.7429V29.2571Z" fill="#0172E4"/>
<path d="M110.765 44.4824C113.719 50.5852 114.124 59.1891 109.863 61.2011C104.853 63.566 98.5932 51.7908 95.6396 45.6881C92.686 39.5853 93.1507 33.4342 98.1599 31.0694C103.169 28.7045 107.812 38.3797 110.765 44.4824Z" fill="#F6F6F6"/>
<path d="M55.3543 39.3434C49.0084 41.8871 37.2983 44.7329 35.5219 40.41C33.434 35.329 43.2637 27.9519 49.6096 25.4082C55.9555 22.8644 62.494 21.3975 64.5819 26.4785C66.6699 31.5595 61.7002 36.7996 55.3543 39.3434Z" fill="#F6F6F6"/>
<path d="M85.2611 87.7284C71.5632 104.447 47.6818 111.976 33.9141 100.973C17.7318 88.0398 24.5326 62.507 40.6854 42.792C56.8381 23.0769 78.6684 14.7118 94.8506 27.6449C111.033 40.5781 101.414 68.0134 85.2611 87.7284Z" fill="white"/>
<path d="M43.5333 87.2587C42.5556 88.2244 40.9704 88.2244 39.9926 87.2587C38.3701 85.6562 39.6032 82.9217 41.8946 83.0408C44.0592 83.1534 45.066 85.7449 43.5333 87.2587Z" fill="black"/>
<path d="M51.1797 54.513C51.1797 57.0984 50.0682 59.1943 48.697 59.1943C47.3258 59.1943 46.2143 57.0984 46.2143 54.513C46.2143 51.9276 47.3258 49.8318 48.697 49.8318C50.0682 49.8318 51.1797 51.9276 51.1797 54.513Z" fill="black"/>
<path d="M80.5226 54.513C80.5226 57.0984 79.411 59.1943 78.0398 59.1943C76.6687 59.1943 75.5571 57.0984 75.5571 54.513C75.5571 51.9276 76.6687 49.8318 78.0398 49.8318C79.411 49.8318 80.5226 51.9276 80.5226 54.513Z" fill="black"/>
</svg>
