<svg width="156" height="156" viewBox="0 0 156 156" fill="none" xmlns="http://www.w3.org/2000/svg">
<g filter="url(#filter0_d_126_2)">
<path d="M142 78C142 113.346 113.346 142 78 142C42.6538 142 14 113.346 14 78C14 42.6538 42.6538 14 78 14C113.346 14 142 42.6538 142 78Z" fill="#0172E4"/>
<path d="M123.871 63.1824C126.788 69.2852 127.188 77.8891 122.98 79.9011C118.034 82.2659 111.852 70.4908 108.936 64.388C106.02 58.2852 106.478 52.1342 111.425 49.7693C116.371 47.4045 120.955 57.0796 123.871 63.1824Z" fill="#F6F6F6"/>
<path d="M69.1579 58.0438C62.8919 60.5875 51.3292 63.4333 49.5752 59.1104C47.5136 54.0294 57.2195 46.6523 63.4855 44.1086C69.7515 41.5648 76.2077 40.0979 78.2694 45.1789C80.331 50.2599 75.4239 55.5 69.1579 58.0438Z" fill="#F6F6F6"/>
<path d="M98.6881 106.428C85.1628 123.147 61.5821 130.676 47.9876 119.672C32.0091 106.739 38.7243 81.2065 54.6737 61.4915C70.6231 41.7764 92.1785 33.4113 108.157 46.3444C124.135 59.2776 114.638 86.7129 98.6881 106.428Z" fill="white"/>
<path d="M57.4882 105.959C56.5228 106.925 54.9575 106.925 53.9921 105.959C52.39 104.357 53.6075 101.622 55.8701 101.741C58.0074 101.854 59.0016 104.445 57.4882 105.959Z" fill="#0172E4"/>
<path d="M65.0361 73.2136C65.0361 75.799 63.9385 77.8949 62.5846 77.8949C61.2307 77.8949 60.1332 75.799 60.1332 73.2136C60.1332 70.6283 61.2307 68.5324 62.5846 68.5324C63.9385 68.5324 65.0361 70.6283 65.0361 73.2136Z" fill="#0172E4"/>
<path d="M94.0086 73.2136C94.0086 75.799 92.9111 77.8949 91.5572 77.8949C90.2033 77.8949 89.1057 75.799 89.1057 73.2136C89.1057 70.6283 90.2033 68.5324 91.5572 68.5324C92.9111 68.5324 94.0086 70.6283 94.0086 73.2136Z" fill="#0172E4"/>
</g>
<defs>
<filter id="filter0_d_126_2" x="0" y="0" width="156" height="156" filterUnits="userSpaceOnUse" color-interpolation-filters="sRGB">
<feFlood flood-opacity="0" result="BackgroundImageFix"/>
<feColorMatrix in="SourceAlpha" type="matrix" values="0 0 0 0 0 0 0 0 0 0 0 0 0 0 0 0 0 0 127 0" result="hardAlpha"/>
<feOffset/>
<feGaussianBlur stdDeviation="7"/>
<feComposite in2="hardAlpha" operator="out"/>
<feColorMatrix type="matrix" values="0 0 0 0 1 0 0 0 0 1 0 0 0 0 1 0 0 0 0.25 0"/>
<feBlend mode="normal" in2="BackgroundImageFix" result="effect1_dropShadow_126_2"/>
<feBlend mode="normal" in="SourceGraphic" in2="effect1_dropShadow_126_2" result="shape"/>
</filter>
</defs>
</svg>
