<svg width="20" height="19" viewBox="0 0 20 19" fill="none" xmlns="http://www.w3.org/2000/svg">
<path d="M2.18776 13.341V16.7453H1.50494V13.341H2.18776Z" fill="white"/>
<path d="M6.16918 14.0043C6.50084 14.0043 6.76746 14.1067 6.96906 14.3116C7.1739 14.5132 7.27633 14.7961 7.27633 15.1602V16.7453H6.59351V15.2529C6.59351 15.0415 6.53986 14.8806 6.43256 14.77C6.32526 14.6562 6.17894 14.5993 5.9936 14.5993C5.80827 14.5993 5.66032 14.6562 5.54977 14.77C5.44247 14.8806 5.38882 15.0415 5.38882 15.2529V16.7453H4.706V15.2529C4.706 15.0415 4.65235 14.8806 4.54505 14.77C4.43775 14.6562 4.29143 14.5993 4.10609 14.5993C3.91751 14.5993 3.76794 14.6562 3.65738 14.77C3.55008 14.8806 3.49643 15.0415 3.49643 15.2529V16.7453H2.81361V14.0433H3.49643V14.3701C3.58422 14.2563 3.6964 14.1669 3.83297 14.1019C3.97278 14.0368 4.1256 14.0043 4.29143 14.0043C4.50278 14.0043 4.69137 14.0498 4.8572 14.1409C5.02302 14.2287 5.15146 14.3555 5.2425 14.5213C5.33029 14.3652 5.4571 14.24 5.62293 14.1458C5.79201 14.0515 5.97409 14.0043 6.16918 14.0043Z" fill="white"/>
<path d="M8.55833 14.4335C8.64612 14.31 8.76643 14.2075 8.91925 14.1262C9.07532 14.0417 9.25253 13.9994 9.45087 13.9994C9.68173 13.9994 9.88983 14.0563 10.0752 14.1701C10.2638 14.2839 10.4117 14.4465 10.519 14.6579C10.6295 14.866 10.6848 15.1082 10.6848 15.3846C10.6848 15.661 10.6295 15.9065 10.519 16.1211C10.4117 16.3324 10.2638 16.4966 10.0752 16.6137C9.88983 16.7307 9.68173 16.7892 9.45087 16.7892C9.25253 16.7892 9.07695 16.7486 8.92413 16.6673C8.77456 16.586 8.65262 16.4836 8.55833 16.36V18.0329H7.87551V14.0433H8.55833V14.4335ZM9.98737 15.3846C9.98737 15.222 9.95323 15.0822 9.88495 14.9651C9.81992 14.8448 9.73213 14.7538 9.62158 14.692C9.51428 14.6302 9.39722 14.5993 9.27041 14.5993C9.14685 14.5993 9.0298 14.6319 8.91925 14.6969C8.81195 14.7587 8.72416 14.8497 8.65587 14.97C8.59084 15.0903 8.55833 15.2318 8.55833 15.3943C8.55833 15.5569 8.59084 15.6984 8.65587 15.8187C8.72416 15.939 8.81195 16.0316 8.91925 16.0967C9.0298 16.1584 9.14685 16.1893 9.27041 16.1893C9.39722 16.1893 9.51428 16.1568 9.62158 16.0918C9.73213 16.0268 9.81992 15.9341 9.88495 15.8138C9.95323 15.6935 9.98737 15.5504 9.98737 15.3846Z" fill="white"/>
<path d="M10.9567 15.3846C10.9567 15.1115 11.0103 14.8692 11.1176 14.6579C11.2282 14.4465 11.3761 14.2839 11.5614 14.1701C11.75 14.0563 11.9598 13.9994 12.1906 13.9994C12.3922 13.9994 12.5678 14.0401 12.7174 14.1214C12.8702 14.2027 12.9921 14.3051 13.0832 14.4286V14.0433H13.7708V16.7453H13.0832V16.3503C12.9954 16.4771 12.8734 16.5828 12.7174 16.6673C12.5645 16.7486 12.3873 16.7892 12.1857 16.7892C11.9581 16.7892 11.75 16.7307 11.5614 16.6137C11.3761 16.4966 11.2282 16.3324 11.1176 16.1211C11.0103 15.9065 10.9567 15.661 10.9567 15.3846ZM13.0832 15.3943C13.0832 15.2285 13.0506 15.0871 12.9856 14.97C12.9206 14.8497 12.8328 14.7587 12.7222 14.6969C12.6117 14.6319 12.493 14.5993 12.3662 14.5993C12.2394 14.5993 12.1223 14.6302 12.015 14.692C11.9077 14.7538 11.8199 14.8448 11.7517 14.9651C11.6866 15.0822 11.6541 15.222 11.6541 15.3846C11.6541 15.5472 11.6866 15.6902 11.7517 15.8138C11.8199 15.9341 11.9077 16.0268 12.015 16.0918C12.1256 16.1568 12.2426 16.1893 12.3662 16.1893C12.493 16.1893 12.6117 16.1584 12.7222 16.0967C12.8328 16.0316 12.9206 15.9406 12.9856 15.8235C13.0506 15.7032 13.0832 15.5602 13.0832 15.3943Z" fill="white"/>
<path d="M14.2134 15.3943C14.2134 15.1147 14.2703 14.8708 14.3841 14.6627C14.4979 14.4514 14.6556 14.2888 14.8572 14.175C15.0588 14.058 15.2896 13.9994 15.5498 13.9994C15.8847 13.9994 16.161 14.084 16.3789 14.2531C16.6 14.4189 16.7479 14.653 16.8227 14.9554H16.0863C16.0472 14.8383 15.9806 14.7473 15.8863 14.6823C15.7953 14.614 15.6814 14.5798 15.5449 14.5798C15.3498 14.5798 15.1953 14.6514 15.0815 14.7944C14.9677 14.9342 14.9108 15.1342 14.9108 15.3943C14.9108 15.6512 14.9677 15.8512 15.0815 15.9942C15.1953 16.1341 15.3498 16.204 15.5449 16.204C15.8213 16.204 16.0017 16.0804 16.0863 15.8333H16.8227C16.7479 16.1259 16.6 16.3584 16.3789 16.5307C16.1578 16.7031 15.8814 16.7892 15.5498 16.7892C15.2896 16.7892 15.0588 16.7323 14.8572 16.6185C14.6556 16.5015 14.4979 16.3389 14.3841 16.1308C14.2703 15.9195 14.2134 15.674 14.2134 15.3943Z" fill="white"/>
<path d="M18.0692 14.6042V15.9113C18.0692 16.0024 18.0903 16.069 18.1326 16.1113C18.1781 16.1503 18.2529 16.1698 18.3569 16.1698H18.674V16.7453H18.2448C17.6692 16.7453 17.3815 16.4657 17.3815 15.9065V14.6042H17.0596V14.0433H17.3815V13.3751H18.0692V14.0433H18.674V14.6042H18.0692Z" fill="white"/>
<path d="M2.11349 1.62576C2.11349 0.997242 2.623 0.487728 3.25152 0.487728H16.5828C17.2113 0.487728 17.7208 0.997243 17.7208 1.62576V8.77911C17.7208 9.40763 17.2113 9.91714 16.5828 9.91714H3.25152C2.623 9.91714 2.11349 9.40763 2.11349 8.77911V1.62576Z" fill="#FF3636"/>
<path d="M7.19339 3.16673L4.71471 7.15335H5.52938C5.52938 7.15335 7.38406 4.12554 7.43606 4.09189C7.48806 4.05825 8.58007 5.99269 8.58007 5.99269H9.42941L7.62673 3.16673C7.49828 3.06136 7.40176 3.06469 7.19339 3.16673Z" fill="white"/>
<path d="M6.50304 7.13654L6.82745 6.41397L10.2252 6.38036L10.2423 7.15335L6.50304 7.13654Z" fill="white"/>
<path d="M8.5861 3.10356L10.1911 3.08895L10.2081 3.84294L8.991 3.82444L8.5861 3.10356Z" fill="white"/>
<path d="M10.2811 7.15335C10.8365 7.14835 11.367 6.92946 11.7561 6.54483C12.1452 6.1602 12.3608 5.64132 12.3557 5.10236C12.3505 4.5634 12.125 4.0485 11.7287 3.67092C11.3323 3.29335 10.7977 3.08404 10.2423 3.08903L10.2495 3.84809C10.5975 3.84497 10.9324 3.9761 11.1807 4.21263C11.429 4.44917 11.5703 4.77175 11.5735 5.1094C11.5768 5.44704 11.4416 5.7721 11.1979 6.01306C10.9542 6.25403 10.6218 6.39116 10.2738 6.39429L10.2811 7.15335Z" fill="white"/>
<path d="M13.7547 7.15335C13.4894 7.15335 13.2505 7.10762 13.0382 7.01615C12.8259 6.92088 12.6591 6.78749 12.5378 6.616C12.4164 6.44451 12.3558 6.24443 12.3558 6.01577H13.0496C13.0647 6.18727 13.1311 6.32827 13.2486 6.43879C13.3699 6.54931 13.5386 6.60457 13.7547 6.60457C13.9784 6.60457 14.1528 6.55121 14.2779 6.44451C14.403 6.33399 14.4656 6.19298 14.4656 6.02149C14.4656 5.8881 14.4258 5.77949 14.3462 5.69565C14.2703 5.61181 14.1737 5.54702 14.0561 5.50129C13.9424 5.45556 13.7832 5.40602 13.5784 5.35266C13.3206 5.28407 13.1102 5.21547 12.9472 5.14687C12.788 5.07446 12.6515 4.96394 12.5378 4.81532C12.424 4.66669 12.3672 4.46852 12.3672 4.2208C12.3672 3.99215 12.424 3.79207 12.5378 3.62058C12.6515 3.44908 12.8107 3.3176 13.0155 3.22614C13.2202 3.13468 13.4571 3.08895 13.7263 3.08895C14.1092 3.08895 14.422 3.18613 14.6646 3.38048C14.9111 3.57103 15.0475 3.83399 15.0741 4.16936H14.3575C14.3462 4.02454 14.2779 3.90068 14.1528 3.79779C14.0277 3.69489 13.8628 3.64344 13.6581 3.64344C13.4723 3.64344 13.3206 3.69108 13.2031 3.78635C13.0856 3.88163 13.0268 4.01882 13.0268 4.19794C13.0268 4.31989 13.0628 4.42088 13.1349 4.50091C13.2107 4.57713 13.3055 4.63811 13.4192 4.68384C13.533 4.72957 13.6884 4.77911 13.8855 4.83247C14.1471 4.90487 14.3594 4.97728 14.5225 5.04969C14.6893 5.1221 14.8295 5.23452 14.9433 5.38696C15.0608 5.53559 15.1196 5.73567 15.1196 5.98719C15.1196 6.18917 15.0646 6.37972 14.9547 6.55884C14.8485 6.73795 14.6912 6.88277 14.4827 6.99329C14.2779 7.09999 14.0353 7.15335 13.7547 7.15335Z" fill="white"/>
<path d="M19.3466 0.569016C19.3466 0.883275 19.0918 1.13803 18.7775 1.13803C18.4633 1.13803 18.2085 0.883275 18.2085 0.569016C18.2085 0.254757 18.4633 0 18.7775 0C19.0918 0 19.3466 0.254757 19.3466 0.569016Z" fill="white"/>
</svg>
