<svg width="234" height="69" viewBox="0 0 234 69" fill="none" xmlns="http://www.w3.org/2000/svg">
<g clip-path="url(#clip0_0_3)">
<rect width="234" height="69" fill="white"/>
<path d="M78 23H180V43C180 48.5228 175.523 53 170 53H78V23Z" fill="#D7EEFF" fill-opacity="0.38"/>
<path opacity="0.8" d="M51.024 44.37C51.024 44.784 50.808 45 50.394 45H49.62C49.206 45 48.99 44.784 48.99 44.37V32.67C48.99 32.238 49.206 32.04 49.62 32.04H50.394C50.808 32.04 51.024 32.238 51.024 32.67V44.37ZM60.2158 45.45H59.1358C58.8478 45.45 58.6858 45.288 58.6858 45V44.226C58.1098 44.802 57.2278 45.162 56.3278 45.198H56.0038C54.2398 45.108 53.0518 43.866 53.0518 42.246C53.0518 40.716 53.9878 39.402 56.3638 39.402C57.1198 39.402 57.9658 39.564 58.6858 39.87C58.6858 39.78 58.6678 39.708 58.6678 39.618C58.5598 38.376 57.7858 37.728 56.5438 37.728C55.8598 37.728 55.0858 37.98 54.3838 38.412C54.1678 38.538 54.0058 38.448 53.8798 38.196L53.7358 37.944L53.4838 37.404C53.4298 37.314 53.3938 37.224 53.3578 37.134C53.3038 36.972 53.3398 36.81 53.5018 36.702C54.2938 36.108 55.5178 35.712 56.8318 35.712C59.1898 35.712 60.6658 37.152 60.6658 39.726V44.838C60.6658 44.964 60.6478 45.054 60.6298 45.144C60.5938 45.342 60.4498 45.45 60.2158 45.45ZM56.5438 43.308C57.5518 43.308 58.5238 42.804 58.6498 42.138C58.6678 41.994 58.6858 41.868 58.6858 41.724V41.562C58.0018 41.292 57.2098 41.148 56.5438 41.148C55.5358 41.148 55.0318 41.526 55.0318 42.174C55.0318 42.894 55.7338 43.308 56.5438 43.308ZM70.2787 45.27H69.5587C69.1447 45.27 68.9287 45.054 68.9287 44.64V43.848C68.2807 44.604 67.3267 45 66.3187 45C64.2667 45 62.6107 43.182 62.6107 40.392C62.6107 37.638 64.4467 35.892 66.7687 35.892C67.4707 35.892 68.2267 36.036 68.9287 36.306V32.67C68.9287 32.238 69.1447 32.04 69.5587 32.04H70.2787C70.7107 32.04 70.9087 32.238 70.9087 32.67V44.64C70.9087 45.054 70.7107 45.27 70.2787 45.27ZM66.7327 42.93C67.9927 42.93 68.9287 41.94 68.9287 40.464V38.466C68.2807 38.124 67.5427 37.944 66.7687 37.944C65.5267 37.944 64.5907 38.754 64.5907 40.392C64.5907 41.958 65.5267 42.93 66.7327 42.93ZM82.7761 44.37C82.7761 44.784 82.5601 45 82.1461 45H81.3721C81.0301 45 80.8321 44.856 80.7781 44.568C80.7601 44.442 80.7421 44.298 80.7421 44.136V40.752L76.8901 33.948C76.6021 33.408 76.7461 33.192 77.2321 33.066L77.9341 32.868C78.3301 32.778 78.4741 32.832 78.6901 33.156C78.7801 33.282 78.8701 33.444 78.9961 33.642L81.4981 38.016L81.6961 38.232L84.0361 33.246C84.1261 33.048 84.2161 32.886 84.3061 32.76C84.5041 32.418 84.6661 32.346 85.0801 32.472L85.8721 32.688C86.3581 32.814 86.4481 33.03 86.2141 33.552L82.7761 40.86V44.37ZM90.9808 45.198C88.2988 45.198 86.6428 43.218 86.6428 40.59C86.6428 37.89 88.2988 35.892 90.9808 35.892C93.6808 35.892 95.3188 37.89 95.3188 40.59C95.3188 43.218 93.6808 45.198 90.9808 45.198ZM90.9808 43.128C92.3668 43.128 93.3388 42.354 93.3388 40.59C93.3388 38.772 92.3668 37.962 90.9808 37.962C89.6128 37.962 88.6228 38.754 88.6228 40.59C88.6228 42.354 89.6128 43.128 90.9808 43.128ZM103.148 44.37V43.686C102.446 44.658 101.348 45.198 100.286 45.198C98.5578 45.198 97.2798 44.118 97.2798 41.652V36.72C97.2798 36.288 97.4958 36.09 97.9098 36.09H98.6298C99.0618 36.09 99.2598 36.288 99.2598 36.72V40.932C99.2598 42.408 99.9078 43.128 100.97 43.128C102.194 43.128 103.148 42.21 103.148 40.662V36.09C103.148 35.658 103.364 35.46 103.778 35.46H104.498C104.93 35.46 105.128 35.658 105.128 36.09V44.37C105.128 44.784 104.93 45 104.498 45H103.778C103.364 45 103.148 44.784 103.148 44.37ZM109.863 34.722C109.863 36.486 109.125 37.638 107.361 37.638C107.091 37.638 106.947 37.512 106.947 37.296V36.828C106.947 36.594 107.073 36.414 107.307 36.396C108.153 36.378 108.405 36.072 108.405 35.514V35.388C107.595 35.388 107.019 34.848 107.019 34.038C107.019 33.318 107.613 32.706 108.369 32.706C109.197 32.706 109.863 33.372 109.863 34.722ZM113.983 44.46C113.983 44.874 113.785 45.09 113.353 45.09H112.633C112.219 45.09 112.003 44.874 112.003 44.46V35.91C112.003 35.478 112.219 35.28 112.633 35.28H113.353C113.785 35.28 113.983 35.478 113.983 35.91V37.224C114.559 36.378 115.423 35.892 116.341 35.892C116.737 35.892 117.169 35.982 117.403 36.126C117.529 36.198 117.565 36.306 117.547 36.45L117.367 38.034C117.331 38.286 117.187 38.34 116.953 38.286C116.449 38.178 116.107 38.142 115.819 38.142C114.775 38.142 113.983 38.97 113.983 40.338V44.46ZM123.452 45.198C120.644 45.198 118.826 43.326 118.826 40.59C118.826 38.07 120.338 35.892 123.128 35.892C125.27 35.892 126.872 37.404 126.872 40.014C126.872 40.554 126.818 40.77 126.332 40.824L120.932 41.454C121.238 42.498 122.138 43.254 123.614 43.254C124.406 43.254 125.27 42.912 125.846 42.606C126.062 42.48 126.242 42.588 126.332 42.822L126.674 43.686C126.764 43.956 126.8 44.1 126.584 44.28C125.846 44.838 124.568 45.198 123.452 45.198ZM122.984 37.818C121.868 37.818 121.094 38.466 120.86 39.762L124.802 39.294C124.64 38.43 123.938 37.818 122.984 37.818ZM134.816 44.46C134.816 44.874 134.618 45.09 134.186 45.09H133.466C133.052 45.09 132.836 44.874 132.836 44.46V32.94C132.836 32.508 133.052 32.31 133.466 32.31H134.186C134.618 32.31 134.816 32.508 134.816 32.94V37.404C135.518 36.414 136.634 35.892 137.696 35.892C139.424 35.892 140.684 36.954 140.684 39.438V44.55C140.684 44.964 140.486 45.18 140.054 45.18H139.334C138.92 45.18 138.704 44.964 138.704 44.55V40.158C138.704 38.664 138.056 37.962 137.012 37.962C135.788 37.962 134.816 38.88 134.816 40.428V44.46ZM147.273 45.198C144.465 45.198 142.647 43.326 142.647 40.59C142.647 38.07 144.159 35.892 146.949 35.892C149.091 35.892 150.693 37.404 150.693 40.014C150.693 40.554 150.639 40.77 150.153 40.824L144.753 41.454C145.059 42.498 145.959 43.254 147.435 43.254C148.227 43.254 149.091 42.912 149.667 42.606C149.883 42.48 150.063 42.588 150.153 42.822L150.495 43.686C150.585 43.956 150.621 44.1 150.405 44.28C149.667 44.838 148.389 45.198 147.273 45.198ZM146.805 37.818C145.689 37.818 144.915 38.466 144.681 39.762L148.623 39.294C148.461 38.43 147.759 37.818 146.805 37.818ZM154.67 44.46C154.67 44.874 154.472 45.09 154.04 45.09H153.32C152.906 45.09 152.69 44.874 152.69 44.46V35.91C152.69 35.478 152.906 35.28 153.32 35.28H154.04C154.472 35.28 154.67 35.478 154.67 35.91V37.224C155.246 36.378 156.11 35.892 157.028 35.892C157.424 35.892 157.856 35.982 158.09 36.126C158.216 36.198 158.252 36.306 158.234 36.45L158.054 38.034C158.018 38.286 157.874 38.34 157.64 38.286C157.136 38.178 156.794 38.142 156.506 38.142C155.462 38.142 154.67 38.97 154.67 40.338V44.46ZM164.139 45.198C161.331 45.198 159.513 43.326 159.513 40.59C159.513 38.07 161.025 35.892 163.815 35.892C165.957 35.892 167.559 37.404 167.559 40.014C167.559 40.554 167.505 40.77 167.019 40.824L161.619 41.454C161.925 42.498 162.825 43.254 164.301 43.254C165.093 43.254 165.957 42.912 166.533 42.606C166.749 42.48 166.929 42.588 167.019 42.822L167.361 43.686C167.451 43.956 167.487 44.1 167.271 44.28C166.533 44.838 165.255 45.198 164.139 45.198ZM163.671 37.818C162.555 37.818 161.781 38.466 161.547 39.762L165.489 39.294C165.327 38.43 164.625 37.818 163.671 37.818Z" fill="black"/>
<path d="M35.36 35.21H45.89C45.95 35.45 46 35.74 46.04 36.08C46.08 36.42 46.1 36.76 46.1 37.1C46.1 38.48 45.89 39.78 45.47 41C45.05 42.22 44.39 43.31 43.49 44.27C42.53 45.29 41.38 46.08 40.04 46.64C38.7 47.2 37.17 47.48 35.45 47.48C33.89 47.48 32.42 47.2 31.04 46.64C29.66 46.08 28.46 45.3 27.44 44.3C26.42 43.3 25.61 42.12 25.01 40.76C24.41 39.38 24.11 37.88 24.11 36.26C24.11 34.64 24.41 33.15 25.01 31.79C25.61 30.41 26.42 29.22 27.44 28.22C28.46 27.22 29.66 26.44 31.04 25.88C32.42 25.32 33.89 25.04 35.45 25.04C37.19 25.04 38.74 25.34 40.1 25.94C41.48 26.54 42.66 27.37 43.64 28.43L40.85 31.16C40.15 30.42 39.37 29.86 38.51 29.48C37.65 29.08 36.62 28.88 35.42 28.88C34.44 28.88 33.51 29.06 32.63 29.42C31.75 29.76 30.98 30.25 30.32 30.89C29.66 31.53 29.13 32.31 28.73 33.23C28.35 34.13 28.16 35.14 28.16 36.26C28.16 37.38 28.35 38.4 28.73 39.32C29.13 40.22 29.66 40.99 30.32 41.63C31 42.27 31.78 42.77 32.66 43.13C33.54 43.47 34.48 43.64 35.48 43.64C36.62 43.64 37.58 43.48 38.36 43.16C39.16 42.82 39.84 42.39 40.4 41.87C40.8 41.51 41.14 41.06 41.42 40.52C41.72 39.96 41.95 39.34 42.11 38.66H35.36V35.21Z" fill="black"/>
<circle cx="11" cy="14.405" r="2" fill="#FF4D00" fill-opacity="0.17"/>
<path d="M53.6871 4.26826L54.9924 10.9224L48.5771 8.72573L53.6871 4.26826Z" fill="#F17C7C" fill-opacity="0.46"/>
<path d="M187.322 58.7429C187.466 58.8122 187.595 58.9099 187.7 59.0301C187.806 59.1503 187.887 59.2907 187.937 59.4428C188.036 59.7478 188.064 60.0715 188.018 60.389C187.949 61.0034 187.607 61.6241 187.231 62.1204C186.715 61.6693 186.597 60.8815 186.561 60.4782C186.506 59.8411 186.791 58.655 187.327 58.7492" fill="#FF725E"/>
<path d="M187.827 63.1256C187.791 62.95 187.803 62.7681 187.861 62.5984C187.918 62.4287 188.019 62.2772 188.154 62.1594C188.29 62.0441 188.448 61.9572 188.619 61.9039C188.789 61.8506 188.969 61.832 189.146 61.849C189.229 61.8479 189.31 61.8648 189.386 61.8987C189.461 61.9325 189.527 61.9825 189.581 62.045C189.622 62.111 189.643 62.1866 189.645 62.2639C189.646 62.3412 189.627 62.4175 189.589 62.4848C189.51 62.6187 189.398 62.7295 189.263 62.8065C188.816 63.0867 188.332 63.2777 187.827 63.1256Z" fill="#FF725E"/>
<path d="M187.165 65.0104C187.167 64.968 187.173 64.926 187.182 64.8847C187.199 64.7968 187.22 64.6824 187.245 64.5442C187.303 64.1642 187.422 63.796 187.596 63.4536C187.778 63.1124 188.048 62.8258 188.377 62.623C188.477 62.5635 188.584 62.5163 188.695 62.4823C188.725 62.4723 188.756 62.4644 188.787 62.4584C188.797 62.4565 188.808 62.4565 188.819 62.4584C188.671 62.5096 188.528 62.5753 188.393 62.6544C188.077 62.8625 187.819 63.1468 187.641 63.4812C187.47 63.8198 187.349 64.1818 187.283 64.5555C187.251 64.6988 187.226 64.8144 187.206 64.8935C187.195 64.9335 187.182 64.9725 187.165 65.0104Z" fill="#263238"/>
<path d="M187.184 59.6665C187.185 59.6844 187.185 59.7025 187.184 59.7205C187.184 59.762 187.184 59.8147 187.194 59.8788C187.194 60.017 187.209 60.2156 187.216 60.4618C187.232 60.9544 187.245 61.6354 187.241 62.3868C187.237 63.1382 187.22 63.8192 187.2 64.3105C187.19 64.5618 187.18 64.7566 187.171 64.8935C187.171 64.9589 187.164 65.0116 187.161 65.0518C187.161 65.0705 187.159 65.0891 187.154 65.1071C187.152 65.0887 187.152 65.0703 187.154 65.0518C187.154 65.0104 187.154 64.9576 187.154 64.8935C187.154 64.7503 187.162 64.5518 187.169 64.3105C187.18 63.818 187.194 63.1382 187.197 62.3868C187.201 61.6354 187.197 60.9556 187.185 60.4631C187.185 60.2206 187.179 60.0233 187.176 59.8801V59.7218C187.177 59.7031 187.179 59.6846 187.184 59.6665Z" fill="#263238"/>
<path d="M186.933 63.5026C186.871 63.1303 186.721 62.7783 186.496 62.4756C186.271 62.173 185.978 61.9285 185.64 61.7623C185.467 61.6794 185.241 61.6253 185.1 61.7535C184.958 61.8817 184.989 62.1141 185.059 62.2926C185.211 62.6629 185.469 62.9798 185.8 63.2034C186.131 63.4271 186.521 63.5473 186.921 63.5491" fill="#FF725E"/>
<path d="M185.727 62.3453C185.766 62.3569 185.803 62.3729 185.838 62.3931C185.881 62.4124 185.923 62.4343 185.963 62.4584C186.009 62.4886 186.066 62.5162 186.121 62.5577C186.176 62.5992 186.246 62.6406 186.301 62.6934C186.369 62.7482 186.433 62.8069 186.493 62.8693C186.631 63.0114 186.753 63.1686 186.855 63.338C186.954 63.5088 187.033 63.6905 187.09 63.8795C187.115 63.962 187.136 64.0459 187.151 64.1308C187.166 64.2051 187.176 64.2802 187.181 64.3557C187.188 64.4175 187.191 64.4796 187.19 64.5417C187.193 64.5886 187.193 64.6356 187.19 64.6824C187.189 64.7226 187.185 64.7626 187.176 64.8018C187.166 64.8018 187.184 64.6309 187.154 64.3583C187.146 64.2844 187.134 64.211 187.119 64.1384C187.102 64.0535 187.08 63.9696 187.055 63.8871C186.994 63.7011 186.914 63.5221 186.815 63.3531C186.713 63.1865 186.594 63.0312 186.459 62.8894C186.401 62.8279 186.339 62.7696 186.274 62.7148C186.215 62.6607 186.149 62.618 186.1 62.5765C185.874 62.4245 185.719 62.3541 185.727 62.3453Z" fill="#263238"/>
<path d="M232.697 61.9407C232.704 61.9508 232.538 62.0827 232.301 62.3303C231.994 62.6533 231.733 63.0169 231.524 63.4108C231.41 63.6283 231.312 63.8533 231.229 64.0843C231.164 64.2736 231.109 64.4666 231.066 64.6623C230.994 64.9966 230.977 65.2102 230.966 65.2089C230.96 65.1588 230.96 65.1082 230.966 65.0581C230.975 64.9222 230.992 64.7871 231.019 64.6535C231.055 64.4537 231.106 64.2567 231.17 64.0642C231.253 63.8276 231.354 63.5979 231.473 63.3769C231.59 63.1576 231.724 62.9476 231.874 62.7487C231.996 62.5877 232.13 62.4357 232.275 62.2938C232.371 62.1972 232.473 62.1066 232.58 62.0224C232.617 61.9916 232.656 61.9643 232.697 61.9407Z" fill="#263238"/>
<path d="M230.573 61.9495C230.583 61.9495 230.539 62.1317 230.483 62.422C230.449 62.5909 230.43 62.7624 230.424 62.9346C230.423 63.1449 230.438 63.3549 230.468 63.5629C230.527 64.0127 230.578 64.4198 230.61 64.7151C230.628 64.8634 230.639 64.9827 230.647 65.0657C230.651 65.1074 230.651 65.1496 230.647 65.1913C230.631 65.151 230.621 65.1088 230.617 65.0657C230.602 64.984 230.583 64.8659 230.56 64.7189C230.516 64.4249 230.457 64.019 230.398 63.5692C230.368 63.3566 230.355 63.1418 230.36 62.9271C230.367 62.7513 230.392 62.5767 230.433 62.4057C230.466 62.2612 230.499 62.1456 230.523 62.0651C230.535 62.0248 230.552 61.986 230.573 61.9495Z" fill="#263238"/>
<path d="M228.977 63.6621C229.071 63.6892 229.159 63.7316 229.239 63.7878C229.64 64.0486 229.951 64.4261 230.131 64.8696C230.173 64.9591 230.2 65.0545 230.212 65.1524C229.977 64.5307 229.542 64.0049 228.977 63.6571V63.6621Z" fill="#263238"/>
<path d="M210.694 26.687L213.702 29.7026L216.308 26.2623L217.812 28.3984C217.812 28.3984 215.19 32.5612 214.633 32.9331C214.077 33.305 213.426 33.6543 212.523 32.9331C211.619 32.2119 209.403 27.8392 209.403 27.8392L210.281 26.491L210.694 26.687Z" fill="#FFBF9D"/>
<path d="M211.249 25.7723C211.218 25.6342 211.218 25.4907 211.249 25.3526C211.263 25.2316 211.23 25.11 211.158 25.0121C211.102 24.9317 211.135 24.8299 211.102 24.615C211.068 24.4002 210.773 24.3198 210.773 24.3198C210.773 24.3198 210.728 24.2167 210.66 24.0584C210.593 23.9001 210.195 23.7405 209.891 23.6613C209.586 23.5822 209.471 23.7631 209.471 23.7631L209.482 23.831L209.63 24.0245L209.019 24.262L208.611 26.4985L208.407 26.9383L209.956 27.6357L210.304 27.064C210.304 27.064 211.119 26.2799 211.182 26.1429C211.218 26.089 211.242 26.0283 211.254 25.9646C211.265 25.9009 211.264 25.8354 211.249 25.7723Z" fill="#FFBF9D"/>
<path d="M209.564 23.841C209.564 23.841 209.313 23.5596 209.103 23.6023C208.892 23.645 208.476 23.8699 208.467 24.1162C208.458 24.3625 208.742 24.3549 208.922 24.311L209.015 24.2682L209.168 24.3713L209.779 24.1325L209.564 23.841Z" fill="#FFBF9D"/>
<path d="M208.467 24.2582C208.467 24.2582 208.052 24.223 207.902 24.3198C207.848 24.3553 207.802 24.4022 207.768 24.4573C207.734 24.5124 207.712 24.5743 207.704 24.6387C207.696 24.7031 207.703 24.7685 207.723 24.8302C207.743 24.8918 207.776 24.9484 207.82 24.9958L208.517 24.8513H209.541C209.541 24.8513 209.583 24.502 209.541 24.4404C209.5 24.3788 208.913 24.2419 208.467 24.2582Z" fill="#FFBF9D"/>
<path d="M207.773 25.0083C207.708 25.051 207.656 25.1104 207.622 25.1803C207.588 25.2501 207.573 25.3279 207.58 25.4054C207.591 25.4826 207.623 25.5556 207.671 25.617C207.719 25.6785 207.782 25.7263 207.854 25.7559L208.589 25.4355L210.218 25.4657C210.218 25.4657 210.469 25.1516 210.148 25.0083C209.827 24.8651 209.02 24.8538 208.679 24.8525C208.372 24.8733 208.069 24.9255 207.773 25.0083Z" fill="#FFBF9D"/>
<path d="M207.854 25.7559C207.802 25.8124 207.767 25.8834 207.755 25.9597C207.742 26.036 207.753 26.1142 207.785 26.1844C207.902 26.4118 208.005 26.4118 208.005 26.4118C208.005 26.4118 208.005 26.6983 208.092 26.7888C208.162 26.8594 208.238 26.9233 208.319 26.9798L208.868 26.5475C208.868 26.5475 209.643 26.4747 209.745 26.3679C209.817 26.284 209.874 26.1884 209.913 26.0851C209.913 26.0851 210.194 26.1291 210.311 26.0047C210.427 25.8803 210.436 25.5386 210.163 25.472L208.589 25.4305L207.854 25.7559Z" fill="#FFBF9D"/>
<path d="M204.161 27.2147L205.976 29.1724L208.402 26.9383L210.393 26.9798C210.393 26.9798 207.323 32.1691 206.615 32.585C205.907 33.0009 205.37 32.8112 204.576 32.3262C203.781 31.8412 201.143 28.48 201.143 28.48L204.161 27.2147Z" fill="#FFBF9D"/>
<path d="M209.891 26.1254C210.009 26.0412 209.581 26.006 209.129 26.0311C208.849 26.0627 208.572 26.1106 208.298 26.1744C208.369 26.1293 208.447 26.0966 208.529 26.0776C208.722 26.017 208.922 25.9794 209.124 25.9658C209.326 25.9512 209.529 25.96 209.729 25.9922L209.832 26.011C209.862 26.016 209.889 26.0327 209.907 26.0575C209.912 26.0663 209.915 26.0763 209.915 26.0864C209.915 26.0965 209.912 26.1065 209.907 26.1153C209.9 26.1266 209.892 26.1266 209.891 26.1254Z" fill="#FF9A6C"/>
<path d="M210.217 25.4883C210.121 25.5033 210.024 25.5058 209.928 25.4959L209.238 25.4632C209.009 25.4525 208.78 25.463 208.554 25.4946C208.46 25.5154 208.366 25.5301 208.27 25.5386C208.356 25.4934 208.449 25.4632 208.545 25.4494C208.774 25.4034 209.007 25.3861 209.24 25.3978C209.512 25.4066 209.755 25.433 209.931 25.4494C210.027 25.4528 210.123 25.4659 210.217 25.4883Z" fill="#FF9A6C"/>
<path d="M209.559 24.8701C209.559 24.8915 209.183 24.8701 208.723 24.894C208.263 24.9178 207.894 24.992 207.891 24.9719C207.966 24.9384 208.047 24.916 208.129 24.9053C208.323 24.8657 208.521 24.8401 208.719 24.8286C208.917 24.8162 209.116 24.8162 209.314 24.8286C209.397 24.8304 209.48 24.8443 209.559 24.8701Z" fill="#FF9A6C"/>
<path d="M209.54 24.4253C209.308 24.3639 209.072 24.324 208.833 24.3059C208.437 24.2896 208.111 24.3147 208.111 24.2921C208.179 24.269 208.25 24.2567 208.322 24.2557C208.493 24.2382 208.665 24.2331 208.837 24.2406C209.01 24.2475 209.182 24.2779 209.347 24.3311C209.417 24.3495 209.482 24.3815 209.54 24.4253Z" fill="#FF9A6C"/>
<path d="M210.143 23.9905C210.014 24.068 209.876 24.1296 209.732 24.174C209.596 24.2389 209.454 24.2883 209.307 24.321C209.427 24.2289 209.563 24.1587 209.708 24.1137C209.845 24.0487 209.992 24.0071 210.143 23.9905Z" fill="#6F4439"/>
<path d="M213.856 31.3361C213.855 31.0379 213.837 30.74 213.801 30.444C213.743 30.1512 213.668 29.8622 213.577 29.5782C213.631 29.6498 213.673 29.7295 213.702 29.8144C213.78 30.0138 213.836 30.2211 213.87 30.4326C213.904 30.6444 213.915 30.8594 213.901 31.0735C213.9 31.1629 213.885 31.2515 213.856 31.3361Z" fill="#FF9A6C"/>
<path d="M205.89 30.645C205.872 30.645 205.965 30.2969 205.99 29.8635C206.015 29.43 205.965 29.0781 205.99 29.0756C206.116 29.5965 206.083 30.1433 205.895 30.645H205.89Z" fill="#6F4439"/>
<path d="M218.659 20.1532C218.67 19.4898 218.804 18.1265 218.94 16.8926C219.01 16.2532 219.318 15.6638 219.801 15.2415C220.285 14.8191 220.91 14.5949 221.551 14.6133H221.683C223.106 14.7389 223.795 16.018 223.631 17.4404L223.505 23.0494L222.49 24.6829L220.103 24.1413L220.272 21.7741C220.272 21.7741 218.636 21.5215 218.659 20.1532Z" fill="#FFBF9D"/>
<path d="M219.999 21.7741C220.63 21.8043 221.257 21.6455 221.798 21.318C221.798 21.318 221.348 22.293 219.985 22.1297L219.999 21.7741Z" fill="#FF9A6C"/>
<path d="M219.22 18.1315C219.219 18.1826 219.237 18.2323 219.271 18.2703C219.305 18.3083 219.352 18.3315 219.403 18.335C219.428 18.3376 219.453 18.3353 219.477 18.328C219.501 18.3208 219.523 18.3089 219.542 18.293C219.562 18.2771 219.578 18.2575 219.589 18.2354C219.601 18.2133 219.608 18.1891 219.61 18.1641C219.612 18.1131 219.594 18.0633 219.56 18.0253C219.525 17.9873 219.478 17.9641 219.427 17.9606C219.402 17.9578 219.377 17.9601 219.353 17.9672C219.329 17.9744 219.307 17.9863 219.288 18.0022C219.268 18.0181 219.253 18.0378 219.241 18.06C219.229 18.0822 219.222 18.1065 219.22 18.1315Z" fill="#263238"/>
<path d="M219.19 17.4957C219.214 17.5208 219.366 17.4153 219.576 17.4228C219.787 17.4303 219.937 17.5397 219.961 17.5145C219.985 17.4894 219.95 17.4555 219.883 17.4052C219.795 17.3387 219.687 17.3018 219.576 17.2997C219.467 17.2963 219.359 17.328 219.269 17.3901C219.208 17.4379 219.19 17.4831 219.19 17.4957Z" fill="#263238"/>
<path d="M221.097 18.1692C221.094 18.2203 221.112 18.2703 221.147 18.3083C221.181 18.3464 221.229 18.3695 221.28 18.3727C221.304 18.3755 221.329 18.3732 221.353 18.3661C221.377 18.3589 221.4 18.3471 221.419 18.3311C221.438 18.3152 221.454 18.2955 221.466 18.2733C221.477 18.2511 221.484 18.2268 221.486 18.2018C221.488 18.1508 221.47 18.101 221.436 18.063C221.402 18.025 221.354 18.0018 221.303 17.9983C221.278 17.9955 221.253 17.9978 221.229 18.0049C221.205 18.0121 221.183 18.0239 221.164 18.0399C221.145 18.0558 221.129 18.0755 221.117 18.0977C221.106 18.1199 221.099 18.1442 221.097 18.1692Z" fill="#263238"/>
<path d="M221.202 17.4969C221.222 17.5258 221.384 17.4366 221.593 17.4668C221.802 17.4969 221.94 17.6213 221.969 17.5924C221.998 17.5635 221.969 17.5346 221.904 17.4756C221.822 17.4009 221.719 17.3532 221.609 17.3386C221.501 17.323 221.391 17.3424 221.295 17.3939C221.219 17.4404 221.196 17.4844 221.202 17.4969Z" fill="#263238"/>
<path d="M220.472 19.2096C220.362 19.1724 220.248 19.1484 220.133 19.1379C220.079 19.1304 220.029 19.1191 220.02 19.0814C220.018 19.0257 220.032 18.9705 220.061 18.9231C220.115 18.7974 220.172 18.6592 220.232 18.5172C220.47 17.9392 220.643 17.4643 220.62 17.4542C220.598 17.4442 220.385 17.9066 220.148 18.4833C220.09 18.6265 220.035 18.7622 219.984 18.8917C219.948 18.9558 219.936 19.0306 219.95 19.1028C219.957 19.1219 219.968 19.1391 219.983 19.1533C219.998 19.1674 220.016 19.1781 220.035 19.1844C220.065 19.1931 220.095 19.1982 220.126 19.1995C220.241 19.218 220.357 19.2214 220.472 19.2096Z" fill="#263238"/>
<path d="M221.292 16.586C221.311 16.6438 221.523 16.6224 221.768 16.6601C222.014 16.6978 222.212 16.7694 222.246 16.7192C222.262 16.6953 222.228 16.64 222.149 16.5822C222.044 16.5113 221.923 16.4652 221.797 16.4476C221.672 16.43 221.543 16.4412 221.422 16.4804C221.331 16.5093 221.284 16.5583 221.292 16.586Z" fill="#263238"/>
<path d="M219.254 16.6802C219.289 16.7292 219.436 16.6802 219.61 16.6802C219.784 16.6802 219.931 16.7217 219.967 16.6727C219.982 16.6488 219.961 16.5998 219.897 16.547C219.813 16.4895 219.712 16.4592 219.61 16.4603C219.508 16.4591 219.407 16.4898 219.323 16.5483C219.259 16.6073 219.238 16.6563 219.254 16.6802Z" fill="#263238"/>
<path d="M223.489 18.4544C223.513 18.4443 224.439 18.2031 224.381 19.1404C224.324 20.0778 223.398 19.8278 223.398 19.8001C223.398 19.7725 223.489 18.4544 223.489 18.4544Z" fill="#FFBF9D"/>
<path d="M223.702 19.4621C223.702 19.4621 223.717 19.4747 223.745 19.4898C223.764 19.4997 223.785 19.5056 223.806 19.5071C223.828 19.5086 223.85 19.5057 223.87 19.4986C223.932 19.4637 223.985 19.413 224.021 19.3514C224.058 19.2898 224.077 19.2196 224.078 19.148C224.085 19.0679 224.075 18.9871 224.047 18.9118C224.04 18.8817 224.026 18.8538 224.006 18.8306C223.986 18.8074 223.96 18.7895 223.931 18.7786C223.913 18.7724 223.893 18.7729 223.875 18.78C223.857 18.7871 223.842 18.8004 223.832 18.8175C223.819 18.8427 223.824 18.8615 223.819 18.8628C223.814 18.864 223.8 18.8464 223.81 18.8075C223.817 18.7846 223.831 18.7647 223.85 18.7509C223.877 18.7335 223.91 18.7272 223.941 18.7333C223.98 18.7432 224.014 18.7627 224.043 18.7899C224.071 18.8172 224.092 18.8514 224.103 18.8891C224.138 18.9725 224.152 19.0631 224.143 19.153C224.126 19.3427 224.018 19.5136 223.881 19.5438C223.856 19.5498 223.829 19.5498 223.803 19.5439C223.778 19.5381 223.754 19.5264 223.733 19.5099C223.702 19.4847 223.702 19.4634 223.702 19.4621Z" fill="#FF9A6C"/>
<path d="M218.833 15.2817C218.852 15.1887 218.897 15.1032 218.964 15.0361C219.031 14.969 219.116 14.9233 219.209 14.9048C219.2 14.8759 219.401 14.7791 219.557 14.6698C219.714 14.5605 219.748 14.2929 219.89 14.4273C219.894 14.3573 219.915 14.2894 219.951 14.2293C219.987 14.1692 220.037 14.1186 220.097 14.0817C220.156 14.0448 220.223 14.0227 220.293 14.0173C220.363 14.0118 220.433 14.0232 220.497 14.0503C220.497 13.8845 220.737 13.8292 220.897 13.7865C221.058 13.7438 221.119 13.7211 221.194 13.8682C221.25 13.7905 221.323 13.7263 221.407 13.6805C221.49 13.6347 221.583 13.6083 221.679 13.6034C221.774 13.5984 221.87 13.615 221.958 13.6519C222.046 13.6888 222.125 13.7451 222.188 13.8166C222.379 13.7612 222.584 13.7781 222.764 13.864C222.944 13.9499 223.086 14.0989 223.163 14.2828C223.316 14.2979 223.461 14.3584 223.579 14.4567C223.698 14.555 223.784 14.6865 223.827 14.8344C224.024 14.857 224.071 15.0103 224.15 15.1913C224.228 15.3722 224.338 15.5682 224.221 15.7328C224.276 15.7666 224.322 15.8127 224.357 15.8675C224.391 15.9223 224.412 15.9843 224.419 16.0486C224.425 16.113 224.416 16.178 224.394 16.2385C224.371 16.299 224.335 16.3534 224.287 16.3975C224.34 16.4257 224.385 16.4646 224.421 16.5118C224.469 16.5448 224.51 16.5869 224.541 16.6357C224.573 16.6845 224.594 16.7391 224.604 16.7962C224.614 16.8534 224.613 16.912 224.6 16.9686C224.588 17.0253 224.564 17.0789 224.531 17.1263C224.602 17.1836 224.654 17.2623 224.678 17.351C224.702 17.4397 224.698 17.5338 224.666 17.6199C224.633 17.7059 224.574 17.7794 224.498 17.8298C224.421 17.8801 224.33 17.9048 224.239 17.9003C224.389 18.1202 224.193 18.4154 224.079 18.4783C224.079 18.4783 223.697 18.3149 223.632 18.6039C223.634 18.6334 223.629 18.6631 223.617 18.6901C223.605 18.7171 223.586 18.7406 223.562 18.7583C223.539 18.7761 223.511 18.7874 223.482 18.7914C223.452 18.7954 223.423 18.7918 223.395 18.7811C223.291 18.7148 223.21 18.619 223.161 18.5059C223.08 18.3906 223.017 18.2634 222.975 18.129C222.956 18.062 222.959 17.9907 222.983 17.9254C223.007 17.8601 223.051 17.8043 223.109 17.7658C223.031 17.7302 222.964 17.6747 222.914 17.6048C222.864 17.5349 222.833 17.4531 222.825 17.3675C222.811 17.1987 222.826 17.0287 222.869 16.8649L223.023 16.1248C222.853 16.1134 222.689 16.0556 222.55 15.9577C222.41 15.8598 222.3 15.7256 222.231 15.5695C222.167 15.6108 222.096 15.6382 222.021 15.6498C221.946 15.6614 221.87 15.6569 221.797 15.6368C221.724 15.6166 221.656 15.5811 221.598 15.5327C221.539 15.4842 221.492 15.424 221.459 15.3559C221.392 15.5194 221.266 15.6516 221.106 15.7258C220.946 15.7999 220.764 15.8105 220.596 15.7554C220.628 15.9502 220.274 16.1211 220.083 16.1676C219.933 16.1825 219.784 16.1485 219.655 16.0708C219.655 16.0708 219.322 16.2555 219.145 16.1789C218.968 16.1022 218.739 15.8698 218.861 15.6876C218.82 15.5564 218.81 15.4173 218.833 15.2817Z" fill="#263238"/>
<path d="M220.616 14.0328C220.648 14.007 220.684 13.9874 220.723 13.975C220.768 13.9621 220.817 13.9661 220.86 13.9863C220.887 13.9992 220.911 14.0181 220.93 14.0415C220.949 14.065 220.963 14.0925 220.97 14.122L220.981 14.1747L221.01 14.1283C221.042 14.0798 221.086 14.0402 221.137 14.0132C221.188 13.9862 221.245 13.9726 221.303 13.9737C221.373 13.9773 221.44 14.003 221.495 14.047C221.549 14.091 221.588 14.1511 221.607 14.2187L221.622 14.2803L221.663 14.2313C221.703 14.1836 221.754 14.1456 221.81 14.1201C221.867 14.0947 221.929 14.0824 221.991 14.0843C222.058 14.0869 222.122 14.1063 222.179 14.1405C222.236 14.1748 222.284 14.2228 222.317 14.2803C222.347 14.3267 222.365 14.3791 222.372 14.4336V14.4713L222.41 14.4637C222.498 14.4462 222.589 14.4585 222.669 14.4988C222.749 14.5391 222.813 14.605 222.851 14.6861C222.881 14.7588 222.89 14.8385 222.876 14.9158C222.862 14.9931 222.826 15.0647 222.772 15.1221L222.735 15.1598L222.786 15.1699C222.899 15.1942 222.998 15.2619 223.062 15.3584C223.111 15.4327 223.136 15.5205 223.133 15.6097C223.128 15.6877 223.109 15.7642 223.078 15.8358C223.094 15.8212 223.106 15.8037 223.116 15.7843C223.143 15.7303 223.16 15.6714 223.166 15.6109C223.174 15.5138 223.151 15.4165 223.101 15.3332C223.067 15.2787 223.023 15.2313 222.971 15.1938C222.919 15.1563 222.861 15.1294 222.798 15.1146L222.812 15.1624C222.882 15.093 222.928 15.0027 222.942 14.905C222.957 14.8073 222.939 14.7076 222.892 14.6209C222.845 14.5342 222.771 14.4653 222.681 14.4244C222.592 14.3836 222.491 14.3732 222.395 14.3946L222.438 14.4248C222.422 14.3146 222.369 14.2132 222.286 14.1384C222.204 14.0636 222.099 14.02 221.988 14.0152C221.916 14.0141 221.845 14.0292 221.78 14.0595C221.715 14.0897 221.657 14.1343 221.612 14.1898L221.669 14.2024C221.647 14.122 221.599 14.051 221.534 13.9997C221.468 13.9483 221.388 13.9194 221.305 13.9172C221.238 13.9168 221.172 13.934 221.113 13.967C221.055 14.0001 221.007 14.0479 220.972 14.1056L221.013 14.1119C221.004 14.076 220.986 14.0427 220.962 14.0147C220.938 13.9867 220.908 13.9649 220.873 13.9511C220.823 13.9316 220.767 13.9316 220.717 13.9511C220.686 13.9623 220.657 13.9803 220.634 14.0039C220.619 14.0202 220.615 14.0315 220.616 14.0328Z" fill="#455A64"/>
<path d="M218.698 19.3993C218.735 19.3759 218.776 19.361 218.819 19.3557C218.862 19.3503 218.906 19.3547 218.948 19.3684C218.989 19.3821 219.027 19.4048 219.058 19.4349C219.09 19.465 219.114 19.5018 219.13 19.5425C219.17 19.4869 219.225 19.4436 219.289 19.4178C219.352 19.3919 219.422 19.3844 219.489 19.3962C219.557 19.408 219.62 19.4386 219.671 19.4844C219.722 19.5303 219.759 19.5896 219.778 19.6556C219.797 19.6084 219.828 19.5669 219.868 19.535C219.908 19.5031 219.955 19.4819 220.005 19.4733C220.055 19.4648 220.107 19.4692 220.155 19.4861C220.203 19.5031 220.246 19.532 220.279 19.5702C220.306 19.5293 220.344 19.4976 220.389 19.4794C220.433 19.4612 220.483 19.4573 220.53 19.4684C220.525 19.4227 220.534 19.3765 220.555 19.3357C220.576 19.295 220.609 19.2614 220.649 19.2394C220.69 19.2173 220.735 19.2077 220.781 19.2118C220.827 19.2159 220.87 19.2335 220.906 19.2623C220.934 19.2169 220.972 19.1781 221.016 19.1483C221.06 19.1186 221.111 19.0987 221.163 19.0899C221.216 19.0811 221.27 19.0836 221.321 19.0973C221.373 19.111 221.421 19.1356 221.462 19.1693C221.476 19.1254 221.504 19.0872 221.541 19.0607C221.579 19.0341 221.624 19.0207 221.67 19.0224C221.716 19.0241 221.76 19.0409 221.795 19.0702C221.831 19.0994 221.856 19.1396 221.866 19.1844C221.912 19.1276 221.974 19.0869 222.045 19.0686C222.115 19.0503 222.19 19.0552 222.257 19.0826C222.259 19.0492 222.268 19.0166 222.284 18.9872C222.3 18.9577 222.322 18.9321 222.349 18.9122C222.375 18.8923 222.406 18.8785 222.439 18.8719C222.472 18.8653 222.505 18.8661 222.538 18.8741C222.505 18.7585 222.676 18.7069 222.762 18.6228C222.801 18.5863 222.826 18.5348 222.867 18.4971C222.909 18.4594 222.983 18.4556 223.01 18.4971C222.999 18.4502 223.005 18.4007 223.028 18.3582C223.051 18.3158 223.089 18.2835 223.135 18.2678C223.18 18.252 223.23 18.2539 223.274 18.2731C223.319 18.2923 223.354 18.3274 223.374 18.3715C223.392 18.4249 223.403 18.4808 223.405 18.5373C223.431 18.717 223.53 18.9306 223.405 19.0575C223.383 19.0801 223.352 19.0977 223.342 19.1291C223.326 19.1807 223.377 19.2309 223.381 19.2849C223.385 19.339 223.327 19.3968 223.301 19.4558C223.278 19.5474 223.278 19.6432 223.301 19.7348C223.307 19.829 223.255 19.9484 223.161 19.9383C223.194 20.008 223.202 20.0872 223.183 20.162C223.164 20.2368 223.119 20.3026 223.057 20.3479C223.073 20.388 223.081 20.431 223.08 20.4743C223.079 20.5175 223.07 20.5602 223.052 20.5998C223.035 20.6393 223.01 20.6749 222.978 20.7044C222.946 20.7338 222.909 20.7566 222.869 20.7714C222.897 20.8002 222.913 20.8382 222.916 20.8784C222.918 20.9185 222.906 20.9582 222.881 20.99C222.829 21.0513 222.763 21.0988 222.688 21.1282C222.703 21.1386 222.716 21.1519 222.726 21.1673C222.736 21.1827 222.742 21.1999 222.745 21.2179C222.749 21.2359 222.748 21.2543 222.744 21.2722C222.74 21.29 222.733 21.3068 222.722 21.3217C222.676 21.3798 222.611 21.4195 222.538 21.4336C222.506 21.4384 222.478 21.4539 222.456 21.4775C222.422 21.5265 222.468 21.5919 222.456 21.6509C222.441 21.7401 222.316 21.7665 222.278 21.8482C222.241 21.9299 222.288 22.0254 222.229 22.0807C222.192 22.1158 222.132 22.1096 222.083 22.1272C221.995 22.1573 221.958 22.2528 221.9 22.3307C221.781 22.464 221.621 22.5527 221.445 22.582C221.358 22.6046 221.272 22.6235 221.184 22.6398C221.009 22.6725 220.832 22.6938 220.654 22.7152C220.566 22.7265 220.459 22.7278 220.412 22.6524C220.379 22.6866 220.339 22.7128 220.295 22.7288C220.25 22.7449 220.202 22.7503 220.155 22.7447C220.108 22.7391 220.063 22.7226 220.024 22.6966C219.984 22.6705 219.951 22.6356 219.927 22.5946C219.764 22.6174 219.597 22.5856 219.453 22.5041L219.298 22.4363C219.144 22.3684 218.972 22.2817 218.922 22.1196C218.873 22.1093 218.826 22.0882 218.786 22.0578C218.746 22.0274 218.713 21.9884 218.69 21.9437C218.666 21.8991 218.653 21.8497 218.651 21.7993C218.649 21.7489 218.658 21.6987 218.678 21.6522C218.607 21.6723 218.54 21.6007 218.529 21.5265C218.525 21.453 218.535 21.3795 218.556 21.3092C218.61 21.0151 218.453 20.7161 218.495 20.4196C218.522 20.2122 218.646 20.0074 218.586 19.8064C218.57 19.7664 218.56 19.7239 218.557 19.6807C218.557 19.638 218.6 19.594 218.641 19.6066C218.632 19.5769 218.629 19.5453 218.635 19.5145C218.64 19.4837 218.653 19.4547 218.672 19.43C218.691 19.4052 218.716 19.3855 218.744 19.3725C218.772 19.3595 218.803 19.3536 218.834 19.3553" fill="#263238"/>
<path d="M221.168 19.4207C221.134 19.4207 221.127 19.6468 220.927 19.7976C220.728 19.9484 220.484 19.9233 220.481 19.9547C220.481 19.9685 220.535 19.9999 220.638 20.0062C220.773 20.0132 220.907 19.9713 221.014 19.8881C221.115 19.809 221.183 19.6938 221.202 19.5664C221.208 19.4772 221.184 19.4207 221.168 19.4207Z" fill="white"/>
<path d="M222.424 20.9875C222.472 20.83 222.502 20.6671 222.511 20.5025C222.509 20.3374 222.486 20.1732 222.444 20.0137C222.472 20.0545 222.491 20.1007 222.501 20.1494C222.535 20.2639 222.551 20.383 222.549 20.5025C222.546 20.6223 222.525 20.741 222.486 20.8543C222.473 20.9021 222.452 20.9472 222.424 20.9875Z" fill="#455A64"/>
<path d="M222.639 20.6558C222.658 20.6224 222.675 20.588 222.69 20.5528C222.718 20.4629 222.726 20.3683 222.714 20.2751C222.697 20.0527 222.636 19.8805 222.647 19.878C222.71 20.0002 222.745 20.1349 222.75 20.2726C222.763 20.3703 222.751 20.4696 222.715 20.5616C222.683 20.6319 222.641 20.6558 222.639 20.6558Z" fill="#455A64"/>
<path d="M222.869 20.4661C222.923 20.3361 222.956 20.1982 222.967 20.0577C222.968 19.9166 222.946 19.7763 222.904 19.6418C222.931 19.6748 222.95 19.7134 222.961 19.7549C222.994 19.8528 223.008 19.9558 223.005 20.059C223 20.1622 222.977 20.2636 222.935 20.358C222.921 20.3984 222.898 20.4352 222.869 20.4661Z" fill="#455A64"/>
<path d="M219.056 21.8696C219.007 21.8551 218.963 21.8257 218.931 21.7854C218.85 21.689 218.794 21.5737 218.769 21.4499C218.738 21.3268 218.728 21.1995 218.738 21.073C218.739 21.0213 218.749 20.9704 218.768 20.9222C218.756 21.0944 218.769 21.2674 218.805 21.4361C218.83 21.5547 218.88 21.6666 218.951 21.764C218.984 21.8015 219.019 21.8367 219.056 21.8696Z" fill="#455A64"/>
<path d="M219.257 21.8193C219.216 21.8035 219.18 21.7781 219.152 21.7452C219.077 21.6719 219.018 21.5833 218.98 21.4854C218.941 21.3874 218.924 21.2824 218.93 21.1772C218.929 21.1339 218.937 21.0909 218.956 21.0516C218.959 21.0934 218.959 21.1354 218.956 21.1772C218.957 21.2779 218.977 21.3775 219.013 21.4713C219.05 21.5634 219.103 21.6484 219.169 21.7226C219.222 21.7866 219.26 21.8143 219.257 21.8193Z" fill="#455A64"/>
<path d="M218.908 16.062C219.135 15.7428 219.46 15.5068 219.833 15.3898C220.961 15.053 222.557 14.9249 224.235 16.5835L224.479 16.6953C224.507 16.3671 224.496 16.0367 224.444 15.7114C224.386 15.4325 223.879 13.8041 222.063 13.6332C222.064 13.6332 219.292 13.1796 218.908 16.062Z" fill="#455A64"/>
<g opacity="0.3">
<path d="M218.908 16.062C219.135 15.7428 219.46 15.5068 219.833 15.3898C220.961 15.053 222.557 14.9249 224.235 16.5835L224.479 16.6953C224.507 16.3671 224.496 16.0367 224.444 15.7114C224.386 15.4325 223.879 13.8041 222.063 13.6332C222.064 13.6332 219.292 13.1796 218.908 16.062Z" fill="black"/>
</g>
<path d="M224.235 16.5835C223.545 15.8296 222.659 15.3923 221.728 15.0455C220.797 14.6987 219.326 14.4688 218.333 14.4172C218.035 14.382 217.733 14.4115 217.448 14.5039C217.171 14.6133 216.928 14.8646 216.916 15.1636C216.899 15.5406 217.641 15.9565 217.982 16.111C218.323 16.2656 219.016 16.537 219.016 16.537C219.016 16.537 219.203 15.6876 219.872 15.4463C221.262 14.9425 224.286 16.6124 224.235 16.5835Z" fill="#455A64"/>
<path d="M218.824 15.5117C218.868 15.3989 218.949 15.3045 219.054 15.2438C219.158 15.1831 219.28 15.1597 219.4 15.1774C219.373 15.1422 219.359 15.0995 219.359 15.0556C219.359 15.0116 219.373 14.9689 219.4 14.9337C219.457 14.8669 219.536 14.8225 219.623 14.808C219.774 14.7778 219.931 14.8001 220.067 14.8714C220.204 14.9427 220.313 15.0586 220.375 15.2001C220.454 15.123 220.551 15.0673 220.657 15.0383C220.763 15.0092 220.875 15.0078 220.982 15.0342C221.089 15.0519 221.188 15.1038 221.263 15.1821C221.338 15.2605 221.385 15.3611 221.399 15.4689C221.399 15.5488 221.376 15.6271 221.333 15.694C221.289 15.761 221.227 15.8138 221.154 15.8459C221 15.9364 220.759 15.8723 220.603 15.7856C220.572 15.8715 220.52 15.9485 220.453 16.0102C220.386 16.072 220.305 16.1165 220.216 16.14C220.128 16.1636 220.036 16.1655 219.947 16.1456C219.858 16.1256 219.775 16.0845 219.705 16.0256C219.627 16.1168 219.52 16.178 219.402 16.1987C219.283 16.2193 219.162 16.1982 219.057 16.1388C218.953 16.0794 218.872 15.9855 218.829 15.8732C218.786 15.7609 218.784 15.6371 218.822 15.523L218.824 15.5117Z" fill="#263238"/>
<path d="M217.867 60.9632L217.971 63.7451C217.971 63.7451 215.186 64.7867 215.155 65.3019L220.544 65.2931L220.559 60.9506L217.867 60.9632Z" fill="#455A64"/>
<path d="M219.636 63.5026C219.688 63.5186 219.732 63.553 219.76 63.5992C219.788 63.6455 219.799 63.7005 219.789 63.7539C219.775 63.807 219.742 63.8526 219.695 63.8811C219.648 63.9097 219.592 63.919 219.539 63.9072C219.483 63.8907 219.436 63.8541 219.407 63.8046C219.377 63.7551 219.367 63.6962 219.378 63.6395C219.399 63.5872 219.439 63.5449 219.49 63.5214C219.541 63.498 219.6 63.4953 219.653 63.5139" fill="#E0E0E0"/>
<path d="M220.543 65.2931L220.528 64.8546L215.366 65.028C215.366 65.028 215.127 65.1335 215.155 65.3019L220.543 65.2931Z" fill="#263238"/>
<path d="M217.883 63.7174C217.883 63.7438 218.016 63.7564 218.146 63.8431C218.277 63.9298 218.344 64.0378 218.368 64.0278C218.392 64.0177 218.353 63.8657 218.195 63.7652C218.037 63.6647 217.878 63.6936 217.883 63.7174Z" fill="white"/>
<path d="M217.319 63.9537C217.313 63.9788 217.427 64.024 217.517 64.1346C217.607 64.2452 217.632 64.3645 217.659 64.3633C217.685 64.362 217.701 64.2125 217.587 64.0768C217.473 63.9411 217.319 63.9285 217.319 63.9537Z" fill="white"/>
<path d="M216.999 64.6334C217.022 64.6334 217.058 64.5078 216.991 64.362C216.924 64.2163 216.8 64.161 216.79 64.1836C216.78 64.2062 216.855 64.2816 216.908 64.401C216.96 64.5203 216.972 64.6334 216.999 64.6334Z" fill="white"/>
<path d="M217.929 63.0816C217.941 63.1055 218.061 63.0691 218.21 63.0816C218.359 63.0942 218.475 63.1394 218.488 63.1168C218.502 63.0942 218.391 63 218.215 62.9912C218.04 62.9824 217.917 63.0603 217.929 63.0816Z" fill="white"/>
<path d="M224.329 61.1353L224.479 64.5002L223.827 67.1967C223.817 67.2426 223.815 67.2903 223.824 67.3368C223.832 67.3833 223.85 67.4276 223.875 67.467C223.901 67.5064 223.935 67.5401 223.974 67.566C224.014 67.5919 224.058 67.6095 224.104 67.6176C224.159 67.6271 224.214 67.6233 224.266 67.6067C224.319 67.5901 224.366 67.5611 224.405 67.5221C224.907 67.0195 226.695 65.1348 226.702 64.9501C226.714 64.6636 226.796 61.3489 226.796 61.3489L224.329 61.1353Z" fill="#455A64"/>
<path d="M224.109 67.6176L226.72 64.6812V64.8244C226.721 64.9474 226.681 65.0671 226.605 65.1637C226.397 65.415 225.808 66.1136 224.418 67.5221C224.378 67.5625 224.329 67.5924 224.274 67.6091C224.22 67.6258 224.163 67.6287 224.107 67.6176H224.109Z" fill="#263238"/>
<g opacity="0.6">
<path d="M226.007 63.6106C225.968 63.6421 225.941 63.6865 225.932 63.7359C225.923 63.7853 225.933 63.8363 225.958 63.8795C225.988 63.9214 226.033 63.9502 226.083 63.96C226.133 63.9698 226.185 63.9599 226.229 63.9323C226.272 63.8989 226.301 63.8508 226.31 63.7973C226.32 63.7437 226.31 63.6884 226.281 63.642C226.246 63.6012 226.196 63.5758 226.143 63.5713C226.089 63.5668 226.036 63.5837 225.994 63.6182" fill="white"/>
</g>
<path d="M224.846 66.1287C224.762 66.027 224.66 65.9418 224.546 65.8774C224.421 65.8306 224.29 65.8085 224.157 65.812C224.157 65.8032 224.196 65.7768 224.275 65.763C224.378 65.7505 224.483 65.7674 224.577 65.8119C224.671 65.8563 224.751 65.9265 224.808 66.0143C224.848 66.0772 224.854 66.1262 224.846 66.1287Z" fill="white"/>
<path d="M224.616 66.5848C224.519 66.533 224.419 66.4868 224.316 66.4466C224.207 66.4292 224.097 66.4175 223.987 66.4114C224.038 66.3782 224.096 66.3577 224.157 66.3516C224.217 66.3455 224.278 66.3539 224.335 66.3762C224.534 66.429 224.633 66.576 224.616 66.5848Z" fill="white"/>
<path d="M225.279 65.5419C225.135 65.4468 224.985 65.3628 224.829 65.2906C224.564 65.1901 224.327 65.2076 224.327 65.185C224.503 65.147 224.685 65.1597 224.853 65.2218C225.022 65.2839 225.169 65.3927 225.277 65.5356L225.279 65.5419Z" fill="white"/>
<path d="M225.319 64.5153C225.31 64.5354 225.122 64.4613 224.881 64.4575C224.641 64.4537 224.449 64.5166 224.442 64.4965C224.576 64.4192 224.728 64.38 224.883 64.3834C225.037 64.3867 225.188 64.4323 225.319 64.5153Z" fill="white"/>
<path d="M225.3 63.5252C225.152 63.4813 224.999 63.4577 224.845 63.4548C224.693 63.4757 224.544 63.518 224.403 63.5805C224.403 63.5729 224.433 63.5302 224.509 63.4837C224.611 63.4254 224.724 63.3916 224.841 63.3851C224.958 63.3785 225.075 63.3994 225.182 63.446C225.264 63.48 225.304 63.5177 225.3 63.5252Z" fill="white"/>
<path d="M224.848 63.2664C224.837 63.2254 224.834 63.1827 224.84 63.1407C224.849 63.0234 224.881 62.9089 224.934 62.804C224.967 62.7241 225.024 62.6571 225.098 62.613C225.124 62.6012 225.153 62.5975 225.181 62.6024C225.209 62.6073 225.235 62.6207 225.255 62.6406C225.291 62.6824 225.311 62.736 225.311 62.7914C225.306 62.9048 225.261 63.0126 225.185 63.0967C225.109 63.1808 225.006 63.2358 224.894 63.2525C224.783 63.2662 224.671 63.2465 224.571 63.1959C224.471 63.1454 224.389 63.0662 224.334 62.9686C224.32 62.9439 224.312 62.9165 224.309 62.8883C224.307 62.8601 224.311 62.8317 224.321 62.8052C224.334 62.7795 224.354 62.7584 224.379 62.7449C224.405 62.7314 224.433 62.7261 224.462 62.7298C224.544 62.7461 224.621 62.7843 224.685 62.8404C224.777 62.9095 224.857 62.9946 224.92 63.0917C224.946 63.1258 224.964 63.1647 224.974 63.206C224.884 63.0812 224.777 62.9703 224.655 62.8768C224.597 62.8306 224.529 62.7991 224.457 62.7851C224.441 62.7825 224.425 62.7851 224.412 62.7923C224.398 62.7996 224.387 62.8112 224.38 62.8253C224.375 62.8431 224.373 62.8619 224.376 62.8804C224.378 62.8989 224.385 62.9166 224.395 62.9321C224.445 63.0153 224.517 63.0823 224.604 63.1251C224.691 63.1679 224.788 63.1847 224.884 63.1734C224.979 63.1591 225.066 63.1131 225.131 63.0428C225.196 62.9724 225.235 62.882 225.242 62.7864C225.244 62.7477 225.231 62.7098 225.207 62.6796C225.197 62.6682 225.183 62.6605 225.167 62.6576C225.152 62.6546 225.136 62.6566 225.122 62.6632C225.059 62.7001 225.01 62.756 224.98 62.8228C224.91 62.9615 224.865 63.1117 224.848 63.2664Z" fill="white"/>
<path d="M216.209 37.6902C215.903 38.8316 215.767 40.0121 215.806 41.1934C215.831 41.9473 217.472 62.7122 217.472 62.7122L220.866 62.8567L220.727 43.3985L221.003 43.4714C221.003 43.4714 222.506 51.8322 222.599 53.1804C222.684 54.3904 223.876 63.2148 223.876 63.2148L226.968 63.1294L226.477 51.7568L225.794 40.594L225.497 37.3397L216.209 37.6902Z" fill="#263238"/>
<path d="M221.346 41.4384C221.299 41.4701 221.249 41.4954 221.196 41.5138C221.06 41.5753 220.917 41.6176 220.769 41.6394C220.665 41.6542 220.559 41.6504 220.456 41.6281C220.336 41.6024 220.225 41.5431 220.136 41.4572C220.045 41.3562 219.982 41.2332 219.952 41.1004C219.918 40.9672 219.901 40.8277 219.88 40.687C219.794 40.1228 219.743 39.6076 219.715 39.2345C219.703 39.0472 219.694 38.8965 219.692 38.7922C219.685 38.7379 219.685 38.6831 219.692 38.6288C219.706 38.6813 219.715 38.7353 219.717 38.7897C219.729 38.9153 219.745 39.056 219.764 39.2294C219.804 39.6064 219.863 40.109 219.947 40.6769C219.991 40.9559 220.016 41.2386 220.182 41.4107C220.259 41.4815 220.351 41.5341 220.451 41.5647C220.551 41.5954 220.657 41.6033 220.761 41.5879C220.905 41.5692 221.047 41.5342 221.183 41.4836C221.235 41.462 221.29 41.4468 221.346 41.4384Z" fill="#455A64"/>
<path d="M220.436 38.7608C220.436 38.7608 220.459 38.7432 220.506 38.7432C220.575 38.7436 220.641 38.768 220.694 38.8123C220.735 38.8441 220.768 38.8848 220.791 38.9314C220.814 38.978 220.826 39.0293 220.826 39.0812C220.818 39.1455 220.793 39.2064 220.752 39.2566C220.711 39.3068 220.657 39.3441 220.596 39.3643C220.534 39.3844 220.468 39.3864 220.406 39.3701C220.343 39.3537 220.287 39.3198 220.243 39.2722C220.212 39.2302 220.192 39.1817 220.183 39.1305C220.174 39.0793 220.177 39.0268 220.192 38.9769C220.208 38.9102 220.247 38.8512 220.302 38.8098C220.341 38.7821 220.368 38.7796 220.368 38.7821C220.306 38.8358 220.262 38.908 220.243 38.9882C220.234 39.0302 220.235 39.0736 220.244 39.1155C220.254 39.1574 220.272 39.1966 220.298 39.2307C220.334 39.2657 220.379 39.2902 220.428 39.3015C220.477 39.3127 220.528 39.3104 220.576 39.2946C220.624 39.2788 220.667 39.2502 220.699 39.2119C220.732 39.1737 220.754 39.1271 220.762 39.0774C220.763 39.0348 220.754 38.9924 220.737 38.9534C220.72 38.9143 220.695 38.8795 220.663 38.8512C220.599 38.7966 220.52 38.7648 220.436 38.7608Z" fill="#455A64"/>
<path d="M225.755 40.3904C225.717 40.4006 225.679 40.4048 225.64 40.403C225.533 40.4077 225.426 40.4043 225.32 40.393C224.613 40.3215 223.953 40.0072 223.451 39.5033C223.375 39.429 223.305 39.3487 223.241 39.2634C223.215 39.2338 223.194 39.2008 223.177 39.1653C223.187 39.1566 223.291 39.291 223.487 39.4669C223.741 39.7007 224.029 39.8951 224.341 40.0436C224.654 40.1901 224.987 40.2895 225.329 40.3389C225.59 40.3829 225.755 40.3829 225.755 40.3904Z" fill="#455A64"/>
<path d="M217.561 38.7004C217.513 38.8221 217.449 38.9367 217.37 39.041C217.191 39.3009 216.98 39.538 216.744 39.7471C216.51 39.9573 216.251 40.1379 215.973 40.2849C215.861 40.3514 215.741 40.4025 215.616 40.4369C215.616 40.4269 215.741 40.3628 215.948 40.2409C216.216 40.0834 216.467 39.9004 216.7 39.6943C216.93 39.4867 217.14 39.2579 217.327 39.0108C217.472 38.8211 217.551 38.6954 217.561 38.7004Z" fill="#455A64"/>
<path d="M200.624 16.1889C200.782 16.2031 200.94 16.158 201.067 16.0623C201.194 15.9665 201.281 15.827 201.311 15.6707C201.341 15.5143 201.313 15.3523 201.231 15.2159C201.149 15.0796 201.019 14.9786 200.867 14.9324C200.962 14.8299 201.022 14.7003 201.04 14.5617C201.057 14.4231 201.031 14.2824 200.964 14.1596C200.898 14.0368 200.795 13.9378 200.67 13.8768C200.544 13.8157 200.403 13.7956 200.266 13.8192C200.257 13.6811 200.212 13.5477 200.137 13.432C200.061 13.3163 199.957 13.2222 199.834 13.1589C199.711 13.0956 199.574 13.0653 199.437 13.0709C199.299 13.0765 199.165 13.1179 199.047 13.1909C198.89 13.0672 198.695 13 198.495 13C198.294 13 198.1 13.0672 197.942 13.1909C197.807 13.1687 197.668 13.1907 197.547 13.2535C197.425 13.3163 197.327 13.4166 197.266 13.5397C197.206 13.6628 197.187 13.8021 197.211 13.937C197.236 14.0719 197.303 14.1954 197.403 14.2891" fill="#263238"/>
<path d="M200.719 16.2769C200.65 15.5951 200.326 14.9647 199.814 14.5109C199.302 14.0571 198.638 13.8133 197.955 13.828H197.813C196.296 13.9536 195.557 15.3094 195.716 16.826L195.853 22.2553L198.461 25.0799L199.561 23.2743L199.55 21.4725C199.55 21.4725 201.004 21.2137 200.991 19.7499C200.985 19.0462 200.853 17.5912 200.719 16.2769Z" fill="#FFBF9D"/>
<path d="M199.561 21.4738C198.882 21.489 198.213 21.3084 197.634 20.9536C197.634 20.9536 198.084 22.0254 199.537 21.862L199.561 21.4738Z" fill="#6F4439"/>
<path d="M200.365 17.6151C200.366 17.6697 200.347 17.7228 200.31 17.7632C200.273 17.8035 200.222 17.8279 200.168 17.8312C200.141 17.8338 200.114 17.831 200.089 17.8231C200.064 17.8152 200.04 17.8022 200.019 17.785C199.999 17.7678 199.982 17.7467 199.97 17.7229C199.958 17.6991 199.951 17.6731 199.948 17.6465C199.947 17.5929 199.966 17.5407 200.002 17.5008C200.037 17.4608 200.087 17.4361 200.14 17.4316C200.167 17.4281 200.194 17.4302 200.22 17.4376C200.247 17.445 200.271 17.4577 200.292 17.4749C200.313 17.4921 200.33 17.5134 200.343 17.5375C200.355 17.5616 200.363 17.588 200.365 17.6151Z" fill="#263238"/>
<path d="M200.42 16.9994C200.395 17.027 200.234 16.9127 200.01 16.9189C199.786 16.9252 199.624 17.0446 199.599 17.0132C199.574 16.9818 199.613 16.9516 199.683 16.8976C199.778 16.8279 199.893 16.7897 200.011 16.7883C200.128 16.785 200.243 16.8193 200.338 16.8863C200.408 16.9378 200.432 16.9868 200.42 16.9994Z" fill="#263238"/>
<path d="M198.323 17.7017C198.324 17.7562 198.305 17.809 198.268 17.8491C198.231 17.8891 198.18 17.9134 198.126 17.9166C198.1 17.9192 198.073 17.9165 198.048 17.9086C198.022 17.9008 197.999 17.888 197.978 17.8709C197.958 17.8538 197.941 17.8329 197.929 17.8092C197.917 17.7856 197.909 17.7597 197.907 17.7332C197.905 17.6782 197.924 17.6246 197.961 17.5838C197.998 17.5429 198.049 17.5181 198.104 17.5145C198.13 17.5119 198.157 17.5148 198.183 17.5229C198.209 17.5309 198.232 17.5441 198.253 17.5616C198.273 17.579 198.29 17.6004 198.302 17.6245C198.314 17.6486 198.321 17.6749 198.323 17.7017Z" fill="#263238"/>
<path d="M198.216 17.0886C198.191 17.1162 198.031 17.0031 197.807 17.0082C197.582 17.0132 197.421 17.1338 197.396 17.1024C197.37 17.071 197.408 17.0408 197.48 16.9868C197.575 16.9174 197.69 16.8793 197.808 16.8775C197.925 16.8745 198.039 16.9088 198.135 16.9755C198.204 17.027 198.229 17.076 198.216 17.0886Z" fill="#263238"/>
<path d="M199.066 18.7384C199.184 18.6995 199.306 18.675 199.43 18.6655C199.486 18.658 199.54 18.6454 199.549 18.6064C199.552 18.547 199.538 18.4878 199.507 18.4368C199.451 18.2986 199.391 18.1541 199.328 18.0033C199.077 17.3851 198.898 16.8725 198.923 16.8725C198.948 16.8725 199.174 17.355 199.425 17.9732C199.485 18.1252 199.542 18.2697 199.596 18.4092C199.635 18.4775 199.647 18.5573 199.631 18.6341C199.623 18.6544 199.611 18.6727 199.595 18.6875C199.579 18.7023 199.56 18.7132 199.539 18.7195C199.507 18.7292 199.475 18.7346 199.442 18.7359C199.317 18.7526 199.191 18.7534 199.066 18.7384Z" fill="#263238"/>
<path d="M198.268 16.3221C198.24 16.3799 198.046 16.3221 197.809 16.3221C197.572 16.3221 197.374 16.3623 197.352 16.3045C197.342 16.2756 197.382 16.2241 197.467 16.1789C197.576 16.1209 197.697 16.0923 197.82 16.0959C197.942 16.098 198.061 16.1318 198.165 16.1939C198.245 16.2404 198.28 16.2945 198.268 16.3221Z" fill="#263238"/>
<path d="M200.431 16.2027C200.385 16.2543 200.198 16.2027 199.975 16.2027C199.752 16.2027 199.565 16.2467 199.521 16.194C199.501 16.1676 199.53 16.116 199.611 16.0683C199.724 16.006 199.85 15.9744 199.979 15.9766C200.107 15.9754 200.233 16.0084 200.345 16.0721C200.423 16.1248 200.451 16.1776 200.431 16.2027Z" fill="#263238"/>
<path d="M195.981 18.2471C195.978 18.1931 195.965 18.1402 195.941 18.0915C195.918 18.0429 195.884 17.9997 195.844 17.9644C195.803 17.9291 195.755 17.9025 195.704 17.8863C195.652 17.8701 195.598 17.8646 195.544 17.8701C195.274 17.9015 194.974 18.0636 195.004 18.624C195.057 19.6292 196.047 19.3641 196.047 19.3352C196.047 19.3063 196.004 18.6655 195.981 18.2471Z" fill="#AE7461"/>
<path d="M195.81 18.9771C195.81 18.9771 195.794 18.9909 195.765 19.006C195.726 19.0243 195.681 19.0275 195.64 19.0148C195.533 18.9821 195.435 18.8188 195.42 18.6378C195.413 18.5525 195.425 18.4667 195.455 18.3865C195.463 18.3546 195.479 18.3251 195.501 18.3005C195.522 18.276 195.55 18.2572 195.581 18.2458C195.6 18.2392 195.622 18.2397 195.641 18.2473C195.66 18.2549 195.676 18.269 195.686 18.2873C195.701 18.3149 195.696 18.335 195.701 18.3363C195.706 18.3375 195.721 18.3187 195.711 18.2772C195.704 18.2527 195.689 18.2314 195.669 18.2169C195.64 18.1977 195.605 18.1905 195.571 18.1968C195.531 18.2077 195.494 18.2284 195.463 18.2572C195.433 18.2859 195.411 18.3217 195.398 18.3614C195.36 18.4501 195.345 18.5468 195.353 18.6429C195.37 18.8452 195.478 19.0274 195.63 19.0613C195.657 19.0677 195.685 19.0678 195.712 19.0617C195.739 19.0556 195.765 19.0434 195.786 19.0261C195.81 19.001 195.814 18.9784 195.81 18.9771Z" fill="#6F4439"/>
<path d="M199.844 14.2137C199.836 14.1887 199.823 14.165 199.808 14.1433C199.751 14.0621 199.676 13.9952 199.589 13.9477C199.502 13.9002 199.406 13.8734 199.307 13.8694C199.193 13.8139 199.075 13.7673 198.953 13.7299C198.878 13.6026 198.771 13.4967 198.643 13.4221C198.516 13.3476 198.371 13.3069 198.224 13.3039C198.076 13.3009 197.93 13.3356 197.799 13.4049C197.669 13.4742 197.558 13.5757 197.477 13.6998C197.437 13.6998 197.396 13.7136 197.352 13.7224C197.241 13.6442 197.114 13.5925 196.98 13.5711C196.847 13.5497 196.71 13.5592 196.58 13.599C196.451 13.6388 196.332 13.7077 196.234 13.8006C196.135 13.8934 196.059 14.0076 196.011 14.1345C195.888 14.1047 195.759 14.1119 195.64 14.155C195.521 14.1982 195.417 14.2756 195.342 14.3774C195.267 14.4792 195.223 14.6011 195.216 14.7277C195.209 14.8543 195.24 14.9802 195.304 15.0895C195.212 15.1379 195.135 15.2087 195.078 15.2952C195.021 15.3817 194.986 15.4812 194.978 15.5845C194.978 15.6325 194.988 15.6799 195.007 15.724C195.025 15.7681 195.053 15.8079 195.087 15.8411C195.122 15.8743 195.163 15.9001 195.208 15.9172C195.252 15.9342 195.3 15.942 195.348 15.9401C195.343 16.4546 195.367 16.969 195.422 17.4806C195.447 17.8312 195.897 18.0297 195.932 18.2672C196.113 19.4772 196.494 18.7974 196.593 16.2819L196.669 16.2166C196.72 16.1676 196.731 16.1073 196.775 16.0532C196.819 15.9992 196.929 16.0055 197.013 16.013C197.159 16.0208 197.304 15.9781 197.422 15.8921C197.541 15.8062 197.627 15.6821 197.665 15.5406C197.711 15.5889 197.773 15.6184 197.839 15.6233C197.905 15.6282 197.971 15.6081 198.023 15.567C198.125 15.4806 198.215 15.3803 198.289 15.2692C198.327 15.2142 198.377 15.1692 198.436 15.1381C198.495 15.107 198.561 15.0908 198.628 15.0907C198.698 15.1128 198.772 15.1271 198.846 15.1335C198.977 15.1184 199.037 14.9638 199.055 14.8332C199.056 14.7209 199.089 14.6113 199.149 14.5165C199.227 14.4755 199.312 14.4492 199.4 14.4386C199.45 14.4386 199.5 14.4524 199.549 14.4587C199.572 14.4606 199.596 14.4606 199.619 14.4587C199.65 14.4679 199.681 14.4797 199.71 14.4939C200.155 14.6975 200.56 15.6059 200.56 15.6059C200.583 15.0267 200.257 14.5504 199.844 14.2137Z" fill="#263238"/>
<path d="M195.178 15.1448C195.178 15.1448 195.178 15.1448 195.187 15.1297C195.196 15.1146 195.204 15.1071 195.219 15.0907C195.262 15.0426 195.314 15.003 195.371 14.9739C195.463 14.9272 195.564 14.9031 195.666 14.9035C195.802 14.8996 195.935 14.9441 196.042 15.0292L196.014 15.038C196.042 14.9306 196.093 14.8303 196.162 14.7437C196.231 14.6571 196.318 14.5861 196.417 14.5354C196.527 14.4737 196.648 14.4336 196.773 14.4172C196.904 14.4021 197.038 14.4089 197.167 14.4374C197.409 14.4943 197.638 14.5961 197.842 14.7377L197.813 14.7477C197.894 14.5367 198.051 14.364 198.253 14.264C198.412 14.1871 198.59 14.1617 198.764 14.1911C198.877 14.2114 198.985 14.2541 199.081 14.3167C199.106 14.333 199.131 14.3506 199.154 14.3695C199.17 14.3829 199.177 14.3904 199.176 14.3921C199.176 14.3921 199.141 14.367 199.074 14.328C198.977 14.2732 198.871 14.2369 198.76 14.2212C198.592 14.1961 198.42 14.2233 198.268 14.2991C198.075 14.397 197.926 14.5632 197.849 14.7653L197.842 14.7892L197.82 14.7754C197.62 14.638 197.395 14.5387 197.159 14.4826C197.035 14.4559 196.908 14.4491 196.783 14.4625C196.663 14.4783 196.547 14.5162 196.441 14.5743C196.345 14.6225 196.261 14.6905 196.194 14.7737C196.128 14.8568 196.079 14.9534 196.052 15.0568V15.0832L196.032 15.0656C195.932 14.9844 195.808 14.94 195.68 14.94C195.581 14.9372 195.483 14.9579 195.394 15.0003C195.314 15.0345 195.241 15.0835 195.178 15.1448Z" fill="#455A64"/>
<path d="M199.16 14.4524C199.156 14.4659 199.15 14.4789 199.144 14.4914C199.129 14.5293 199.117 14.5684 199.109 14.6082C199.096 14.6598 199.085 14.7238 199.07 14.7992C199.057 14.8887 199.026 14.9744 198.977 15.0505C198.943 15.0937 198.894 15.1217 198.839 15.1284C198.782 15.1322 198.725 15.1296 198.669 15.1209C198.612 15.1118 198.554 15.1174 198.5 15.1372C198.445 15.166 198.396 15.2053 198.357 15.2528C198.314 15.3018 198.274 15.3559 198.231 15.4111C198.192 15.4724 198.143 15.5271 198.086 15.5732C198.021 15.6177 197.946 15.645 197.868 15.6524C197.827 15.6598 197.784 15.6598 197.743 15.6524C197.699 15.6441 197.659 15.6189 197.634 15.582H197.67C197.658 15.6416 197.637 15.6989 197.607 15.7517C197.576 15.8057 197.536 15.8545 197.49 15.8962C197.39 15.979 197.27 16.0325 197.142 16.0507C197.09 16.0591 197.036 16.0624 196.983 16.0608C196.935 16.0506 196.886 16.0506 196.838 16.0608C196.794 16.077 196.757 16.1081 196.733 16.1487C196.703 16.1894 196.669 16.2276 196.634 16.2631C196.501 16.4044 196.322 16.492 196.13 16.5093C195.954 16.5058 195.786 16.4379 195.657 16.3183C195.546 16.2186 195.467 16.0871 195.432 15.9414L195.448 15.9514C195.393 15.9638 195.335 15.9639 195.28 15.9518C195.224 15.9396 195.172 15.9155 195.127 15.8811C195.058 15.8282 195.011 15.7524 194.993 15.6675C194.981 15.6154 194.981 15.5612 194.993 15.5092C194.996 15.4954 194.999 15.482 195.004 15.4689C195.004 15.4648 195.004 15.4606 195.004 15.4564C194.988 15.5245 194.988 15.5956 195.004 15.6637C195.025 15.7438 195.072 15.8143 195.138 15.8635C195.182 15.8951 195.232 15.9169 195.285 15.9276C195.337 15.9382 195.392 15.9373 195.444 15.9251H195.458V15.9389C195.496 16.0773 195.573 16.2017 195.68 16.297C195.805 16.4051 195.965 16.4648 196.13 16.4654C196.315 16.4465 196.486 16.3597 196.611 16.2216C196.646 16.1874 196.678 16.1504 196.706 16.111C196.736 16.0642 196.78 16.0284 196.832 16.0092C196.858 16.0004 196.886 15.9966 196.914 15.9979H196.991C197.041 15.9994 197.092 15.9965 197.142 15.9891C197.263 15.9722 197.375 15.9217 197.468 15.8434C197.553 15.7694 197.611 15.6697 197.634 15.5594L197.645 15.5129L197.67 15.5531C197.694 15.5787 197.725 15.5974 197.758 15.6076C197.792 15.6177 197.828 15.6189 197.862 15.6109C197.933 15.6044 198.001 15.5802 198.061 15.5406C198.115 15.4965 198.162 15.4443 198.2 15.386C198.244 15.332 198.285 15.2767 198.325 15.2277C198.367 15.1749 198.421 15.132 198.481 15.102C198.54 15.0807 198.604 15.075 198.666 15.0857C198.72 15.0951 198.775 15.0985 198.829 15.0958C198.854 15.0935 198.877 15.0865 198.899 15.075C198.92 15.0636 198.939 15.048 198.955 15.0292C199.001 14.9576 199.033 14.8772 199.047 14.7929C199.064 14.7188 199.077 14.6535 199.091 14.602C199.102 14.5621 199.116 14.5234 199.134 14.4864C199.15 14.4637 199.159 14.4512 199.16 14.4524Z" fill="#455A64"/>
<path d="M198.376 19.148C198.328 19.2683 198.325 19.4015 198.365 19.5242C198.406 19.6469 198.489 19.7512 198.599 19.819C198.64 19.8421 198.686 19.8567 198.733 19.8619C198.78 19.8671 198.828 19.8627 198.873 19.8491C198.928 19.8367 198.979 19.8117 199.023 19.7759C199.066 19.7401 199.101 19.6946 199.124 19.6431C199.171 19.5383 199.192 19.4236 199.185 19.3088C198.962 19.256 198.604 19.1995 198.376 19.148Z" fill="#6F4439"/>
<path d="M199.094 19.7096C199.079 19.7338 199.059 19.7544 199.035 19.77C198.972 19.8154 198.898 19.8428 198.821 19.8491C198.763 19.8543 198.705 19.8479 198.649 19.8304C198.594 19.813 198.543 19.7847 198.498 19.7473C198.443 19.7022 198.398 19.646 198.366 19.5824C198.333 19.5188 198.315 19.4492 198.31 19.3779C198.306 19.3035 198.313 19.2287 198.333 19.1568V19.1392H198.352C198.586 19.1844 198.792 19.2259 198.937 19.2573C199.016 19.2706 199.094 19.2899 199.17 19.3151C199.09 19.3106 199.011 19.3001 198.932 19.2837C198.785 19.2586 198.579 19.2221 198.344 19.1781L198.367 19.1643C198.349 19.2314 198.342 19.3011 198.347 19.3704C198.35 19.4364 198.367 19.501 198.397 19.5602C198.426 19.6194 198.467 19.672 198.517 19.7147C198.586 19.7729 198.672 19.8079 198.762 19.8146C198.852 19.8214 198.942 19.7996 199.019 19.7524C199.071 19.7285 199.091 19.7071 199.094 19.7096Z" fill="#263238"/>
<path d="M197.912 60.2357L197.772 63.4448C197.772 63.4448 200.977 64.6648 201.01 65.2604L194.794 65.2114L194.807 60.203L197.912 60.2357Z" fill="#455A64"/>
<path d="M195.851 63.1633C195.791 63.1804 195.739 63.2196 195.706 63.2731C195.673 63.3266 195.662 63.3906 195.674 63.4523C195.69 63.5123 195.729 63.5639 195.781 63.5971C195.834 63.6303 195.897 63.6427 195.958 63.632C196.022 63.6129 196.076 63.5709 196.11 63.5141C196.145 63.4572 196.157 63.3895 196.145 63.3241C196.123 63.2622 196.077 63.2115 196.018 63.1829C195.959 63.1542 195.891 63.1499 195.829 63.1709" fill="#E0E0E0"/>
<g opacity="0.6">
<path d="M194.794 65.2152L194.815 64.7126L200.767 64.9463C200.767 64.9463 201.043 65.0719 201.01 65.2642L194.794 65.2152Z" fill="white"/>
</g>
<path d="M197.873 63.4171C197.873 63.4473 197.719 63.4598 197.57 63.5566C197.421 63.6534 197.339 63.7815 197.31 63.7689C197.281 63.7564 197.329 63.5805 197.513 63.4674C197.698 63.3543 197.884 63.3895 197.873 63.4171Z" fill="#263238"/>
<path d="M198.522 63.6923C198.53 63.7225 198.397 63.7727 198.293 63.9009C198.189 64.029 198.159 64.1647 198.129 64.1635C198.099 64.1622 198.08 63.9888 198.213 63.833C198.346 63.6772 198.522 63.6634 198.522 63.6923Z" fill="#263238"/>
<path d="M198.887 64.4776C198.859 64.4839 198.818 64.3319 198.897 64.166C198.975 64.0002 199.118 63.9348 199.13 63.96C199.143 63.9851 199.055 64.0743 198.992 64.2113C198.928 64.3482 198.917 64.4751 198.887 64.4776Z" fill="#263238"/>
<path d="M197.824 62.6821C197.81 62.7097 197.671 62.667 197.5 62.6821C197.328 62.6972 197.194 62.7462 197.179 62.7198C197.164 62.6934 197.293 62.5866 197.495 62.5765C197.696 62.5665 197.839 62.6582 197.824 62.6821Z" fill="#263238"/>
<path d="M197.903 62.6456C197.925 62.9026 197.928 63.161 197.912 63.4184L197.887 63.3807C198.25 63.5189 198.733 63.7061 199.245 63.9474C199.732 64.1618 200.194 64.4285 200.624 64.7428C200.756 64.839 200.871 64.9566 200.965 65.0908C201.03 65.1913 201.021 65.268 201.011 65.2642C200.994 65.2096 200.967 65.1589 200.931 65.1147C200.829 64.9946 200.711 64.8893 200.58 64.8018C200.143 64.5109 199.682 64.2586 199.202 64.0479C198.691 63.8067 198.214 63.6119 197.858 63.4586L197.832 63.4473V63.4209C197.837 63.1611 197.861 62.902 197.903 62.6456Z" fill="#263238"/>
<path d="M193.891 37.8624V40.7712L195.037 50.058C195.037 50.058 194.673 54.413 194.45 56.872C194.257 59.0081 194.576 62.7248 194.576 62.7248H197.968L199.183 50.3244L199.935 42.5918L201.301 38.0106L193.891 37.8624Z" fill="#263238"/>
<path d="M199.906 59.6828L199.012 62.7688C199.012 62.7688 201.843 64.7101 201.734 65.2969L195.704 63.7891L196.892 58.9239L199.906 59.6828Z" fill="#455A64"/>
<path d="M197.219 62.0387C197.156 62.0412 197.097 62.067 197.052 62.1112C197.008 62.1554 196.981 62.2147 196.978 62.2775C196.979 62.3402 197.003 62.4003 197.047 62.4452C197.091 62.4901 197.15 62.5165 197.213 62.5187C197.278 62.5149 197.339 62.4871 197.385 62.4408C197.432 62.3945 197.459 62.3328 197.463 62.2674C197.456 62.2018 197.424 62.1416 197.373 62.0997C197.322 62.0579 197.257 62.0378 197.191 62.0438" fill="#E0E0E0"/>
<g opacity="0.6">
<path d="M195.709 63.784L195.848 63.299L201.578 64.9325C201.578 64.9325 201.817 65.1172 201.739 65.2994L195.709 63.784Z" fill="white"/>
</g>
<path d="M199.124 62.7625C199.115 62.7914 198.965 62.7625 198.795 62.8266C198.626 62.8906 198.518 62.9899 198.495 62.9711C198.471 62.9522 198.557 62.7939 198.763 62.726C198.968 62.6582 199.138 62.7374 199.124 62.7625Z" fill="#263238"/>
<path d="M199.69 63.1834C199.69 63.2136 199.55 63.2312 199.418 63.3317C199.287 63.4322 199.225 63.5566 199.197 63.5478C199.168 63.539 199.19 63.3669 199.356 63.2462C199.521 63.1256 199.697 63.1545 199.69 63.1834Z" fill="#263238"/>
<path d="M199.86 64.0328C199.832 64.0328 199.828 63.8745 199.943 63.7313C200.059 63.588 200.213 63.5591 200.219 63.5868C200.225 63.6144 200.119 63.6797 200.026 63.7979C199.933 63.916 199.89 64.0366 199.86 64.0328Z" fill="#263238"/>
<path d="M199.248 62.0362C199.229 62.0601 199.104 61.986 198.935 61.9558C198.765 61.9257 198.623 61.9445 198.614 61.9156C198.605 61.8867 198.755 61.8126 198.955 61.8515C199.154 61.8905 199.263 62.0174 199.248 62.0362Z" fill="#263238"/>
<path d="M202.61 38.0609L202.766 39.6428L202.578 51.1285L199.893 60.355L199.243 62.5929L195.778 61.9382L198.448 38.0647L202.61 38.0609Z" fill="#263238"/>
<path d="M202.505 51.3698C202.505 51.3698 202.505 51.3874 202.493 51.4238C202.48 51.4602 202.468 51.5143 202.449 51.5834C202.409 51.7254 202.35 51.9327 202.275 52.2016C202.119 52.7419 201.899 53.5284 201.609 54.5211C201.034 56.5076 200.223 59.3134 199.272 62.6004L199.263 62.623H199.235L195.77 61.9696L195.737 61.9634L195.744 61.9319C195.92 60.9958 196.106 60.017 196.294 59.0206C196.854 56.0653 197.382 53.2784 197.843 50.8445V50.8546C197.269 47.2422 196.812 44.3622 196.548 42.7074L195.971 41.652C195.905 41.5326 195.857 41.4421 195.823 41.378C195.789 41.314 195.774 41.2851 195.774 41.2851C195.774 41.2851 195.794 41.3152 195.829 41.3755L195.982 41.6444L196.572 42.6949C196.842 44.3472 197.31 47.2258 197.898 50.8358V50.8458C197.438 53.2809 196.913 56.0691 196.355 59.0231C196.167 60.0208 195.979 60.9996 195.805 61.9357L195.779 61.898L199.244 62.5539L199.209 62.5753L201.569 54.501C201.861 53.5121 202.092 52.7268 202.251 52.1865C202.331 51.9189 202.392 51.7128 202.435 51.5721L202.484 51.4137C202.499 51.3874 202.505 51.3698 202.505 51.3698Z" fill="#455A64"/>
<path d="M201.988 39.0007C201.94 39.1027 201.877 39.1964 201.8 39.2784C201.623 39.4857 201.415 39.6635 201.183 39.8049C200.95 39.9471 200.697 40.0507 200.431 40.1115C200.323 40.1417 200.21 40.1557 200.098 40.153C200.091 40.1303 200.613 40.0801 201.145 39.7496C201.462 39.5436 201.746 39.2912 201.988 39.0007Z" fill="#455A64"/>
<path d="M192.157 29.8823C192.157 29.8823 191.753 32.4833 192.024 33.5123C192.295 34.5414 194.492 37.1424 194.492 37.1424L197.49 35.2576L195.514 30.3397L192.157 29.8823Z" fill="#FFBF9D"/>
<path d="M194.932 23.4276C194.932 23.4276 196.652 23.4528 196.677 25.6039C196.702 27.755 196.24 30.6299 196.24 30.6299L191.846 29.8534C191.846 29.8534 192.391 25.8489 192.856 24.6955C193.321 23.542 194.218 23.2316 194.932 23.4276Z" fill="#455A64"/>
<path d="M195.754 21.8784L195.699 22.2302C195.699 22.2302 193.35 23.7857 193.217 24.1866C193.012 24.8148 193.46 30.0683 193.658 31.5585C193.856 33.0487 193.896 36.3332 193.896 36.3332C193.752 36.7202 193.589 37.0695 193.535 37.6085C193.482 38.1476 193.896 38.6326 193.896 38.6326C196.417 39.4569 199.495 38.8248 202.825 38.0634L202.793 37.1173L201.706 26.8353C201.706 26.8353 202.023 24.1627 200.722 23.3887C200.579 23.3045 199.445 22.6587 199.445 22.6587L195.754 21.8784Z" fill="#455A64"/>
<path opacity="0.3" d="M199.525 26.3364C199.562 27.4357 199.825 28.5154 200.298 29.5079C200.785 30.5359 201.453 31.467 202.271 32.2558L201.919 29.1799L199.525 26.3364Z" fill="black"/>
<path d="M201.496 23.7405C201.085 23.4063 200.319 23.2241 199.882 23.5244C199.639 23.6788 199.453 23.9087 199.352 24.179C198.976 25.2722 199.203 26.4483 199.501 27.3203C199.799 28.1923 201.242 29.8735 201.242 29.8735L204.804 27.7048C204.804 27.7048 202.422 24.8073 202.172 24.5082C202.041 24.3512 201.726 23.9227 201.496 23.7405Z" fill="#455A64"/>
<path d="M201.496 23.7405C201.523 23.7585 201.549 23.7787 201.573 23.8008C201.642 23.8637 201.707 23.9304 201.768 24.0006C201.934 24.1828 202.152 24.4668 202.445 24.8136L204.826 27.6859L204.849 27.7123L204.82 27.7299L201.454 29.7818L201.258 29.9074L201.234 29.9213L201.217 29.9012C200.818 29.4287 200.447 28.9537 200.115 28.4763C199.95 28.243 199.799 28.0005 199.661 27.75C199.594 27.6288 199.535 27.5028 199.486 27.3731C199.438 27.2474 199.4 27.1218 199.361 26.9861C199.064 25.9608 199.056 24.9543 199.327 24.1891C199.39 24.0163 199.489 23.8587 199.617 23.7264C199.745 23.5942 199.899 23.4903 200.069 23.4214C200.212 23.3757 200.363 23.3578 200.512 23.3686C200.637 23.3754 200.761 23.3965 200.881 23.4314C201.047 23.4777 201.206 23.5479 201.352 23.64C201.404 23.671 201.452 23.7077 201.495 23.7493C201.495 23.7493 201.446 23.7104 201.346 23.6513C201.199 23.565 201.04 23.4994 200.875 23.4565C200.756 23.4235 200.633 23.4041 200.51 23.3987C200.364 23.3911 200.219 23.4103 200.08 23.4553C199.924 23.5173 199.784 23.612 199.668 23.733C199.532 23.8632 199.43 24.0245 199.371 24.2029C199.109 24.9568 199.12 25.9532 199.418 26.9672C199.456 27.0929 199.495 27.2185 199.544 27.3442C199.593 27.4734 199.651 27.5994 199.717 27.7211C199.854 27.9689 200.005 28.2088 200.169 28.4398C200.5 28.9148 200.871 29.3885 201.267 29.8584L201.226 29.8509L201.421 29.7328L204.79 27.6859L204.782 27.7299C203.815 26.5463 202.998 25.5474 202.42 24.84C202.129 24.4906 201.919 24.2016 201.756 24.0169C201.677 23.924 201.612 23.8549 201.566 23.8109C201.521 23.7669 201.495 23.7418 201.496 23.7405Z" fill="#263238"/>
<path d="M193.166 25.3777C193.172 25.3976 193.176 25.4184 193.176 25.4393C193.176 25.4883 193.186 25.5474 193.193 25.619C193.205 25.7848 193.221 26.0085 193.241 26.2799C193.276 26.8466 193.325 27.6131 193.379 28.4599C193.433 29.3068 193.493 30.0808 193.543 30.6375C193.568 30.9076 193.588 31.13 193.604 31.2959C193.611 31.3675 193.616 31.4215 193.619 31.4756C193.622 31.4964 193.622 31.5175 193.619 31.5384C193.612 31.5187 193.607 31.4979 193.606 31.4768C193.598 31.4291 193.588 31.37 193.577 31.2996C193.554 31.1438 193.525 30.9227 193.495 30.6412C193.434 30.0859 193.37 29.3156 193.312 28.4637C193.255 27.6118 193.218 26.8403 193.187 26.2824C193.176 26.011 193.167 25.7874 193.159 25.6202C193.159 25.5486 193.159 25.4946 193.159 25.4406C193.16 25.4195 193.162 25.3984 193.166 25.3777Z" fill="#263238"/>
<path d="M201.045 37.8624C201.024 37.8725 201.002 37.8797 200.979 37.8837L200.787 37.9302C200.703 37.9516 200.6 37.9729 200.48 37.9955C200.36 38.0182 200.229 38.0445 200.071 38.0684C199.769 38.1199 199.406 38.1627 199.001 38.2016C198.596 38.2406 198.15 38.2607 197.68 38.2669C197.21 38.2732 196.764 38.2544 196.359 38.2267C195.954 38.1991 195.59 38.1576 195.285 38.1086C195.133 38.0873 194.997 38.0621 194.876 38.0383C194.756 38.0144 194.653 37.9968 194.571 37.9754L194.378 37.9289C194.355 37.9249 194.332 37.9182 194.311 37.9088C194.334 37.9079 194.358 37.9105 194.38 37.9164L194.576 37.9503C194.66 37.9679 194.762 37.9842 194.883 38.0031C195.003 38.0219 195.133 38.0445 195.293 38.0621C195.596 38.1061 195.959 38.1375 196.363 38.1677C196.766 38.1978 197.213 38.2054 197.68 38.2016C198.148 38.1978 198.592 38.1727 198.996 38.1426C199.4 38.1124 199.762 38.0684 200.065 38.0169C200.217 37.9968 200.353 37.9742 200.474 37.9541C200.594 37.934 200.697 37.9176 200.782 37.9001L200.976 37.8661C200.999 37.8628 201.022 37.8615 201.045 37.8624Z" fill="#263238"/>
<path d="M218.59 24.086H217.086C216.735 24.2117 214.448 27.7161 214.448 27.7161L216.837 30.3723L217.99 27.9209L218.59 24.086Z" fill="#FF725E"/>
<path d="M217.09 24.086L220.193 23.1336C220.193 23.1336 220.178 23.8875 221.261 23.9076C222.506 23.9353 223.552 22.8371 223.552 22.8371C223.552 22.8371 226.142 23.6463 226.685 24.086C227.228 24.5258 225.457 33.7146 225.457 33.7146L225.296 36.4513C225.457 36.7314 225.548 37.0458 225.563 37.3685C225.563 37.8435 225.581 38.1601 225.581 38.1601C222.26 39.1653 218.963 40.0348 215.93 39.0623C215.93 39.0623 216.006 37.4477 216.181 37.0079C216.357 36.5682 216.324 36.5279 216.324 36.5279L216.613 31.4755L216.666 27.6746L217.09 24.086Z" fill="#FF725E"/>
<path d="M227.83 28.1722C227.83 28.1722 228.171 33.5412 228.169 34.3291C228.169 34.9146 226.897 41.0401 226.897 41.0401L225.009 40.403L225.672 34.4497L225.009 28.1672L227.83 28.1722Z" fill="#FFBF9D"/>
<path d="M226.71 24.0823C227.254 24.5031 227.626 25.1078 227.758 25.7836C227.985 26.9258 228.487 29.7717 228.487 29.7717L224.435 29.9326C224.435 29.9326 224.678 27.9561 224.678 27.8304C224.678 27.7048 225.364 24.9845 225.407 24.9229C225.449 24.8613 226.71 24.0823 226.71 24.0823Z" fill="#FF725E"/>
<path d="M216.665 25.487C216.682 25.487 216.691 26.6556 216.685 28.0968C216.678 29.538 216.658 30.7078 216.641 30.7078C216.623 30.7078 216.614 29.5393 216.62 28.0968C216.626 26.6543 216.646 25.487 216.665 25.487Z" fill="#263238"/>
<path d="M228.487 29.7717C228.462 29.7768 228.437 29.7798 228.412 29.7805L228.195 29.7956L227.392 29.8408L224.712 29.9665H224.681V29.9351C224.675 29.8521 224.668 29.7629 224.661 29.6737C224.596 28.7189 224.617 27.7602 224.721 26.8089C224.761 26.4432 224.806 26.1505 224.846 25.9482C224.864 25.8464 224.879 25.7685 224.89 25.7157C224.894 25.6883 224.901 25.6614 224.91 25.6353C224.911 25.6632 224.909 25.691 224.903 25.7182C224.895 25.7786 224.884 25.8552 224.871 25.952C224.844 26.1542 224.806 26.4546 224.771 26.8127C224.682 27.7621 224.668 28.7171 224.731 29.6687C224.739 29.7579 224.745 29.8471 224.751 29.9288L224.717 29.8999L227.397 29.7943L228.201 29.7705H228.419C228.442 29.7683 228.465 29.7687 228.487 29.7717Z" fill="#263238"/>
<path d="M226.106 24.1464C225.908 24.2833 225.718 24.4323 225.538 24.5924C225.373 24.7689 225.219 24.9552 225.077 25.1503C225.274 24.6919 225.644 24.3304 226.106 24.1451V24.1464Z" fill="#263238"/>
<path d="M224.974 40.829C224.974 40.829 224.222 41.4007 224.054 41.6256C223.886 41.8505 223.48 42.6547 223.177 42.8896C223.182 42.9294 223.198 42.967 223.222 42.9989C223.246 43.0308 223.278 43.0558 223.315 43.0715C223.352 43.0872 223.392 43.0931 223.432 43.0885C223.472 43.0839 223.509 43.0691 223.542 43.0454C223.851 42.8718 224.122 42.6361 224.338 42.3531C224.463 42.1571 224.599 42.2714 224.607 42.4436C224.614 42.6157 224.467 43.7755 224.467 43.7755C224.467 43.7755 224.106 45.0621 224.202 45.2066C224.223 45.2354 224.25 45.2592 224.281 45.2762C224.312 45.2931 224.346 45.3028 224.382 45.3045C224.417 45.3062 224.452 45.2999 224.485 45.286C224.517 45.272 224.546 45.2509 224.569 45.2242C224.618 45.1564 225.026 44.0808 225.026 44.0808L225.13 43.4953C225.13 43.4953 224.92 45.3486 225.037 45.4944C225.054 45.5207 225.078 45.5426 225.105 45.5582C225.133 45.5738 225.164 45.5827 225.195 45.5841C225.227 45.5856 225.258 45.5796 225.287 45.5666C225.316 45.5537 225.342 45.5341 225.361 45.5094C225.443 45.4353 225.527 44.6161 225.527 44.6161L225.717 43.5229L225.682 45.6074C225.682 45.6074 225.705 45.8047 225.859 45.8123C226.013 45.8198 226.117 45.5911 226.117 45.5911L226.34 43.4425C226.34 43.4425 226.269 44.6374 226.349 44.699C226.456 44.7832 226.553 44.7555 226.588 44.6638C226.66 44.4778 226.765 43.4073 226.765 43.4073L226.863 41.3617L226.968 40.3766L225.059 40.251L224.974 40.829Z" fill="#FFBF9D"/>
<path d="M224.279 37.3371C224.258 37.3512 224.235 37.3622 224.211 37.3698L224.009 37.4515C223.835 37.5218 223.579 37.6148 223.257 37.7191C222.935 37.8234 222.553 37.9365 222.12 38.0458C221.688 38.1551 221.209 38.2519 220.702 38.3323C220.194 38.4127 219.707 38.4579 219.262 38.4956C218.817 38.5333 218.417 38.5371 218.08 38.5346C217.743 38.5321 217.472 38.5233 217.284 38.5095L217.067 38.4931C217.042 38.4925 217.018 38.4895 216.993 38.4843C217.018 38.4811 217.043 38.4811 217.068 38.4843H217.285C217.472 38.4843 217.744 38.4919 218.08 38.4843C218.416 38.4768 218.816 38.4642 219.258 38.4316C219.7 38.3989 220.185 38.3423 220.692 38.2644C221.198 38.1865 221.674 38.0848 222.107 37.983C222.539 37.8812 222.924 37.7719 223.243 37.6714C223.563 37.5708 223.822 37.4867 223.995 37.4201L224.201 37.351C224.226 37.3439 224.252 37.3393 224.279 37.3371Z" fill="#263238"/>
<path d="M224.623 28.7615C224.623 28.7615 224.623 28.7615 224.604 28.7741C224.586 28.7847 224.566 28.7939 224.546 28.8017C224.466 28.8342 224.381 28.8537 224.295 28.8595C223.985 28.8668 223.679 28.7891 223.41 28.6346C223.236 28.5479 223.052 28.4423 222.844 28.3556C222.737 28.3109 222.626 28.2768 222.513 28.2539C222.454 28.2436 222.394 28.2377 222.334 28.2363C222.303 28.2363 222.272 28.2363 222.242 28.2363L222.148 28.2438C221.885 28.2744 221.629 28.355 221.396 28.4813C221.145 28.6069 220.905 28.759 220.644 28.906C220.396 29.0574 220.13 29.1761 219.852 29.2591C219.588 29.333 219.31 29.3369 219.044 29.2704C218.808 29.206 218.58 29.1176 218.362 29.0065C218.156 28.9085 217.968 28.8118 217.788 28.7464C217.508 28.6267 217.201 28.5834 216.899 28.6208C216.79 28.6424 216.684 28.677 216.583 28.7238C216.607 28.7061 216.631 28.6905 216.657 28.6773C216.733 28.6402 216.813 28.6127 216.895 28.5956C217.204 28.5438 217.522 28.579 217.812 28.6974C217.997 28.7615 218.188 28.8557 218.394 28.9487C218.61 29.0543 218.835 29.1385 219.066 29.2C219.323 29.2615 219.591 29.2563 219.844 29.1849C220.117 29.1022 220.377 28.9852 220.62 28.8369C220.871 28.6899 221.122 28.5353 221.372 28.4109C221.612 28.2826 221.874 28.2012 222.144 28.1709L222.242 28.1647C222.274 28.1628 222.306 28.1628 222.337 28.1647C222.4 28.1662 222.463 28.173 222.525 28.1848C222.642 28.2094 222.756 28.2456 222.865 28.2928C223.077 28.3845 223.26 28.4926 223.431 28.5806C223.693 28.7358 223.991 28.8191 224.295 28.8218C224.407 28.8187 224.518 28.7983 224.623 28.7615Z" fill="white"/>
<path d="M224.792 29.4299C224.774 29.4528 224.752 29.4735 224.729 29.4915C224.66 29.5424 224.582 29.581 224.5 29.6059C224.19 29.6747 223.866 29.6334 223.583 29.489C223.401 29.4073 223.217 29.2955 223.013 29.19C222.803 29.068 222.571 28.9901 222.33 28.9613C222.062 28.9481 221.797 29.0136 221.566 29.1498C221.316 29.2965 221.073 29.4576 220.841 29.6322C220.604 29.8099 220.34 29.9471 220.059 30.0381C219.789 30.1086 219.506 30.1086 219.237 30.0381C218.724 29.9124 218.312 29.6775 217.941 29.5594C217.653 29.4487 217.344 29.4028 217.036 29.4249C216.923 29.4391 216.813 29.4643 216.705 29.5003C216.73 29.4846 216.757 29.472 216.785 29.4626C216.866 29.4317 216.95 29.4106 217.036 29.3998C217.348 29.3668 217.664 29.4064 217.958 29.5154C218.334 29.631 218.753 29.8622 219.254 29.979C219.513 30.0468 219.786 30.0468 220.045 29.979C220.319 29.889 220.576 29.7545 220.807 29.5807C221.042 29.4049 221.287 29.243 221.54 29.0957C221.781 28.9551 222.059 28.8883 222.337 28.9035C222.586 28.9351 222.825 29.0167 223.042 29.1435C223.246 29.2528 223.43 29.3671 223.606 29.4488C223.879 29.5937 224.193 29.6411 224.497 29.5832C224.604 29.5515 224.705 29.4995 224.792 29.4299Z" fill="white"/>
<path d="M17.283 49.5443V49.5443C17.7106 45.7115 15.1774 42.1737 11.4111 41.3439L9.85012 41" stroke="#0057FF" stroke-opacity="0.32" stroke-width="2" stroke-linecap="round"/>
<path opacity="0.1" d="M9 65H260" stroke="black" stroke-width="0.5" stroke-linecap="round"/>
</g>
<defs>
<clipPath id="clip0_0_3">
<rect width="234" height="69" fill="white"/>
</clipPath>
</defs>
</svg>
