<svg width="60" height="18" viewBox="0 0 60 18" fill="none" xmlns="http://www.w3.org/2000/svg">
<path d="M10.7249 3.64505C10.608 3.83198 10.4834 3.97217 10.351 4.06563C10.2264 4.1591 10.0628 4.20583 9.86033 4.20583C9.68119 4.20583 9.48648 4.15131 9.27619 4.04227C9.07369 3.92544 8.84003 3.79693 8.57522 3.65673C8.31819 3.51654 8.02223 3.39192 7.68732 3.28288C7.35241 3.16605 6.97077 3.10764 6.5424 3.10764C5.80249 3.10764 5.2495 3.26731 4.88343 3.58664C4.52516 3.89818 4.34602 4.32266 4.34602 4.86007C4.34602 5.20277 4.45506 5.48705 4.67314 5.71292C4.89122 5.93879 5.17551 6.1335 5.52599 6.29706C5.88427 6.46062 6.28927 6.6125 6.74101 6.75269C7.20053 6.8851 7.66785 7.03697 8.14295 7.20832C8.61805 7.37188 9.08147 7.5666 9.53321 7.79247C9.99274 8.01833 10.3977 8.30651 10.7482 8.657C11.1065 9.00748 11.3947 9.43585 11.6128 9.94211C11.8308 10.4406 11.9399 11.0442 11.9399 11.753C11.9399 12.5396 11.8036 13.2756 11.531 13.961C11.2584 14.6464 10.8612 15.2461 10.3393 15.7602C9.82528 16.2664 9.18662 16.6675 8.42334 16.9635C7.66785 17.2517 6.80721 17.3958 5.84143 17.3958C5.31181 17.3958 4.7705 17.3413 4.21751 17.2322C3.67231 17.1232 3.14269 16.9713 2.62864 16.7766C2.1146 16.5741 1.63171 16.3365 1.17997 16.0639V16.0639C0.431896 15.6125 0.332011 14.6281 0.799278 13.8898L1.16829 13.3068C1.26175 13.1744 1.38247 13.0653 1.53045 12.9797C1.68623 12.8862 1.85368 12.8395 2.03282 12.8395C2.26647 12.8395 2.50013 12.9135 2.73379 13.0614C2.97523 13.2094 3.24394 13.373 3.53991 13.5521C3.84366 13.7313 4.19025 13.8948 4.57968 14.0428C4.96911 14.1908 5.42863 14.2648 5.95826 14.2648C6.67481 14.2648 7.23169 14.109 7.62891 13.7975C8.02612 13.4781 8.22473 12.9758 8.22473 12.2904C8.22473 11.8931 8.11569 11.5699 7.89761 11.3207C7.67953 11.0715 7.39135 10.8651 7.03308 10.7015C6.68259 10.5379 6.28148 10.3938 5.82975 10.2692C5.37801 10.1446 4.91459 10.0083 4.43949 9.86033C3.96438 9.70456 3.50096 9.51763 3.04923 9.29955C2.59749 9.07369 2.19248 8.78161 1.83421 8.42334C1.48372 8.05728 1.19944 7.60554 0.98136 7.06813C0.76328 6.52293 0.65424 5.85311 0.65424 5.05868C0.65424 4.42001 0.782751 3.79693 1.03977 3.18942C1.2968 2.58191 1.67454 2.0406 2.17301 1.5655C2.67148 1.0904 3.28288 0.712654 4.00722 0.432265C4.73156 0.144088 5.56104 0 6.49567 0C7.0175 0 7.52376 0.0428373 8.01444 0.128512C8.51291 0.206397 8.98412 0.32712 9.42807 0.490679C9.87201 0.646451 10.2848 0.837271 10.6664 1.06314V1.06314C11.326 1.43248 11.4573 2.27617 11.1007 2.94268L10.7249 3.64505Z" fill="white"/>
<path d="M25.3804 10.7015L23.8032 6.04004C23.6864 5.74407 23.5618 5.39748 23.4294 5.00026C23.297 4.59526 23.1646 4.1591 23.0322 3.69178C22.9153 4.16689 22.7907 4.60694 22.6583 5.01195C22.5259 5.41695 22.4013 5.76744 22.2845 6.0634L20.719 10.7015H23.0497H25.3804ZM31.6541 17.2088H28.5932C28.2505 17.2088 27.974 17.131 27.7637 16.9752C27.5534 16.8116 27.3938 16.6052 27.2847 16.356L25.3804 10.7015H23.0497H20.719L18.803 16.356C18.7173 16.5741 18.5615 16.7727 18.3357 16.9518C18.1176 17.1232 17.845 17.2088 17.5179 17.2088H14.4336L21.0227 0.186926H23.0439H25.065L31.6541 17.2088Z" fill="white"/>
<path d="M38.4336 17.2088H34.4614V8.69789V4.44241V0.186926H38.4336V17.2088Z" fill="white"/>
<path d="M49.2691 1.69789L58.4336 1.69789L58.4336 12.2863M57.7972 2.4332L46.4336 15.6979" stroke="#0172E4" stroke-width="3" stroke-linecap="round" stroke-linejoin="round"/>
</svg>
