<svg width="61" height="20" viewBox="0 0 61 20" fill="none" xmlns="http://www.w3.org/2000/svg">
<path d="M11.7249 4.64505C11.608 4.83198 11.4834 4.97217 11.351 5.06563C11.2264 5.1591 11.0628 5.20583 10.8603 5.20583C10.6812 5.20583 10.4865 5.15131 10.2762 5.04227C10.0737 4.92544 9.84003 4.79693 9.57522 4.65673C9.31819 4.51654 9.02223 4.39192 8.68732 4.28288C8.35241 4.16605 7.97077 4.10764 7.5424 4.10764C6.80249 4.10764 6.2495 4.26731 5.88343 4.58664C5.52516 4.89818 5.34602 5.32266 5.34602 5.86007C5.34602 6.20277 5.45506 6.48705 5.67314 6.71292C5.89122 6.93879 6.17551 7.1335 6.52599 7.29706C6.88427 7.46062 7.28927 7.6125 7.74101 7.75269C8.20053 7.8851 8.66785 8.03697 9.14295 8.20832C9.61805 8.37188 10.0815 8.5666 10.5332 8.79247C10.9927 9.01833 11.3977 9.30651 11.7482 9.657C12.1065 10.0075 12.3947 10.4359 12.6128 10.9421C12.8308 11.4406 12.9399 12.0442 12.9399 12.753C12.9399 13.5396 12.8036 14.2756 12.531 14.961C12.2584 15.6464 11.8612 16.2461 11.3393 16.7602C10.8253 17.2664 10.1866 17.6675 9.42334 17.9635C8.66785 18.2517 7.80721 18.3958 6.84143 18.3958C6.31181 18.3958 5.7705 18.3413 5.21751 18.2322C4.67231 18.1232 4.14269 17.9713 3.62864 17.7766C3.1146 17.5741 2.63171 17.3365 2.17997 17.0639V17.0639C1.4319 16.6125 1.33201 15.6281 1.79928 14.8898L2.16829 14.3068C2.26175 14.1744 2.38247 14.0653 2.53045 13.9797C2.68623 13.8862 2.85368 13.8395 3.03282 13.8395C3.26647 13.8395 3.50013 13.9135 3.73379 14.0614C3.97523 14.2094 4.24394 14.373 4.53991 14.5521C4.84366 14.7313 5.19025 14.8948 5.57968 15.0428C5.96911 15.1908 6.42863 15.2648 6.95826 15.2648C7.67481 15.2648 8.23169 15.109 8.62891 14.7975C9.02612 14.4781 9.22473 13.9758 9.22473 13.2904C9.22473 12.8931 9.11569 12.5699 8.89761 12.3207C8.67953 12.0715 8.39135 11.8651 8.03308 11.7015C7.68259 11.5379 7.28148 11.3938 6.82975 11.2692C6.37801 11.1446 5.91459 11.0083 5.43949 10.8603C4.96438 10.7046 4.50096 10.5176 4.04923 10.2996C3.59749 10.0737 3.19248 9.78161 2.83421 9.42334C2.48372 9.05728 2.19944 8.60554 1.98136 8.06813C1.76328 7.52293 1.65424 6.85311 1.65424 6.05868C1.65424 5.42001 1.78275 4.79693 2.03977 4.18942C2.2968 3.58191 2.67454 3.0406 3.17301 2.5655C3.67148 2.0904 4.28288 1.71265 5.00722 1.43227C5.73156 1.14409 6.56104 1 7.49567 1C8.0175 1 8.52376 1.04284 9.01444 1.12851C9.51291 1.2064 9.98412 1.32712 10.4281 1.49068C10.872 1.64645 11.2848 1.83727 11.6664 2.06314V2.06314C12.326 2.43248 12.4573 3.27617 12.1007 3.94268L11.7249 4.64505Z" fill="#808080"/>
<path d="M26.3804 11.7015L24.8032 7.04004C24.6864 6.74407 24.5618 6.39748 24.4294 6.00026C24.297 5.59526 24.1646 5.1591 24.0322 4.69178C23.9153 5.16689 23.7907 5.60694 23.6583 6.01195C23.5259 6.41695 23.4013 6.76744 23.2845 7.0634L21.719 11.7015H26.3804ZM32.6541 18.2088H29.5932C29.2505 18.2088 28.974 18.131 28.7637 17.9752C28.5534 17.8116 28.3938 17.6052 28.2847 17.356L26.3804 11.7015H21.719L19.803 17.356C19.7173 17.5741 19.5615 17.7727 19.3357 17.9518C19.1176 18.1232 18.845 18.2088 18.5179 18.2088H15.4336L22.0227 1.18693H24.0439H26.065L32.6541 18.2088Z" fill="#808080"/>
<path d="M39.4336 18.2088H35.4614V9.69789V5.44241V1.18693H39.4336V18.2088Z" fill="#808080"/>
<path d="M20.2765 17.5165L22.0775 12.2015H26.0212L27.8109 17.5156L27.8179 17.5363L27.8267 17.5564C27.9684 17.8803 28.1793 18.154 28.4568 18.3699L28.4567 18.37L28.4661 18.377C28.7858 18.6138 29.1764 18.7088 29.5932 18.7088H32.6541H33.3838L33.1204 18.0284L26.5313 1.00643L26.4076 0.686926H26.065H24.0439H22.0227H21.6801L21.5564 1.00643L14.9673 18.0284L14.7039 18.7088H15.4336H18.5179C18.9361 18.7088 19.3233 18.5974 19.6446 18.345L19.6464 18.3436C19.9255 18.1222 20.1438 17.8559 20.2684 17.5388L20.2727 17.5277L20.2765 17.5165ZM25.6834 11.2015H22.4155L23.7542 7.23515C23.8478 6.99727 23.9453 6.72827 24.0466 6.42877C24.1461 6.71759 24.2418 6.97881 24.3336 7.21195L25.6834 11.2015ZM12.1489 4.91005L12.1578 4.89577L12.1657 4.88093L12.5415 4.17856C12.9892 3.34176 12.8707 2.16871 11.9163 1.62998C11.5071 1.38829 11.0671 1.18527 10.5973 1.02017C10.1228 0.845638 9.62204 0.717659 9.09604 0.635196C8.57703 0.544847 8.04342 0.5 7.49567 0.5C6.51094 0.5 5.61761 0.651677 4.82456 0.966818C4.04781 1.26778 3.37915 1.67829 2.82804 2.20357C2.28226 2.72377 1.86415 3.3213 1.57929 3.9946C1.29706 4.66168 1.15424 5.35087 1.15424 6.05868C1.15424 6.89565 1.26868 7.63273 1.51712 8.25382L1.51712 8.25383L1.51805 8.25614C1.7565 8.84375 2.07301 9.3513 2.47305 9.76913L2.47297 9.76921L2.48066 9.77689C2.87681 10.173 3.32566 10.4968 3.82562 10.7468L3.8256 10.7468L3.83185 10.7498C4.30348 10.9775 4.78748 11.1727 5.28371 11.3354L5.28369 11.3355L5.29079 11.3377C5.7708 11.4872 6.23947 11.6251 6.69678 11.7512C7.12702 11.8699 7.50109 12.005 7.82164 12.1546L7.82163 12.1546L7.82543 12.1563C8.13126 12.296 8.35791 12.4632 8.52132 12.6499C8.64441 12.7906 8.72473 12.9889 8.72473 13.2904C8.72473 13.8782 8.55834 14.2114 8.31794 14.4059C8.03898 14.6236 7.60687 14.7648 6.95826 14.7648C6.47358 14.7648 6.07692 14.6969 5.75729 14.5754C5.39076 14.4361 5.0712 14.2848 4.79627 14.1228C4.50314 13.9454 4.23707 13.7834 3.99801 13.6369C3.70014 13.449 3.37615 13.3395 3.03282 13.3395C2.76306 13.3395 2.50806 13.4108 2.27665 13.5488C2.07115 13.6684 1.89644 13.8249 1.7598 14.0184L1.75253 14.0287L1.7458 14.0394L1.37679 14.6224C0.802372 15.53 0.870313 16.8576 1.92164 17.492C2.39841 17.7797 2.90654 18.0295 3.44538 18.2418L3.44536 18.2418L3.45153 18.2442C3.99155 18.4487 4.54763 18.6081 5.11945 18.7225L5.12078 18.7228C5.7036 18.8377 6.27733 18.8958 6.84143 18.8958C7.85656 18.8958 8.77926 18.7443 9.60154 18.4307L9.6041 18.4297C10.4224 18.1124 11.1214 17.6766 11.6902 17.1164L11.6902 17.1164C12.2618 16.5533 12.6976 15.8951 12.9956 15.1458C13.2931 14.3978 13.4399 13.5986 13.4399 12.753C13.4399 11.9958 13.3238 11.3205 13.0715 10.7432C12.8306 10.1844 12.5079 9.70123 12.0998 9.30148C11.7101 8.91219 11.261 8.59324 10.7553 8.3445C10.2856 8.1097 9.80347 7.90709 9.30918 7.73675C8.82723 7.56301 8.3523 7.40861 7.88441 7.27367C7.45188 7.13925 7.06948 6.99542 6.7356 6.84311C6.42907 6.69985 6.19947 6.5382 6.03284 6.36562C5.9134 6.24191 5.84602 6.08618 5.84602 5.86007C5.84602 5.44609 5.97755 5.16739 6.21152 4.96394L6.21212 4.96342C6.44984 4.75605 6.86245 4.60764 7.5424 4.60764C7.92598 4.60764 8.25036 4.66001 8.52263 4.75498L8.5226 4.75509L8.53253 4.75832C8.84384 4.85968 9.11058 4.97284 9.33579 5.09568L9.33577 5.09572L9.34127 5.09863C9.60213 5.23673 9.83029 5.36226 10.0263 5.47536L10.0361 5.48097L10.046 5.48614C10.3054 5.62063 10.5795 5.70583 10.8603 5.70583C11.1361 5.70583 11.4123 5.64223 11.645 5.47011C11.8449 5.32752 12.01 5.13219 12.1489 4.91005ZM39.4336 18.7088H39.9336V18.2088V1.18693V0.686926H39.4336H35.4614H34.9614V1.18693V5.44241V9.69789V18.2088V18.7088H35.4614H39.4336Z" stroke="white" stroke-opacity="0.1"/>
<path d="M50.2691 2.69789L59.4336 2.69789L59.4336 13.2863M58.7972 3.4332L47.4336 16.6979" stroke="#0172E4" stroke-width="3" stroke-linecap="round" stroke-linejoin="round"/>
</svg>
