<svg width="295" height="34" viewBox="0 0 295 34" fill="none" xmlns="http://www.w3.org/2000/svg">
<g opacity="0.5">
<path d="M174.624 22.6142C175.158 22.6142 175.635 22.5242 176.055 22.3442C176.475 22.1642 176.829 21.9122 177.117 21.5882C177.411 21.2642 177.633 20.8772 177.783 20.4272C177.939 19.9772 178.017 19.4822 178.017 18.9422V11.1032H179.754V18.9422C179.754 19.6862 179.634 20.3762 179.394 21.0122C179.16 21.6482 178.821 22.2002 178.377 22.6682C177.939 23.1302 177.402 23.4932 176.766 23.7572C176.13 24.0212 175.416 24.1532 174.624 24.1532C173.832 24.1532 173.118 24.0212 172.482 23.7572C171.846 23.4932 171.306 23.1302 170.862 22.6682C170.418 22.2002 170.076 21.6482 169.836 21.0122C169.602 20.3762 169.485 19.6862 169.485 18.9422V11.1032H171.222V18.9332C171.222 19.4732 171.297 19.9682 171.447 20.4182C171.603 20.8682 171.825 21.2552 172.113 21.5792C172.407 21.9032 172.764 22.1582 173.184 22.3442C173.61 22.5242 174.09 22.6142 174.624 22.6142Z" fill="black"/>
<path d="M184.629 24.0002H182.883V11.1032H184.629V24.0002Z" fill="black"/>
<path d="M188.432 24.1892C188.354 24.3992 188.231 24.5552 188.063 24.6572C187.901 24.7592 187.733 24.8102 187.559 24.8102H186.884L192.293 11.3372C192.365 11.1452 192.473 10.9982 192.617 10.8962C192.767 10.7942 192.938 10.7432 193.13 10.7432H193.814L188.432 24.1892Z" fill="black"/>
<path d="M201.044 22.6142C201.578 22.6142 202.055 22.5242 202.475 22.3442C202.895 22.1642 203.249 21.9122 203.537 21.5882C203.831 21.2642 204.053 20.8772 204.203 20.4272C204.359 19.9772 204.437 19.4822 204.437 18.9422V11.1032H206.174V18.9422C206.174 19.6862 206.054 20.3762 205.814 21.0122C205.58 21.6482 205.241 22.2002 204.797 22.6682C204.359 23.1302 203.822 23.4932 203.186 23.7572C202.55 24.0212 201.836 24.1532 201.044 24.1532C200.252 24.1532 199.538 24.0212 198.902 23.7572C198.266 23.4932 197.726 23.1302 197.282 22.6682C196.838 22.2002 196.496 21.6482 196.256 21.0122C196.022 20.3762 195.905 19.6862 195.905 18.9422V11.1032H197.642V18.9332C197.642 19.4732 197.717 19.9682 197.867 20.4182C198.023 20.8682 198.245 21.2552 198.533 21.5792C198.827 21.9032 199.184 22.1582 199.604 22.3442C200.03 22.5242 200.51 22.6142 201.044 22.6142Z" fill="black"/>
<path d="M219.14 24.0002H217.412C217.28 24.0002 217.175 23.9672 217.097 23.9012C217.025 23.8292 216.965 23.7512 216.917 23.6672L213.461 18.2492C213.413 18.3932 213.359 18.5162 213.299 18.6182L209.933 23.6672C209.873 23.7512 209.807 23.8292 209.735 23.9012C209.669 23.9672 209.576 24.0002 209.456 24.0002H207.836L212.273 17.3762L208.016 11.1032H209.753C209.879 11.1032 209.972 11.1242 210.032 11.1662C210.092 11.2082 210.146 11.2682 210.194 11.3462L213.56 16.5122C213.602 16.3862 213.665 16.2482 213.749 16.0982L216.926 11.3822C216.974 11.2982 217.031 11.2322 217.097 11.1842C217.163 11.1302 217.241 11.1032 217.331 11.1032H218.996L214.721 17.2952L219.14 24.0002Z" fill="black"/>
<path d="M236.776 17.5562C236.776 18.5222 236.623 19.4012 236.317 20.1932C236.011 20.9852 235.579 21.6632 235.021 22.2272C234.463 22.7912 233.791 23.2292 233.005 23.5412C232.225 23.8472 231.361 24.0002 230.413 24.0002H225.598V11.1032H230.413C231.361 11.1032 232.225 11.2592 233.005 11.5712C233.791 11.8772 234.463 12.3152 235.021 12.8852C235.579 13.4492 236.011 14.1272 236.317 14.9192C236.623 15.7112 236.776 16.5902 236.776 17.5562ZM234.985 17.5562C234.985 16.7642 234.877 16.0562 234.661 15.4322C234.445 14.8082 234.139 14.2802 233.743 13.8482C233.347 13.4162 232.867 13.0862 232.303 12.8582C231.739 12.6302 231.109 12.5162 230.413 12.5162H227.344V22.5872H230.413C231.109 22.5872 231.739 22.4732 232.303 22.2452C232.867 22.0172 233.347 21.6902 233.743 21.2642C234.139 20.8322 234.445 20.3042 234.661 19.6802C234.877 19.0562 234.985 18.3482 234.985 17.5562Z" fill="black"/>
<path d="M244.892 18.4472C244.892 18.0752 244.838 17.7362 244.73 17.4302C244.628 17.1182 244.475 16.8512 244.271 16.6292C244.073 16.4012 243.83 16.2272 243.542 16.1072C243.254 15.9812 242.927 15.9182 242.561 15.9182C241.793 15.9182 241.184 16.1432 240.734 16.5932C240.29 17.0372 240.014 17.6552 239.906 18.4472H244.892ZM246.188 22.7222C245.99 22.9622 245.753 23.1722 245.477 23.3522C245.201 23.5262 244.904 23.6702 244.586 23.7842C244.274 23.8982 243.95 23.9822 243.614 24.0362C243.278 24.0962 242.945 24.1262 242.615 24.1262C241.985 24.1262 241.403 24.0212 240.869 23.8112C240.341 23.5952 239.882 23.2832 239.492 22.8752C239.108 22.4612 238.808 21.9512 238.592 21.3452C238.376 20.7392 238.268 20.0432 238.268 19.2572C238.268 18.6212 238.364 18.0272 238.556 17.4752C238.754 16.9232 239.036 16.4462 239.402 16.0442C239.768 15.6362 240.215 15.3182 240.743 15.0902C241.271 14.8562 241.865 14.7392 242.525 14.7392C243.071 14.7392 243.575 14.8322 244.037 15.0182C244.505 15.1982 244.907 15.4622 245.243 15.8102C245.585 16.1522 245.852 16.5782 246.044 17.0882C246.236 17.5922 246.332 18.1682 246.332 18.8162C246.332 19.0682 246.305 19.2362 246.251 19.3202C246.197 19.4042 246.095 19.4462 245.945 19.4462H239.852C239.87 20.0222 239.948 20.5232 240.086 20.9492C240.23 21.3752 240.428 21.7322 240.68 22.0202C240.932 22.3022 241.232 22.5152 241.58 22.6592C241.928 22.7972 242.318 22.8662 242.75 22.8662C243.152 22.8662 243.497 22.8212 243.785 22.7312C244.079 22.6352 244.331 22.5332 244.541 22.4252C244.751 22.3172 244.925 22.2182 245.063 22.1282C245.207 22.0322 245.33 21.9842 245.432 21.9842C245.564 21.9842 245.666 22.0352 245.738 22.1372L246.188 22.7222Z" fill="black"/>
<path d="M253.61 16.3862C253.538 16.5182 253.427 16.5842 253.277 16.5842C253.187 16.5842 253.085 16.5512 252.971 16.4852C252.857 16.4192 252.716 16.3472 252.548 16.2692C252.386 16.1852 252.191 16.1102 251.963 16.0442C251.735 15.9722 251.465 15.9362 251.153 15.9362C250.883 15.9362 250.64 15.9722 250.424 16.0442C250.208 16.1102 250.022 16.2032 249.866 16.3232C249.716 16.4432 249.599 16.5842 249.515 16.7462C249.437 16.9022 249.398 17.0732 249.398 17.2592C249.398 17.4932 249.464 17.6882 249.596 17.8442C249.734 18.0002 249.914 18.1352 250.136 18.2492C250.358 18.3632 250.61 18.4652 250.892 18.5552C251.174 18.6392 251.462 18.7322 251.756 18.8342C252.056 18.9302 252.347 19.0382 252.629 19.1582C252.911 19.2782 253.163 19.4282 253.385 19.6082C253.607 19.7882 253.784 20.0102 253.916 20.2742C254.054 20.5322 254.123 20.8442 254.123 21.2102C254.123 21.6302 254.048 22.0202 253.898 22.3802C253.748 22.7342 253.526 23.0432 253.232 23.3072C252.938 23.5652 252.578 23.7692 252.152 23.9192C251.726 24.0692 251.234 24.1442 250.676 24.1442C250.04 24.1442 249.464 24.0422 248.948 23.8382C248.432 23.6282 247.994 23.3612 247.634 23.0372L248.012 22.4252C248.06 22.3472 248.117 22.2872 248.183 22.2452C248.249 22.2032 248.333 22.1822 248.435 22.1822C248.543 22.1822 248.657 22.2242 248.777 22.3082C248.897 22.3922 249.041 22.4852 249.209 22.5872C249.383 22.6892 249.593 22.7822 249.839 22.8662C250.085 22.9502 250.391 22.9922 250.757 22.9922C251.069 22.9922 251.342 22.9532 251.576 22.8752C251.81 22.7912 252.005 22.6802 252.161 22.5422C252.317 22.4042 252.431 22.2452 252.503 22.0652C252.581 21.8852 252.62 21.6932 252.62 21.4892C252.62 21.2372 252.551 21.0302 252.413 20.8682C252.281 20.7002 252.104 20.5592 251.882 20.4452C251.66 20.3252 251.405 20.2232 251.117 20.1392C250.835 20.0492 250.544 19.9562 250.244 19.8602C249.95 19.7642 249.659 19.6562 249.371 19.5362C249.089 19.4102 248.837 19.2542 248.615 19.0682C248.393 18.8822 248.213 18.6542 248.075 18.3842C247.943 18.1082 247.877 17.7752 247.877 17.3852C247.877 17.0372 247.949 16.7042 248.093 16.3862C248.237 16.0622 248.447 15.7802 248.723 15.5402C248.999 15.2942 249.338 15.0992 249.74 14.9552C250.142 14.8112 250.601 14.7392 251.117 14.7392C251.717 14.7392 252.254 14.8352 252.728 15.0272C253.208 15.2132 253.622 15.4712 253.97 15.8012L253.61 16.3862Z" fill="black"/>
<path d="M257.779 14.8832V24.0002H256.177V14.8832H257.779ZM258.121 12.0212C258.121 12.1772 258.088 12.3242 258.022 12.4622C257.962 12.5942 257.878 12.7142 257.77 12.8222C257.668 12.9242 257.545 13.0052 257.401 13.0652C257.263 13.1252 257.116 13.1552 256.96 13.1552C256.804 13.1552 256.657 13.1252 256.519 13.0652C256.387 13.0052 256.27 12.9242 256.168 12.8222C256.066 12.7142 255.985 12.5942 255.925 12.4622C255.865 12.3242 255.835 12.1772 255.835 12.0212C255.835 11.8652 255.865 11.7182 255.925 11.5802C255.985 11.4362 256.066 11.3132 256.168 11.2112C256.27 11.1032 256.387 11.0192 256.519 10.9592C256.657 10.8992 256.804 10.8692 256.96 10.8692C257.116 10.8692 257.263 10.8992 257.401 10.9592C257.545 11.0192 257.668 11.1032 257.77 11.2112C257.878 11.3132 257.962 11.4362 258.022 11.5802C258.088 11.7182 258.121 11.8652 258.121 12.0212Z" fill="black"/>
<path d="M263.588 19.5452C263.912 19.5452 264.197 19.5002 264.443 19.4102C264.689 19.3202 264.896 19.1942 265.064 19.0322C265.232 18.8702 265.358 18.6782 265.442 18.4562C265.526 18.2282 265.568 17.9792 265.568 17.7092C265.568 17.1512 265.397 16.7072 265.055 16.3772C264.719 16.0472 264.23 15.8822 263.588 15.8822C262.94 15.8822 262.445 16.0472 262.103 16.3772C261.767 16.7072 261.599 17.1512 261.599 17.7092C261.599 17.9792 261.641 18.2282 261.725 18.4562C261.815 18.6782 261.944 18.8702 262.112 19.0322C262.28 19.1942 262.487 19.3202 262.733 19.4102C262.979 19.5002 263.264 19.5452 263.588 19.5452ZM266.477 24.4952C266.477 24.2732 266.414 24.0932 266.288 23.9552C266.162 23.8172 265.991 23.7092 265.775 23.6312C265.565 23.5532 265.319 23.4992 265.037 23.4692C264.755 23.4332 264.455 23.4062 264.137 23.3882C263.825 23.3702 263.507 23.3522 263.183 23.3342C262.859 23.3162 262.547 23.2862 262.247 23.2442C261.911 23.4002 261.635 23.5982 261.419 23.8382C261.209 24.0722 261.104 24.3482 261.104 24.6662C261.104 24.8702 261.155 25.0592 261.257 25.2332C261.365 25.4132 261.527 25.5662 261.743 25.6922C261.959 25.8242 262.229 25.9262 262.553 25.9982C262.883 26.0762 263.27 26.1152 263.714 26.1152C264.146 26.1152 264.533 26.0762 264.875 25.9982C265.217 25.9202 265.505 25.8092 265.739 25.6652C265.979 25.5212 266.162 25.3502 266.288 25.1522C266.414 24.9542 266.477 24.7352 266.477 24.4952ZM268.106 15.2432V15.8372C268.106 16.0352 267.98 16.1612 267.728 16.2152L266.693 16.3502C266.897 16.7462 266.999 17.1842 266.999 17.6642C266.999 18.1082 266.912 18.5132 266.738 18.8792C266.57 19.2392 266.336 19.5482 266.036 19.8062C265.736 20.0642 265.376 20.2622 264.956 20.4002C264.536 20.5382 264.08 20.6072 263.588 20.6072C263.162 20.6072 262.76 20.5562 262.382 20.4542C262.19 20.5742 262.043 20.7032 261.941 20.8412C261.839 20.9732 261.788 21.1082 261.788 21.2462C261.788 21.4622 261.875 21.6272 262.049 21.7412C262.229 21.8492 262.463 21.9272 262.751 21.9752C263.039 22.0232 263.366 22.0532 263.732 22.0652C264.104 22.0772 264.482 22.0982 264.866 22.1282C265.256 22.1522 265.634 22.1972 266 22.2632C266.372 22.3292 266.702 22.4372 266.99 22.5872C267.278 22.7372 267.509 22.9442 267.683 23.2082C267.863 23.4722 267.953 23.8142 267.953 24.2342C267.953 24.6242 267.854 25.0022 267.656 25.3682C267.464 25.7342 267.185 26.0582 266.819 26.3402C266.453 26.6282 266.003 26.8562 265.469 27.0242C264.941 27.1982 264.344 27.2852 263.678 27.2852C263.012 27.2852 262.43 27.2192 261.932 27.0872C261.434 26.9552 261.02 26.7782 260.69 26.5562C260.36 26.3342 260.111 26.0762 259.943 25.7822C259.781 25.4942 259.7 25.1912 259.7 24.8732C259.7 24.4232 259.841 24.0422 260.123 23.7302C260.405 23.4182 260.792 23.1692 261.284 22.9832C261.014 22.8632 260.798 22.7042 260.636 22.5062C260.48 22.3022 260.402 22.0292 260.402 21.6872C260.402 21.5552 260.426 21.4202 260.474 21.2822C260.522 21.1382 260.594 20.9972 260.69 20.8592C260.792 20.7152 260.915 20.5802 261.059 20.4542C261.203 20.3282 261.371 20.2172 261.563 20.1212C261.113 19.8692 260.762 19.5362 260.51 19.1222C260.258 18.7022 260.132 18.2162 260.132 17.6642C260.132 17.2202 260.216 16.8182 260.384 16.4582C260.558 16.0922 260.798 15.7832 261.104 15.5312C261.41 15.2732 261.773 15.0752 262.193 14.9372C262.619 14.7992 263.084 14.7302 263.588 14.7302C263.984 14.7302 264.353 14.7752 264.695 14.8652C265.037 14.9492 265.349 15.0752 265.631 15.2432H268.106Z" fill="black"/>
<path d="M271.275 16.2062C271.473 15.9842 271.683 15.7832 271.905 15.6032C272.127 15.4232 272.361 15.2702 272.607 15.1442C272.859 15.0122 273.123 14.9132 273.399 14.8472C273.681 14.7752 273.984 14.7392 274.308 14.7392C274.806 14.7392 275.244 14.8232 275.622 14.9912C276.006 15.1532 276.324 15.3872 276.576 15.6932C276.834 15.9932 277.029 16.3562 277.161 16.7822C277.293 17.2082 277.359 17.6792 277.359 18.1952V24.0002H275.748V18.1952C275.748 17.5052 275.589 16.9712 275.271 16.5932C274.959 16.2092 274.482 16.0172 273.84 16.0172C273.366 16.0172 272.922 16.1312 272.508 16.3592C272.1 16.5872 271.722 16.8962 271.374 17.2862V24.0002H269.763V14.8832H270.726C270.954 14.8832 271.095 14.9942 271.149 15.2162L271.275 16.2062Z" fill="black"/>
<path d="M285.902 18.4472C285.902 18.0752 285.848 17.7362 285.74 17.4302C285.638 17.1182 285.485 16.8512 285.281 16.6292C285.083 16.4012 284.84 16.2272 284.552 16.1072C284.264 15.9812 283.937 15.9182 283.571 15.9182C282.803 15.9182 282.194 16.1432 281.744 16.5932C281.3 17.0372 281.024 17.6552 280.916 18.4472H285.902ZM287.198 22.7222C287 22.9622 286.763 23.1722 286.487 23.3522C286.211 23.5262 285.914 23.6702 285.596 23.7842C285.284 23.8982 284.96 23.9822 284.624 24.0362C284.288 24.0962 283.955 24.1262 283.625 24.1262C282.995 24.1262 282.413 24.0212 281.879 23.8112C281.351 23.5952 280.892 23.2832 280.502 22.8752C280.118 22.4612 279.818 21.9512 279.602 21.3452C279.386 20.7392 279.278 20.0432 279.278 19.2572C279.278 18.6212 279.374 18.0272 279.566 17.4752C279.764 16.9232 280.046 16.4462 280.412 16.0442C280.778 15.6362 281.225 15.3182 281.753 15.0902C282.281 14.8562 282.875 14.7392 283.535 14.7392C284.081 14.7392 284.585 14.8322 285.047 15.0182C285.515 15.1982 285.917 15.4622 286.253 15.8102C286.595 16.1522 286.862 16.5782 287.054 17.0882C287.246 17.5922 287.342 18.1682 287.342 18.8162C287.342 19.0682 287.315 19.2362 287.261 19.3202C287.207 19.4042 287.105 19.4462 286.955 19.4462H280.862C280.88 20.0222 280.958 20.5232 281.096 20.9492C281.24 21.3752 281.438 21.7322 281.69 22.0202C281.942 22.3022 282.242 22.5152 282.59 22.6592C282.938 22.7972 283.328 22.8662 283.76 22.8662C284.162 22.8662 284.507 22.8212 284.795 22.7312C285.089 22.6352 285.341 22.5332 285.551 22.4252C285.761 22.3172 285.935 22.2182 286.073 22.1282C286.217 22.0322 286.34 21.9842 286.442 21.9842C286.574 21.9842 286.676 22.0352 286.748 22.1372L287.198 22.7222Z" fill="black"/>
<path d="M290.831 16.7102C291.119 16.0862 291.473 15.6002 291.893 15.2522C292.313 14.8982 292.826 14.7212 293.432 14.7212C293.624 14.7212 293.807 14.7422 293.981 14.7842C294.161 14.8262 294.32 14.8922 294.458 14.9822L294.341 16.1792C294.305 16.3292 294.215 16.4042 294.071 16.4042C293.987 16.4042 293.864 16.3862 293.702 16.3502C293.54 16.3142 293.357 16.2962 293.153 16.2962C292.865 16.2962 292.607 16.3382 292.379 16.4222C292.157 16.5062 291.956 16.6322 291.776 16.8002C291.602 16.9622 291.443 17.1662 291.299 17.4122C291.161 17.6522 291.035 17.9282 290.921 18.2402V24.0002H289.31V14.8832H290.228C290.402 14.8832 290.522 14.9162 290.588 14.9822C290.654 15.0482 290.699 15.1622 290.723 15.3242L290.831 16.7102Z" fill="black"/>
</g>
<path d="M21.5989 7.12425C21.3706 7.48959 21.127 7.7636 20.8682 7.94627C20.6247 8.12895 20.305 8.22028 19.9092 8.22028C19.5591 8.22028 19.1785 8.11372 18.7675 7.9006C18.3717 7.67226 17.915 7.42109 17.3974 7.14708C16.8951 6.87307 16.3166 6.6295 15.6621 6.41639C15.0075 6.18805 14.2616 6.07388 13.4243 6.07388C11.9782 6.07388 10.8973 6.38594 10.1819 7.01007C9.48162 7.61898 9.1315 8.44862 9.1315 9.49899C9.1315 10.1688 9.34462 10.7244 9.77085 11.1659C10.1971 11.6073 10.7527 11.9879 11.4377 12.3076C12.138 12.6273 12.9296 12.9241 13.8125 13.1981C14.7106 13.4569 15.624 13.7537 16.5526 14.0886C17.4812 14.4083 18.3869 14.7889 19.2698 15.2304C20.168 15.6718 20.9596 16.2351 21.6446 16.9201C22.3448 17.6051 22.9081 18.4424 23.3343 19.4318C23.7606 20.4061 23.9737 21.5859 23.9737 22.9711C23.9737 24.5086 23.7073 25.9472 23.1745 27.2868C22.6417 28.6264 21.8653 29.7985 20.8454 30.8032C19.8407 31.7927 18.5924 32.5767 17.1006 33.1551C15.624 33.7184 13.9419 34 12.0543 34C11.0191 34 9.96114 33.8934 8.88032 33.6803C7.81473 33.4672 6.77958 33.1704 5.77488 32.7898C4.77018 32.394 3.82637 31.9297 2.94345 31.3969C2.55619 31.1632 2.19089 30.9178 1.84755 30.6607C1.09872 30.0999 0.992713 29.0542 1.49304 28.2636L2.92062 26.0081C3.10329 25.7493 3.33924 25.5362 3.62848 25.3687C3.93293 25.186 4.26022 25.0947 4.61034 25.0947C5.06703 25.0947 5.52371 25.2393 5.98039 25.5285C6.4523 25.8178 6.97748 26.1375 7.55594 26.4876C8.14963 26.8377 8.82704 27.1574 9.58818 27.4466C10.3493 27.7358 11.2475 27.8805 12.2826 27.8805C13.6831 27.8805 14.7715 27.576 15.5479 26.9671C16.3242 26.343 16.7124 25.3611 16.7124 24.0215C16.7124 23.2451 16.4993 22.6134 16.0731 22.1263C15.6468 21.6391 15.0836 21.2357 14.3833 20.9161C13.6983 20.5964 12.9144 20.3148 12.0314 20.0712C11.1485 19.8276 10.2428 19.5612 9.31417 19.272C8.38558 18.9675 7.47983 18.6022 6.59691 18.176C5.71399 17.7345 4.92241 17.1636 4.22216 16.4634C3.53714 15.7479 2.98151 14.865 2.55527 13.8146C2.12904 12.749 1.91592 11.4399 1.91592 9.88717C1.91592 8.63891 2.16709 7.42109 2.66944 6.23371C3.17179 5.04634 3.9101 3.98836 4.88435 3.05977C5.85861 2.13118 7.05359 1.39288 8.46931 0.844861C9.88502 0.28162 11.5062 0 13.333 0C14.3529 0 15.3424 0.0837254 16.3014 0.251176C17.2757 0.403403 18.1966 0.639355 19.0643 0.959031C19.932 1.26349 20.7388 1.63645 21.4848 2.0779C21.7695 2.23737 22.0426 2.40537 22.3039 2.58189C23.0588 3.09175 23.217 4.10002 22.7873 4.9032L21.5989 7.12425Z" fill="black"/>
<path d="M56.2889 20.9161L53.2063 11.8052C52.978 11.2268 52.7344 10.5494 52.4756 9.773C52.2169 8.98142 51.9581 8.12895 51.6993 7.21558C51.4709 8.14417 51.2274 9.00425 50.9686 9.79584C50.7098 10.5874 50.4662 11.2724 50.2379 11.8509L47.1781 20.9161H56.2889ZM68.5509 33.6347H62.5683C61.8985 33.6347 61.3581 33.4824 60.9471 33.178C60.5361 32.8583 60.224 32.4549 60.0109 31.9678L56.2889 20.9161H47.1781L43.4333 31.9678C43.2659 32.394 42.9614 32.7822 42.52 33.1323C42.0937 33.4672 41.5609 33.6347 40.9216 33.6347H34.8934L47.7718 0.365347H51.7221H55.6724L68.5509 33.6347Z" fill="black"/>
<path d="M89.8979 33.6347H82.1343V17V8.68267V0.365347H89.8979V33.6347Z" fill="black"/>
<path d="M118.327 7.33984L135.498 7.33984L135.498 24.5102M134.305 8.53223L113.015 30.0425" stroke="#007AFF" stroke-width="3" stroke-linecap="round" stroke-linejoin="round"/>
</svg>
