<svg width="232" height="21" viewBox="0 0 232 21" fill="none" xmlns="http://www.w3.org/2000/svg">
<g opacity="0.8">
<path d="M112.139 13.871C112.673 13.871 113.15 13.781 113.57 13.601C113.99 13.421 114.344 13.169 114.632 12.845C114.926 12.521 115.148 12.134 115.298 11.684C115.454 11.234 115.532 10.739 115.532 10.199V2.36H117.269V10.199C117.269 10.943 117.149 11.633 116.909 12.269C116.675 12.905 116.336 13.457 115.892 13.925C115.454 14.387 114.917 14.75 114.281 15.014C113.645 15.278 112.931 15.41 112.139 15.41C111.347 15.41 110.633 15.278 109.997 15.014C109.361 14.75 108.821 14.387 108.377 13.925C107.933 13.457 107.591 12.905 107.351 12.269C107.117 11.633 107 10.943 107 10.199V2.36H108.737V10.19C108.737 10.73 108.812 11.225 108.962 11.675C109.118 12.125 109.34 12.512 109.628 12.836C109.922 13.16 110.279 13.415 110.699 13.601C111.125 13.781 111.605 13.871 112.139 13.871Z" fill="white"/>
<path d="M122.144 15.257H120.398V2.36H122.144V15.257Z" fill="white"/>
<path d="M125.947 15.446C125.869 15.656 125.746 15.812 125.578 15.914C125.416 16.016 125.248 16.067 125.074 16.067H124.399L129.808 2.594C129.88 2.402 129.988 2.255 130.132 2.153C130.282 2.051 130.453 2 130.645 2H131.329L125.947 15.446Z" fill="white"/>
<path d="M138.559 13.871C139.093 13.871 139.57 13.781 139.99 13.601C140.41 13.421 140.764 13.169 141.052 12.845C141.346 12.521 141.568 12.134 141.718 11.684C141.874 11.234 141.952 10.739 141.952 10.199V2.36H143.689V10.199C143.689 10.943 143.569 11.633 143.329 12.269C143.095 12.905 142.756 13.457 142.312 13.925C141.874 14.387 141.337 14.75 140.701 15.014C140.065 15.278 139.351 15.41 138.559 15.41C137.767 15.41 137.053 15.278 136.417 15.014C135.781 14.75 135.241 14.387 134.797 13.925C134.353 13.457 134.011 12.905 133.771 12.269C133.537 11.633 133.42 10.943 133.42 10.199V2.36H135.157V10.19C135.157 10.73 135.232 11.225 135.382 11.675C135.538 12.125 135.76 12.512 136.048 12.836C136.342 13.16 136.699 13.415 137.119 13.601C137.545 13.781 138.025 13.871 138.559 13.871Z" fill="white"/>
<path d="M156.655 15.257H154.927C154.795 15.257 154.69 15.224 154.612 15.158C154.54 15.086 154.48 15.008 154.432 14.924L150.976 9.506C150.928 9.65 150.874 9.773 150.814 9.875L147.448 14.924C147.388 15.008 147.322 15.086 147.25 15.158C147.184 15.224 147.091 15.257 146.971 15.257H145.351L149.788 8.633L145.531 2.36H147.268C147.394 2.36 147.487 2.381 147.547 2.423C147.607 2.465 147.661 2.525 147.709 2.603L151.075 7.769C151.117 7.643 151.18 7.505 151.264 7.355L154.441 2.639C154.489 2.555 154.546 2.489 154.612 2.441C154.678 2.387 154.756 2.36 154.846 2.36H156.511L152.236 8.552L156.655 15.257Z" fill="white"/>
<path d="M174.291 8.813C174.291 9.779 174.138 10.658 173.832 11.45C173.526 12.242 173.094 12.92 172.536 13.484C171.978 14.048 171.306 14.486 170.52 14.798C169.74 15.104 168.876 15.257 167.928 15.257H163.113V2.36H167.928C168.876 2.36 169.74 2.516 170.52 2.828C171.306 3.134 171.978 3.572 172.536 4.142C173.094 4.706 173.526 5.384 173.832 6.176C174.138 6.968 174.291 7.847 174.291 8.813ZM172.5 8.813C172.5 8.021 172.392 7.313 172.176 6.689C171.96 6.065 171.654 5.537 171.258 5.105C170.862 4.673 170.382 4.343 169.818 4.115C169.254 3.887 168.624 3.773 167.928 3.773H164.859V13.844H167.928C168.624 13.844 169.254 13.73 169.818 13.502C170.382 13.274 170.862 12.947 171.258 12.521C171.654 12.089 171.96 11.561 172.176 10.937C172.392 10.313 172.5 9.605 172.5 8.813Z" fill="white"/>
<path d="M182.407 9.704C182.407 9.332 182.353 8.993 182.245 8.687C182.143 8.375 181.99 8.108 181.786 7.886C181.588 7.658 181.345 7.484 181.057 7.364C180.769 7.238 180.442 7.175 180.076 7.175C179.308 7.175 178.699 7.4 178.249 7.85C177.805 8.294 177.529 8.912 177.421 9.704H182.407ZM183.703 13.979C183.505 14.219 183.268 14.429 182.992 14.609C182.716 14.783 182.419 14.927 182.101 15.041C181.789 15.155 181.465 15.239 181.129 15.293C180.793 15.353 180.46 15.383 180.13 15.383C179.5 15.383 178.918 15.278 178.384 15.068C177.856 14.852 177.397 14.54 177.007 14.132C176.623 13.718 176.323 13.208 176.107 12.602C175.891 11.996 175.783 11.3 175.783 10.514C175.783 9.878 175.879 9.284 176.071 8.732C176.269 8.18 176.551 7.703 176.917 7.301C177.283 6.893 177.73 6.575 178.258 6.347C178.786 6.113 179.38 5.996 180.04 5.996C180.586 5.996 181.09 6.089 181.552 6.275C182.02 6.455 182.422 6.719 182.758 7.067C183.1 7.409 183.367 7.835 183.559 8.345C183.751 8.849 183.847 9.425 183.847 10.073C183.847 10.325 183.82 10.493 183.766 10.577C183.712 10.661 183.61 10.703 183.46 10.703H177.367C177.385 11.279 177.463 11.78 177.601 12.206C177.745 12.632 177.943 12.989 178.195 13.277C178.447 13.559 178.747 13.772 179.095 13.916C179.443 14.054 179.833 14.123 180.265 14.123C180.667 14.123 181.012 14.078 181.3 13.988C181.594 13.892 181.846 13.79 182.056 13.682C182.266 13.574 182.44 13.475 182.578 13.385C182.722 13.289 182.845 13.241 182.947 13.241C183.079 13.241 183.181 13.292 183.253 13.394L183.703 13.979Z" fill="white"/>
<path d="M191.125 7.643C191.053 7.775 190.942 7.841 190.792 7.841C190.702 7.841 190.6 7.808 190.486 7.742C190.372 7.676 190.231 7.604 190.063 7.526C189.901 7.442 189.706 7.367 189.478 7.301C189.25 7.229 188.98 7.193 188.668 7.193C188.398 7.193 188.155 7.229 187.939 7.301C187.723 7.367 187.537 7.46 187.381 7.58C187.231 7.7 187.114 7.841 187.03 8.003C186.952 8.159 186.913 8.33 186.913 8.516C186.913 8.75 186.979 8.945 187.111 9.101C187.249 9.257 187.429 9.392 187.651 9.506C187.873 9.62 188.125 9.722 188.407 9.812C188.689 9.896 188.977 9.989 189.271 10.091C189.571 10.187 189.862 10.295 190.144 10.415C190.426 10.535 190.678 10.685 190.9 10.865C191.122 11.045 191.299 11.267 191.431 11.531C191.569 11.789 191.638 12.101 191.638 12.467C191.638 12.887 191.563 13.277 191.413 13.637C191.263 13.991 191.041 14.3 190.747 14.564C190.453 14.822 190.093 15.026 189.667 15.176C189.241 15.326 188.749 15.401 188.191 15.401C187.555 15.401 186.979 15.299 186.463 15.095C185.947 14.885 185.509 14.618 185.149 14.294L185.527 13.682C185.575 13.604 185.632 13.544 185.698 13.502C185.764 13.46 185.848 13.439 185.95 13.439C186.058 13.439 186.172 13.481 186.292 13.565C186.412 13.649 186.556 13.742 186.724 13.844C186.898 13.946 187.108 14.039 187.354 14.123C187.6 14.207 187.906 14.249 188.272 14.249C188.584 14.249 188.857 14.21 189.091 14.132C189.325 14.048 189.52 13.937 189.676 13.799C189.832 13.661 189.946 13.502 190.018 13.322C190.096 13.142 190.135 12.95 190.135 12.746C190.135 12.494 190.066 12.287 189.928 12.125C189.796 11.957 189.619 11.816 189.397 11.702C189.175 11.582 188.92 11.48 188.632 11.396C188.35 11.306 188.059 11.213 187.759 11.117C187.465 11.021 187.174 10.913 186.886 10.793C186.604 10.667 186.352 10.511 186.13 10.325C185.908 10.139 185.728 9.911 185.59 9.641C185.458 9.365 185.392 9.032 185.392 8.642C185.392 8.294 185.464 7.961 185.608 7.643C185.752 7.319 185.962 7.037 186.238 6.797C186.514 6.551 186.853 6.356 187.255 6.212C187.657 6.068 188.116 5.996 188.632 5.996C189.232 5.996 189.769 6.092 190.243 6.284C190.723 6.47 191.137 6.728 191.485 7.058L191.125 7.643Z" fill="white"/>
<path d="M195.294 6.14V15.257H193.692V6.14H195.294ZM195.636 3.278C195.636 3.434 195.603 3.581 195.537 3.719C195.477 3.851 195.393 3.971 195.285 4.079C195.183 4.181 195.06 4.262 194.916 4.322C194.778 4.382 194.631 4.412 194.475 4.412C194.319 4.412 194.172 4.382 194.034 4.322C193.902 4.262 193.785 4.181 193.683 4.079C193.581 3.971 193.5 3.851 193.44 3.719C193.38 3.581 193.35 3.434 193.35 3.278C193.35 3.122 193.38 2.975 193.44 2.837C193.5 2.693 193.581 2.57 193.683 2.468C193.785 2.36 193.902 2.276 194.034 2.216C194.172 2.156 194.319 2.126 194.475 2.126C194.631 2.126 194.778 2.156 194.916 2.216C195.06 2.276 195.183 2.36 195.285 2.468C195.393 2.57 195.477 2.693 195.537 2.837C195.603 2.975 195.636 3.122 195.636 3.278Z" fill="white"/>
<path d="M201.104 10.802C201.428 10.802 201.713 10.757 201.959 10.667C202.205 10.577 202.412 10.451 202.58 10.289C202.748 10.127 202.874 9.935 202.958 9.713C203.042 9.485 203.084 9.236 203.084 8.966C203.084 8.408 202.913 7.964 202.571 7.634C202.235 7.304 201.746 7.139 201.104 7.139C200.456 7.139 199.961 7.304 199.619 7.634C199.283 7.964 199.115 8.408 199.115 8.966C199.115 9.236 199.157 9.485 199.241 9.713C199.331 9.935 199.46 10.127 199.628 10.289C199.796 10.451 200.003 10.577 200.249 10.667C200.495 10.757 200.78 10.802 201.104 10.802ZM203.993 15.752C203.993 15.53 203.93 15.35 203.804 15.212C203.678 15.074 203.507 14.966 203.291 14.888C203.081 14.81 202.835 14.756 202.553 14.726C202.271 14.69 201.971 14.663 201.653 14.645C201.341 14.627 201.023 14.609 200.699 14.591C200.375 14.573 200.063 14.543 199.763 14.501C199.427 14.657 199.151 14.855 198.935 15.095C198.725 15.329 198.62 15.605 198.62 15.923C198.62 16.127 198.671 16.316 198.773 16.49C198.881 16.67 199.043 16.823 199.259 16.949C199.475 17.081 199.745 17.183 200.069 17.255C200.399 17.333 200.786 17.372 201.23 17.372C201.662 17.372 202.049 17.333 202.391 17.255C202.733 17.177 203.021 17.066 203.255 16.922C203.495 16.778 203.678 16.607 203.804 16.409C203.93 16.211 203.993 15.992 203.993 15.752ZM205.622 6.5V7.094C205.622 7.292 205.496 7.418 205.244 7.472L204.209 7.607C204.413 8.003 204.515 8.441 204.515 8.921C204.515 9.365 204.428 9.77 204.254 10.136C204.086 10.496 203.852 10.805 203.552 11.063C203.252 11.321 202.892 11.519 202.472 11.657C202.052 11.795 201.596 11.864 201.104 11.864C200.678 11.864 200.276 11.813 199.898 11.711C199.706 11.831 199.559 11.96 199.457 12.098C199.355 12.23 199.304 12.365 199.304 12.503C199.304 12.719 199.391 12.884 199.565 12.998C199.745 13.106 199.979 13.184 200.267 13.232C200.555 13.28 200.882 13.31 201.248 13.322C201.62 13.334 201.998 13.355 202.382 13.385C202.772 13.409 203.15 13.454 203.516 13.52C203.888 13.586 204.218 13.694 204.506 13.844C204.794 13.994 205.025 14.201 205.199 14.465C205.379 14.729 205.469 15.071 205.469 15.491C205.469 15.881 205.37 16.259 205.172 16.625C204.98 16.991 204.701 17.315 204.335 17.597C203.969 17.885 203.519 18.113 202.985 18.281C202.457 18.455 201.86 18.542 201.194 18.542C200.528 18.542 199.946 18.476 199.448 18.344C198.95 18.212 198.536 18.035 198.206 17.813C197.876 17.591 197.627 17.333 197.459 17.039C197.297 16.751 197.216 16.448 197.216 16.13C197.216 15.68 197.357 15.299 197.639 14.987C197.921 14.675 198.308 14.426 198.8 14.24C198.53 14.12 198.314 13.961 198.152 13.763C197.996 13.559 197.918 13.286 197.918 12.944C197.918 12.812 197.942 12.677 197.99 12.539C198.038 12.395 198.11 12.254 198.206 12.116C198.308 11.972 198.431 11.837 198.575 11.711C198.719 11.585 198.887 11.474 199.079 11.378C198.629 11.126 198.278 10.793 198.026 10.379C197.774 9.959 197.648 9.473 197.648 8.921C197.648 8.477 197.732 8.075 197.9 7.715C198.074 7.349 198.314 7.04 198.62 6.788C198.926 6.53 199.289 6.332 199.709 6.194C200.135 6.056 200.6 5.987 201.104 5.987C201.5 5.987 201.869 6.032 202.211 6.122C202.553 6.206 202.865 6.332 203.147 6.5H205.622Z" fill="white"/>
<path d="M208.79 7.463C208.988 7.241 209.198 7.04 209.42 6.86C209.642 6.68 209.876 6.527 210.122 6.401C210.374 6.269 210.638 6.17 210.914 6.104C211.196 6.032 211.499 5.996 211.823 5.996C212.321 5.996 212.759 6.08 213.137 6.248C213.521 6.41 213.839 6.644 214.091 6.95C214.349 7.25 214.544 7.613 214.676 8.039C214.808 8.465 214.874 8.936 214.874 9.452V15.257H213.263V9.452C213.263 8.762 213.104 8.228 212.786 7.85C212.474 7.466 211.997 7.274 211.355 7.274C210.881 7.274 210.437 7.388 210.023 7.616C209.615 7.844 209.237 8.153 208.889 8.543V15.257H207.278V6.14H208.241C208.469 6.14 208.61 6.251 208.664 6.473L208.79 7.463Z" fill="white"/>
<path d="M223.417 9.704C223.417 9.332 223.363 8.993 223.255 8.687C223.153 8.375 223 8.108 222.796 7.886C222.598 7.658 222.355 7.484 222.067 7.364C221.779 7.238 221.452 7.175 221.086 7.175C220.318 7.175 219.709 7.4 219.259 7.85C218.815 8.294 218.539 8.912 218.431 9.704H223.417ZM224.713 13.979C224.515 14.219 224.278 14.429 224.002 14.609C223.726 14.783 223.429 14.927 223.111 15.041C222.799 15.155 222.475 15.239 222.139 15.293C221.803 15.353 221.47 15.383 221.14 15.383C220.51 15.383 219.928 15.278 219.394 15.068C218.866 14.852 218.407 14.54 218.017 14.132C217.633 13.718 217.333 13.208 217.117 12.602C216.901 11.996 216.793 11.3 216.793 10.514C216.793 9.878 216.889 9.284 217.081 8.732C217.279 8.18 217.561 7.703 217.927 7.301C218.293 6.893 218.74 6.575 219.268 6.347C219.796 6.113 220.39 5.996 221.05 5.996C221.596 5.996 222.1 6.089 222.562 6.275C223.03 6.455 223.432 6.719 223.768 7.067C224.11 7.409 224.377 7.835 224.569 8.345C224.761 8.849 224.857 9.425 224.857 10.073C224.857 10.325 224.83 10.493 224.776 10.577C224.722 10.661 224.62 10.703 224.47 10.703H218.377C218.395 11.279 218.473 11.78 218.611 12.206C218.755 12.632 218.953 12.989 219.205 13.277C219.457 13.559 219.757 13.772 220.105 13.916C220.453 14.054 220.843 14.123 221.275 14.123C221.677 14.123 222.022 14.078 222.31 13.988C222.604 13.892 222.856 13.79 223.066 13.682C223.276 13.574 223.45 13.475 223.588 13.385C223.732 13.289 223.855 13.241 223.957 13.241C224.089 13.241 224.191 13.292 224.263 13.394L224.713 13.979Z" fill="white"/>
<path d="M228.346 7.967C228.634 7.343 228.988 6.857 229.408 6.509C229.828 6.155 230.341 5.978 230.947 5.978C231.139 5.978 231.322 5.999 231.496 6.041C231.676 6.083 231.835 6.149 231.973 6.239L231.856 7.436C231.82 7.586 231.73 7.661 231.586 7.661C231.502 7.661 231.379 7.643 231.217 7.607C231.055 7.571 230.872 7.553 230.668 7.553C230.38 7.553 230.122 7.595 229.894 7.679C229.672 7.763 229.471 7.889 229.291 8.057C229.117 8.219 228.958 8.423 228.814 8.669C228.676 8.909 228.55 9.185 228.436 9.497V15.257H226.825V6.14H227.743C227.917 6.14 228.037 6.173 228.103 6.239C228.169 6.305 228.214 6.419 228.238 6.581L228.346 7.967Z" fill="white"/>
</g>
<path d="M13.4391 4.35096C13.2996 4.57409 13.1509 4.74143 12.9928 4.85299C12.8441 4.96456 12.6488 5.02034 12.4071 5.02034C12.1933 5.02034 11.9609 4.95526 11.7098 4.8251C11.4681 4.68565 11.1892 4.53225 10.8731 4.3649C10.5663 4.19756 10.213 4.04881 9.81327 3.91865C9.4135 3.7792 8.95795 3.70947 8.44662 3.70947C7.56341 3.70947 6.90333 3.90006 6.46638 4.28123C6.03872 4.65311 5.82489 5.15979 5.82489 5.80128C5.82489 6.21035 5.95505 6.54968 6.21536 6.81929C6.47567 7.0889 6.81501 7.32133 7.23337 7.51656C7.66103 7.7118 8.14447 7.89309 8.68369 8.06043C9.23221 8.21848 9.79003 8.39977 10.3571 8.6043C10.9243 8.79954 11.4774 9.03196 12.0166 9.30157C12.5652 9.57118 13.0486 9.91517 13.467 10.3335C13.8946 10.7519 14.2386 11.2632 14.4989 11.8675C14.7592 12.4625 14.8894 13.183 14.8894 14.0291C14.8894 14.968 14.7267 15.8466 14.4013 16.6647C14.0759 17.4829 13.6018 18.1987 12.9789 18.8123C12.3653 19.4166 11.6029 19.8954 10.6918 20.2487C9.79003 20.5927 8.76272 20.7647 7.6099 20.7647C6.97771 20.7647 6.33157 20.6996 5.67149 20.5694C5.02071 20.4393 4.38852 20.258 3.77492 20.0256C3.16132 19.7839 2.58491 19.5003 2.04569 19.1749C1.99294 19.1431 1.94085 19.1109 1.88944 19.0783C1.09893 18.578 0.992713 17.5255 1.49304 16.7349L2.03175 15.8838C2.14331 15.7257 2.28741 15.5956 2.46405 15.4933C2.64999 15.3818 2.84987 15.326 3.0637 15.326C3.34261 15.326 3.62152 15.4143 3.90043 15.5909C4.18863 15.7676 4.50938 15.9628 4.86266 16.1766C5.22524 16.3905 5.63895 16.5857 6.1038 16.7624C6.56864 16.939 7.11716 17.0273 7.74935 17.0273C8.60467 17.0273 9.2694 16.8414 9.74354 16.4695C10.2177 16.0883 10.4548 15.4887 10.4548 14.6705C10.4548 14.1964 10.3246 13.8106 10.0643 13.5131C9.80397 13.2156 9.45999 12.9692 9.03233 12.774C8.61397 12.5787 8.13518 12.4067 7.59595 12.258C7.05673 12.1092 6.50357 11.9465 5.93645 11.7699C5.36934 11.584 4.81617 11.3608 4.27695 11.1005C3.73773 10.8309 3.25429 10.4823 2.82663 10.0546C2.40827 9.61767 2.06893 9.07845 1.80862 8.43696C1.54831 7.78617 1.41815 6.98664 1.41815 6.03835C1.41815 5.276 1.57155 4.53225 1.87835 3.80709C2.18514 3.08193 2.63605 2.43579 3.23105 1.86868C3.82605 1.30157 4.55586 0.850668 5.42047 0.515978C6.28509 0.171993 7.27521 0 8.39084 0C9.01373 0 9.61803 0.0511332 10.2037 0.1534C10.7987 0.246369 11.3612 0.390471 11.8911 0.585705C12.4211 0.771645 12.9138 0.999419 13.3693 1.26903V1.26903C14.1566 1.7099 14.3133 2.71698 13.8876 3.51257L13.4391 4.35096Z" fill="white"/>
<path d="M34.6252 12.774L32.7425 7.20976C32.6031 6.85648 32.4543 6.44277 32.2963 5.96862C32.1382 5.48519 31.9802 4.96456 31.8221 4.40674C31.6827 4.97385 31.5339 5.49913 31.3759 5.98257C31.2178 6.46601 31.0691 6.88437 30.9296 7.23765L29.061 12.774H34.6252ZM42.1138 20.5416H38.4601C38.0511 20.5416 37.721 20.4486 37.47 20.2626C37.219 20.0674 37.0284 19.821 36.8983 19.5235L34.6252 12.774H29.061L26.7739 19.5235C26.6716 19.7839 26.4857 20.0209 26.2161 20.2348C25.9558 20.4393 25.6304 20.5416 25.2399 20.5416H21.5583L29.4235 0.223127H31.8361H34.2486L42.1138 20.5416Z" fill="white"/>
<path d="M55.151 20.5416H50.4096V10.3823V5.30273V0.223127H55.151V20.5416Z" fill="white"/>
<path d="M72.5136 4.48242L82.9999 4.48242L82.9999 14.9688M82.2717 5.21064L69.269 18.3475" stroke="#007AFF" stroke-width="3" stroke-linecap="round" stroke-linejoin="round"/>
</svg>
