<svg width="63" height="24" viewBox="0 0 63 24" fill="none" xmlns="http://www.w3.org/2000/svg">
<path d="M14.688 4.992C14.528 5.248 14.3573 5.44 14.176 5.568C14.0053 5.696 13.7813 5.76 13.504 5.76C13.2587 5.76 12.992 5.68533 12.704 5.536C12.4267 5.376 12.1067 5.2 11.744 5.008C11.392 4.816 10.9867 4.64533 10.528 4.496C10.0693 4.336 9.54667 4.256 8.96 4.256C7.94667 4.256 7.18933 4.47467 6.688 4.912C6.19733 5.33867 5.952 5.92 5.952 6.656C5.952 7.12533 6.10133 7.51467 6.4 7.824C6.69867 8.13333 7.088 8.4 7.568 8.624C8.05867 8.848 8.61333 9.056 9.232 9.248C9.86133 9.42933 10.5013 9.63733 11.152 9.872C11.8027 10.096 12.4373 10.3627 13.056 10.672C13.6853 10.9813 14.24 11.376 14.72 11.856C15.2107 12.336 15.6053 12.9227 15.904 13.616C16.2027 14.2987 16.352 15.1253 16.352 16.096C16.352 17.1733 16.1653 18.1813 15.792 19.12C15.4187 20.0587 14.8747 20.88 14.16 21.584C13.456 22.2773 12.5813 22.8267 11.536 23.232C10.5013 23.6267 9.32267 23.824 8 23.824C7.27467 23.824 6.53333 23.7493 5.776 23.6C5.02933 23.4507 4.304 23.2427 3.6 22.976C2.896 22.6987 2.23467 22.3733 1.616 22C1.48687 21.9221 1.36123 21.8423 1.23907 21.7607C0.461231 21.2408 0.355506 20.1903 0.855838 19.3998L1.6 18.224C1.728 18.0427 1.89333 17.8933 2.096 17.776C2.30933 17.648 2.53867 17.584 2.784 17.584C3.104 17.584 3.424 17.6853 3.744 17.888C4.07467 18.0907 4.44267 18.3147 4.848 18.56C5.264 18.8053 5.73867 19.0293 6.272 19.232C6.80533 19.4347 7.43467 19.536 8.16 19.536C9.14133 19.536 9.904 19.3227 10.448 18.896C10.992 18.4587 11.264 17.7707 11.264 16.832C11.264 16.288 11.1147 15.8453 10.816 15.504C10.5173 15.1627 10.1227 14.88 9.632 14.656C9.152 14.432 8.60267 14.2347 7.984 14.064C7.36533 13.8933 6.73067 13.7067 6.08 13.504C5.42933 13.2907 4.79467 13.0347 4.176 12.736C3.55733 12.4267 3.00267 12.0267 2.512 11.536C2.032 11.0347 1.64267 10.416 1.344 9.68C1.04533 8.93333 0.896 8.016 0.896 6.928C0.896 6.05333 1.072 5.2 1.424 4.368C1.776 3.536 2.29333 2.79467 2.976 2.144C3.65867 1.49333 4.496 0.975999 5.488 0.591999C6.48 0.197333 7.616 0 8.896 0C9.61067 0 10.304 0.0586669 10.976 0.176001C11.6587 0.282667 12.304 0.448 12.912 0.671999C13.52 0.885333 14.0853 1.14667 14.608 1.456C14.6698 1.49059 14.7307 1.52575 14.7909 1.56148C15.5742 2.02648 15.732 3.04073 15.3023 3.84391L14.688 4.992Z" fill="black"/>
<path d="M38.9955 14.656L36.8355 8.272C36.6755 7.86667 36.5048 7.392 36.3235 6.848C36.1422 6.29333 35.9608 5.696 35.7795 5.056C35.6195 5.70667 35.4488 6.30933 35.2675 6.864C35.0862 7.41867 34.9155 7.89867 34.7555 8.304L32.6115 14.656H38.9955ZM47.5875 23.568H43.3955C42.9262 23.568 42.5475 23.4613 42.2595 23.248C41.9715 23.024 41.7528 22.7413 41.6035 22.4L38.9955 14.656H32.6115L29.9875 22.4C29.8702 22.6987 29.6568 22.9707 29.3475 23.216C29.0488 23.4507 28.6755 23.568 28.2275 23.568H24.0035L33.0275 0.256001H35.7955H38.5635L47.5875 23.568Z" fill="black"/>
<path d="M62.5455 23.568H57.1055V11.912V6.084V0.256001H62.5455V23.568Z" fill="black"/>
</svg>
