<svg width="500" height="375" viewBox="0 0 500 375" fill="none" xmlns="http://www.w3.org/2000/svg">
<g clip-path="url(#clip0_116_644)">
<path fill-rule="evenodd" clip-rule="evenodd" d="M148.624 331.066C148.601 331.056 148.579 331.046 148.556 331.035C148.632 331.176 148.652 331.164 148.624 331.066Z" fill="#007BFE" fill-opacity="0.1"/>
<path d="M40.9191 218.073C41.812 221.131 43.6112 224.244 43.4338 227.239C42.8152 237.683 50.2755 244.984 53.3386 253.963C54.7805 258.19 58.5369 261.552 55.4667 266.513C50.2852 267.357 46.5752 265.101 46.0701 260.335C45.7498 257.311 45.7381 254.148 50.022 252.854C44.7509 241.941 39.3992 230.861 33.6843 219.029C25.6418 230.035 25.7268 240.766 30.3133 252.267C21.0923 254.573 16.2953 260.713 13.9587 269.317C12.675 274.044 12.1235 274.055 9.16406 270.259C9.44203 269.582 9.57151 269.459 9.70099 269.335C10.8332 267.129 12.2324 265.016 13.0431 262.697C14.8294 257.588 16.0592 252.675 12.3785 247.427C9.64466 243.529 12.2647 237.892 16.671 235.569C17.6356 235.06 18.221 233.832 18.981 232.935C18.1017 232.527 16.9892 232.33 16.3914 231.667C15.1217 230.261 13.8776 228.727 13.0799 227.03C12.3601 225.499 12.2488 223.682 11.1877 222.065C11.0643 224.252 10.9408 226.439 10.8174 228.625C10.3276 229.05 9.83775 229.474 9.34792 229.898C8.93675 229.017 8.52557 228.137 8.06937 227.16C8.25964 228.474 8.47642 229.972 8.89226 232.846C5.90604 230.627 3.69428 228.984 1.24126 227.67C1 215.979 1 203.958 1.37868 191.469C2.48638 191.462 3.65928 191.776 3.86984 192.41C4.94992 195.66 5.43286 199.143 6.77341 202.266C9.64328 208.951 12.8884 215.477 16.0326 222.043C16.8645 223.78 17.8883 225.425 19.3483 228.058C19.984 224.224 20.4987 221.837 20.7599 219.422C21.9931 208.023 24.1592 196.849 16.845 186.025C11.8799 178.677 9.0002 169.906 5.32929 161.707C4.33484 159.486 3.33429 158.327 1 160C1 107.073 1 54.1455 1 1C54.0207 1 107.042 1 160.531 1C157.048 4.66682 153.096 8.33364 149.553 11.6208C152.2 18.2427 157.296 16.8102 161.132 17.8977C164.154 18.7545 168.205 17.622 170.434 19.2465C173.749 21.662 179.977 18.9469 181.301 26.0879C175.269 25.2529 169.77 24.4916 164.271 23.7303C164.238 23.9503 164.205 24.1703 164.172 24.3903C169.419 25.696 174.665 27.0017 179.912 28.3074C179.912 28.7096 179.911 29.1119 179.91 29.5141C177.638 29.7703 175.365 30.0264 171.723 30.4368C177.986 31.3817 182.191 33.9228 188.058 32.4318C193.186 31.1287 199.24 33.4668 205.028 34.2149C203.685 37.1188 203.685 37.1188 187.911 35.2417C188.942 35.8279 189.911 36.7309 191.016 36.95C199.817 38.6963 208.647 40.296 217.462 41.974C226.288 43.6539 235.083 45.5041 243.933 47.0362C252.46 48.5122 261.071 49.5086 269.592 51.0122C289.862 54.5888 310.108 58.3071 330.34 62.0927C331.777 62.3614 333.024 63.6445 334.359 64.456C334.137 65.0768 333.916 65.6976 333.695 66.3185C327.43 65.517 321.101 65.0491 314.914 63.8466C300.83 61.1092 286.883 57.6302 272.755 55.1662C258.404 52.6633 243.9 51.043 229.47 48.9872C218.182 47.3792 206.927 45.5182 195.609 44.1787C192.96 43.8651 188.344 41.7415 188.462 47.9528C185.936 47.7957 182.545 49.0265 183.818 44.1963C183.66 44.1621 183.292 43.9559 183.022 44.0449C181.214 44.6389 179.427 45.2959 177.633 45.9324C179.048 47.2777 180.256 49.3973 181.912 49.8408C191.68 52.456 198.068 60.0891 204.834 66.3989C210.274 71.4725 217.004 71.318 222.695 74.6251C228.83 78.1902 236.502 79.2168 242.411 83.0392C251.207 88.7296 261.419 89.5339 270.687 93.3298C271.728 93.7565 272.773 94.3787 273.556 95.1679C274.153 95.7689 274.339 96.7782 274.708 97.6059C273.749 97.8448 272.66 98.5062 271.851 98.258C262.493 95.3896 253.17 92.4059 243.852 89.4082C232.567 85.7778 221.318 82.0352 210.003 78.5023C207.385 77.6849 204.576 77.3475 201.829 77.1545C200.921 77.0907 199.839 78.0631 199.006 78.7632C197.982 79.6239 197.135 80.6955 196.576 81.2886C200.455 84.4757 204.55 88.206 209.025 91.404C212.8 94.1021 216.949 96.3107 221.056 98.5043C226.419 101.369 231.89 104.033 237.344 106.724C239.099 107.59 241.079 108.06 242.712 109.095C244.161 110.012 245.273 111.461 246.533 112.676C246.216 113.185 245.898 113.694 245.581 114.203C240.732 112.593 235.883 110.984 231.034 109.374C230.785 109.892 230.536 110.411 230.287 110.929C232.868 112.806 236.067 114.212 237.922 116.643C245.45 126.507 256.565 130.232 267.281 134.755C268.346 135.205 269.215 136.12 270.176 136.819C269.968 137.252 269.76 137.685 269.552 138.118C266.641 137.082 263.73 136.047 260.325 134.704C259.391 134.35 258.95 134.304 258.51 134.258C258.779 134.733 259.047 135.208 259.316 135.683C263.089 137.858 266.862 140.033 269.327 141.454C272.093 139.96 273.748 139.066 275.702 138.011C275.702 137.79 275.702 136.959 275.702 135.651C280.764 137.491 285.481 139.205 290.173 140.91C297.922 134.292 314.507 135.746 321.326 144.859C323.508 147.774 323.208 149.416 319.872 151.882C315.273 155.281 310.281 155.062 303.84 155.017C309.907 158.726 314.593 161.59 319.279 164.455C318.964 165.092 318.649 165.728 318.333 166.365C307.043 161.3 295.753 156.235 284.463 151.169C284.17 151.538 283.877 151.906 283.585 152.275C286.015 154.633 288.19 157.355 290.926 159.278C297.603 163.971 304.501 168.355 311.381 172.752C321.114 178.973 330.912 185.094 340.798 191.61C340.915 191.963 340.889 191.86 340.889 191.86C339.677 191.933 338.18 192.503 337.299 191.999C330.774 188.262 324.468 184.138 317.897 180.488C313.434 178.009 308.563 176.273 304.047 173.878C300.639 172.071 297.114 170.166 294.322 167.572C286.358 160.17 276.701 158.646 265.202 158.423C272.457 162.727 278.699 166.431 284.941 170.134C284.711 170.55 284.482 170.966 284.253 171.382C278.642 168.932 272.791 164.117 267.484 164.656C261.433 165.271 255.967 156.706 249.989 164.248C252.355 166.403 254.804 168.634 257.253 170.865C257.048 171.233 256.842 171.6 256.637 171.968C250.207 169.061 244.841 162.536 235.945 165.713C241.871 170.608 247.514 175.269 253.158 179.929C242.494 176.891 232.964 172.478 225.899 163.661C223.336 160.463 219.157 158.575 215.791 155.99C215.083 155.447 214.708 154.471 214.179 153.694C215.193 153.714 216.398 153.383 217.186 153.815C220.253 155.496 223.188 157.419 226.172 159.252C226.542 158.853 226.911 158.454 227.28 158.055C224.773 155.122 222.336 152.124 219.733 149.278C217.863 147.232 216.532 145.522 221.516 144.431C215.976 140.69 211.001 137.329 206.026 133.968C205.753 134.258 205.48 134.547 205.206 134.837C205.784 136.396 206.362 137.955 207.388 140.724C199.786 135.029 193.204 130.098 186.622 125.166C186.346 125.414 186.07 125.661 185.795 125.909C186.807 127.22 187.819 128.531 189.17 130.282C187.585 130.7 186.202 131.065 184.926 131.402C186.416 132.907 187.906 134.413 189.396 135.919C188.991 136.3 188.587 136.68 188.182 137.06C182.412 133.154 176.356 129.531 173.784 122.16C173.747 122.993 173.709 123.826 173.613 125.978C164.053 116.549 153.801 109.681 140.697 106.374C142.338 109.324 143.703 111.778 145.068 114.232C144.763 114.581 144.457 114.931 144.152 115.28C141.449 113.162 138.746 111.045 136.043 108.928C135.735 109.176 135.428 109.424 135.12 109.672C137.287 112.489 139.393 115.356 141.639 118.109C143.826 120.789 146.232 123.292 148.363 126.013C148.81 126.583 148.478 127.764 148.505 128.664C147.623 128.302 146.448 128.186 145.907 127.539C142.197 123.111 138.62 118.572 135 114.068C134.608 114.351 134.215 114.634 133.823 114.917C134.525 116.403 135.227 117.889 136.213 119.975C134.64 119.64 133.668 119.434 132.605 119.207C132.64 119.616 132.582 119.919 132.696 120.131C136.943 128.066 141.299 135.945 145.409 143.951C146.587 146.245 147.059 148.902 147.854 151.393C147.375 151.629 146.895 151.864 146.416 152.1C144.939 151.22 143.22 150.588 142.026 149.419C132.876 140.466 123.83 131.406 114.747 122.384C113.395 121.041 112.184 119.444 110.589 118.503C109.703 117.979 108.039 118.295 106.963 118.77C106.423 119.009 105.958 120.642 106.241 121.317C108.037 125.596 110.222 129.716 111.939 134.023C113.249 137.308 115.185 137.228 118.178 136.572C120.307 136.106 122.745 137.048 125.046 137.362C125.089 137.952 125.132 138.543 125.176 139.134C124.119 139.952 123.062 140.77 122.177 141.456C123.398 142.044 124.803 142.72 126.207 143.397C125.991 143.896 125.775 144.396 125.559 144.896C123.566 144.576 121.573 144.256 118.231 143.72C120.155 146.786 121.463 148.869 122.971 151.272C122.183 151.592 121.37 151.922 120.035 152.463C125.257 160.716 130.447 168.918 135.777 177.344C131.617 178.322 132.939 180.837 134.684 183.2C137.03 186.375 137.997 190.768 141.727 192.759C147.296 205.936 150.914 207.936 164.176 204.207C164.634 204.973 167.252 205.546 171.773 206.629C170.573 207.358 169.372 208.088 168.132 208.841C172.171 214.981 176.207 221.116 180.244 227.251C179.998 227.414 179.752 227.578 179.507 227.741C177.355 225.791 175.203 223.841 172.378 221.28C172.137 224.227 171.968 226.284 171.771 228.701C170.608 228.752 169.405 228.805 169.039 228.821C167.708 231.92 166.517 234.695 165.124 237.939C162.451 235.46 159.632 232.846 156.813 230.232C156.314 230.426 155.816 230.62 155.318 230.814C156.291 235.759 157.263 240.703 158.162 245.272C155.167 243.066 152.374 236.55 152.93 232.679C153.094 231.534 153.055 230.346 152.983 229.185C152.843 226.913 153.41 223.889 149.24 225.785C148.737 226.013 147.467 224.556 146.553 223.88C147.278 223.616 148.003 223.353 149.117 222.948C147.876 219.012 146.47 214.895 145.347 210.702C145.118 209.847 145.956 208.708 146.087 208.326C144.279 205.96 142.133 203.722 140.653 201.108C135.973 192.847 132.001 184.148 126.867 176.192C122.91 170.057 117.616 164.786 112.916 159.131C112.437 159.434 111.959 159.737 111.48 160.041C117.253 171.162 123.026 182.283 128.836 193.475C125.343 192.465 125.092 192.046 117.049 176.276C113.702 169.713 110.221 163.218 106.745 156.584C103.18 158.461 111.298 163.937 103.115 164.428C106.16 169.858 108.877 174.703 111.593 179.548C111.398 179.777 111.202 180.007 111.006 180.237C108.699 177.579 106.391 174.921 103.455 171.538C103.089 173.568 102.886 174.698 102.385 177.478C100.992 174.742 100.253 173.292 99.4324 171.682C99.1744 172.64 98.9325 173.538 98.4545 175.312C96.8622 172.948 95.5973 171.07 93.5844 168.082C93.5844 171.869 93.5844 174.789 93.5844 178.592C91.6585 175.91 90.1702 173.838 88.5586 171.594C86.0601 178.778 91.1227 182.341 95.1526 187.703C94.2779 184.518 93.7177 182.478 92.85 179.318C99.743 183.967 97.0982 194.292 104.958 196.749C115.774 215.749 133.204 229.711 146.024 247.903C143.235 247.532 140.922 247.726 139.145 246.842C137.511 246.029 135.402 244.106 135.33 242.586C135.04 236.471 134.816 235.861 128.888 233.768C128.168 233.513 127.807 232.289 127.24 231.544C122.105 224.802 117.737 217.208 111.553 211.625C107.262 207.75 104.149 203.457 100.935 198.934C95.7913 191.696 90.0068 184.046 81.9007 181.149C75.6011 178.897 71.8198 174.472 66.7221 170.54C64.833 178.369 64.0057 185.23 71.6074 189.621C71.8222 189.161 71.7222 189.032 71.7222 189.032C72.92 191.2 74.1178 193.369 75.6599 195.278C76.0041 195.018 75.9177 194.942 75.9177 194.942C76.9211 196.76 77.6641 198.796 78.9723 200.359C85.1002 207.679 91.5493 214.735 97.547 222.158C100.921 226.333 103.642 231.037 106.657 235.503C106.256 235.813 105.856 236.123 105.456 236.434C91.9602 220.398 78.4648 204.363 64.2333 187.453C62.4705 196.221 60.9049 204.008 59.3393 211.795C58.8041 211.752 58.2689 211.71 57.7336 211.668C58.3874 202.588 59.0411 193.509 59.7243 184.021C58.1194 184.935 56.7148 185.734 55.0514 186.68C55.6591 188.163 56.3082 189.747 56.9572 191.33C56.5382 191.67 56.1191 192.011 55.7 192.351C51.7593 187.722 47.8185 183.093 43.7421 178.304C41.4014 181.071 40.4994 183.8 42.8542 187.866C52.4428 204.424 61.6377 221.21 70.9785 237.911C72.3085 240.29 73.5506 241.86 77.0652 241.797C85.2917 241.647 87.9489 247.553 89.0033 255.899C89.4967 259.805 90.0291 263.706 90.5439 267.61C91.1006 267.588 91.6574 267.566 92.2142 267.545C92.7911 265.083 93.7455 262.637 93.8532 260.155C94.0007 256.755 95.5336 254.499 97.926 252.306C98.5666 251.719 98.2694 249.296 97.5904 248.236C95.6533 245.212 93.2376 242.499 91.1442 239.568C90.5173 238.69 90.3307 237.498 90.4864 235.908C96.7305 245.428 103.343 253.414 116.233 247.418C116.233 250.933 114.826 255.685 116.594 258.236C118.749 261.346 123.573 262.606 127.359 264.731C125.532 273.236 124.164 273.825 117.934 268.719C116.063 269.73 114.311 270.678 112.275 271.778C112.423 272.55 112.64 273.684 112.804 274.537C109.77 273.69 106.921 272.894 104.073 272.099C102.237 275.326 102.899 277.252 105.609 278.641C106.124 278.906 106.566 279.398 106.888 279.886C106.959 279.994 106.322 280.86 106.101 280.825C100.528 279.925 102.854 285.032 102.344 286.834C101.418 290.107 102.449 293.933 102.65 297.315C98.0079 298.577 93.5575 299.42 89.4215 295.297C86.6524 292.536 83.7872 289.809 85.1397 285.953C87.2098 280.05 82.4794 276.105 82.2903 271.177C80.7037 271.317 78.7135 271.877 78.4715 271.449C77.3693 269.498 76.7586 267.269 75.8135 264.714C73.0616 262.344 69.5923 259.665 66.5591 256.559C65.6307 255.609 66.2104 253.344 65.5534 251.936C64.2377 249.116 65.4867 248.932 67.7318 249.38C68.117 246.141 69.936 242.097 68.6452 239.8C62.2474 228.415 55.0991 217.446 48.0624 206.428C45.5313 202.465 42.5729 198.775 38.9105 193.72C38.9105 199.272 38.0709 203.714 39.1433 207.634C40.247 211.668 43.2149 215.192 44.6237 219.546C43.81 218.949 42.9963 218.352 41.7354 217.277C40.467 215.313 39.6457 213.828 38.8244 212.343C38.5114 212.527 38.1984 212.71 37.8854 212.894C38.8966 214.62 39.9079 216.346 40.9191 218.073ZM190.648 123.262C189.852 122.97 189.055 122.678 188.258 122.385C188.146 122.6 188.033 122.814 187.92 123.028C188.719 123.58 189.518 124.132 190.794 125.207C192.561 126.199 194.328 127.19 196.096 128.181C196.344 127.674 196.593 127.167 196.841 126.66C194.917 125.746 192.993 124.831 190.648 123.262ZM85.6676 164.089C86.0365 164.204 86.4054 164.319 86.7743 164.435C86.5434 163.932 86.3126 163.429 86.0154 162.136C84.5322 158.367 83.0491 154.598 81.52 150.713C79.6757 155.494 79.8579 156.1 85.6676 164.089ZM140.667 144.089C141.036 144.204 141.405 144.32 141.774 144.435C141.543 143.932 141.312 143.43 141.012 142.177C138.91 138.564 136.807 134.952 134.332 130.911C133.963 130.796 133.594 130.681 133.226 130.566C133.457 131.068 133.688 131.571 134.008 132.797C136.103 136.418 138.199 140.04 140.667 144.089ZM75.9394 164.451C75.1939 161.008 74.4484 157.565 73.703 154.121C73.1592 154.205 72.6154 154.289 72.0717 154.372C71.2457 155.89 70.4198 157.408 69.4952 159.106C71.591 161.15 73.6978 163.204 76.3335 165.769C77.2326 166.454 78.3578 166.977 78.9879 167.855C80.8095 170.393 82.4318 173.074 84.1324 175.699C84.7775 175.356 85.4226 175.012 86.0678 174.669C84.1998 170.483 82.3318 166.297 80.8301 162.931C78.3732 164.108 77.0282 164.752 75.9394 164.451ZM183.831 103.395C183.39 103.35 182.95 103.304 182.509 103.258C182.778 103.733 183.047 104.208 183.764 105.194C186.554 107.827 189.401 110.403 192.101 113.126C192.973 114.005 194.049 115.289 194.015 116.354C193.854 121.275 197.475 122.6 200.835 124.506C202.083 125.214 202.699 127.036 204.144 129.137C209.282 132.857 215.387 137.277 220.55 141.016C222.619 137.921 223.87 134.624 226.254 132.868C228.841 130.963 232.483 130.493 235.73 129.374C232.939 126.095 230.529 121.563 226.762 119.162C215.922 112.255 215.706 112.594 215.535 109.583C220.594 111.896 225.374 114.081 230.155 116.267C230.4 115.863 230.645 115.459 230.89 115.055C226.471 111.788 222.292 108.108 217.571 105.36C211.697 101.941 206.492 98.0718 201.743 93.0835C198.327 89.4968 193.086 87.5534 188.481 85.2302C185.639 83.7962 181.985 83.6561 179.546 81.8111C175.749 78.9391 171.036 77.8858 166.387 80.4087C167.934 81.9087 173.125 82.8278 167.123 85.911C183.535 100.651 204.713 109.119 219.108 127.475C217.387 127.273 215.62 127.59 215.082 126.92C210.905 121.716 203.626 121.075 199.374 115.974C197.999 114.323 194.923 113.661 194.263 111.924C192.384 106.982 187.941 105.946 183.831 103.395ZM21.459 174.962C22.3659 177.35 23.2729 179.738 24.1798 182.126C28.6559 180.057 27.553 185.314 29.6745 186.347C32.2389 180.942 28.0136 170.702 19.6371 163.862C20.21 168.04 20.6356 171.142 21.459 174.962ZM36.499 168C36.9585 162.528 32.3347 160.509 28.8375 156.165C27.6884 163.82 31.0874 168.546 34.6337 173.589C35.1889 171.718 35.6454 170.179 36.499 168ZM150.79 20.9486C149.467 21.4046 148.145 21.8605 146.822 22.3165C147.024 22.8157 147.227 23.3149 147.429 23.8141C151.952 24.3534 156.576 28.0387 160.583 23.5924C157.716 22.8122 154.633 21.9737 150.79 20.9486ZM204.632 133.141C203.702 132.747 202.772 132.353 201.842 131.958C201.748 132.498 201.655 133.037 201.561 133.576C202.751 133.658 203.94 133.739 204.632 133.141ZM200.605 130.119C199.681 129.731 198.757 129.343 197.833 128.955C197.73 129.495 197.627 130.035 197.524 130.575C198.716 130.645 199.907 130.716 200.605 130.119ZM171.646 118.22C171.696 119.284 171.746 120.347 171.796 121.41C172.189 121.375 172.582 121.339 172.975 121.303C172.807 120.283 172.64 119.262 171.646 118.22ZM281.538 148.676C280.717 147.763 279.897 146.85 279.076 145.936C278.792 146.264 278.508 146.591 278.224 146.918C279.097 147.619 279.969 148.321 281.538 148.676ZM232.066 117.927C232.416 117.718 232.766 117.509 233.116 117.3C232.526 117.01 231.936 116.72 231.345 116.43C231.356 116.865 231.366 117.301 232.066 117.927ZM187.952 121.845C187.315 121.648 186.678 121.45 186.041 121.252C185.992 121.439 185.944 121.626 185.896 121.813C186.5 122.053 187.104 122.292 187.952 121.845ZM119.827 150.592C119.659 150.936 119.492 151.28 119.324 151.623C119.614 151.692 119.904 151.76 120.194 151.828C120.238 151.573 120.283 151.317 119.827 150.592ZM133.536 113.643C133.181 113.332 132.826 113.021 132.471 112.71C132.613 113.13 132.755 113.549 133.536 113.643ZM110.827 157.592C110.659 157.936 110.492 158.28 110.324 158.623C110.614 158.691 110.904 158.76 111.194 158.828C111.239 158.573 111.283 158.317 110.827 157.592Z" fill="#007BFE" fill-opacity="0.1"/>
<path d="M1 160.4C3.33429 158.327 4.33484 159.486 5.32929 161.707C9.0002 169.906 11.8799 178.677 16.845 186.025C24.1592 196.849 21.9931 208.023 20.7599 219.422C20.4987 221.837 19.984 224.224 19.3483 228.058C17.8883 225.425 16.8645 223.78 16.0326 222.043C12.8884 215.477 9.64328 208.951 6.77341 202.266C5.43286 199.143 4.94992 195.66 3.86984 192.41C3.65928 191.776 2.48638 191.462 1.37868 191.001C1 189.286 1 187.571 1.38066 185.427C3.32924 184.112 4.89715 183.228 6.14766 182.522C10.9438 189.773 12.005 199.128 18.3336 205.803C14.5869 190.977 9.27562 176.866 1 164C1 162.933 1 161.867 1 160.4Z" fill="#007BFE" fill-opacity="0.1"/>
<path d="M501 95.625C489.587 93.9651 478.18 91.9004 466.761 89.9024C451.527 87.237 436.27 84.7005 421.05 81.9563C412.862 80.4799 404.759 78.5214 396.566 77.0752C386.105 75.2287 375.589 73.695 365.102 71.9968C359.109 71.0265 353.107 70.0958 347.148 68.9458C344.777 68.4883 341.831 68.1905 342.154 63.7963C395.099 73.7329 447.675 83.6001 500.625 93.2337C501 93.7501 501 94.5 501 95.625Z" fill="#007BFE" fill-opacity="0.1"/>
<path d="M1 164.469C9.27562 176.866 14.5869 190.977 18.3336 205.803C12.005 199.128 10.9438 189.773 6.14766 182.522C4.89715 183.228 3.32924 184.112 1.38066 184.998C1 178.312 1 171.625 1 164.469Z" fill="#007BFE" fill-opacity="0.1"/>
<path d="M1 321.469C1.66569 320.089 2.75395 319.254 2.9326 318.255C5.03386 306.515 6.96961 294.745 9.03258 282.998C9.32633 281.325 10.0628 279.73 10.5944 278.099C11.1233 278.208 11.6521 278.316 12.1809 278.425C8.69393 300.147 5.20692 321.869 1.35996 343.796C0.999997 336.646 0.999997 329.292 1 321.469Z" fill="#007BFE" fill-opacity="0.1"/>
<path d="M121.416 376C120.359 374.755 119.7 373.519 119.08 372.264C117.685 369.435 116.813 366.162 120.245 364.745C121.495 364.228 124.963 366.494 125.796 368.257C126.686 370.143 125.662 372.934 125.736 375.665C124.611 376 123.222 376 121.416 376Z" fill="#007BFE" fill-opacity="0.1"/>
<path d="M246.167 327C247.023 321.397 247.879 315.794 248.67 310.623C244.943 308.286 241.204 305.941 237.269 303.473C237.227 303.602 236.886 304.641 236.523 305.749C232.925 305.986 229.337 306.223 225.336 306.486C227.554 299.909 220.957 296.142 219.8 290.747C218.848 286.307 220.436 280.618 222.668 276.424C224.388 273.191 228.867 272.065 233.247 273.552C237.52 275.004 242.085 275.251 244.919 279.904C245.617 281.05 249.799 280.075 252.797 280.075C252.901 278.423 252.646 277.197 253.1 276.352C254.077 274.529 255.449 271.431 256.606 271.454C261.048 271.545 265.476 272.622 269.893 273.424C271.208 273.663 273.009 274.962 273.667 274.491C278.33 271.149 282.376 272.939 285.549 276.266C289.019 279.904 291.685 284.308 295.457 289.399C293.077 288.27 291.808 287.668 289.783 286.708C290.814 289.126 291.5 290.736 292.582 293.276C283.947 291.673 276.413 290.79 272.722 282.282C272.27 281.238 268.844 281.484 266.796 281.132C266.566 281.536 266.337 281.939 266.107 282.343C269.716 286.831 273.315 291.327 276.945 295.798C277.532 296.521 278.685 297.053 278.825 297.812C279.066 299.119 278.716 300.535 278.526 303.107C283.169 307.372 283.598 309.287 280.193 314.682C278.212 312.97 276.193 311.225 274.174 309.479C273.736 309.834 273.298 310.189 272.86 310.544C273.845 313.728 274.83 316.912 275.778 319.976C274.545 320.736 273.261 321.529 271.437 322.654C270.058 321.421 268.131 319.699 265.071 316.965C264.546 320.545 264.163 323.161 263.577 327.155C261.778 324.028 260.404 321.685 259.077 319.316C258.115 317.599 258.015 314.829 254.646 316.533C254.088 316.814 252.438 314.933 251.143 313.936C250.19 317.943 249.198 322.117 247.741 326.646C246.907 327 246.537 327 246.167 327Z" fill="#007BFE" fill-opacity="0.1"/>
<path d="M61.6844 269.317C60.1235 266.647 58.7998 264.111 61.9175 261.414C62.6734 260.76 62.4243 258.944 62.7907 256.739C64.4006 258.858 65.8638 260.691 67.2214 262.599C68.4449 264.319 69.6349 266.074 70.6789 267.905C71.248 268.903 71.4829 270.091 71.8685 271.194C70.7356 271.449 69.6027 271.704 68.1473 272.031C68.8881 273.197 69.4945 274.684 70.5479 275.714C74.6112 279.686 76.1125 284.061 75.4745 289.983C75.144 293.05 78.1147 296.473 80.0477 300.735C79.6953 303.187 75.0877 306.125 78.1237 311.283C78.6885 312.243 75.241 315.895 73.2285 317.883C72.3906 318.71 70.4614 318.432 68.0441 318.811C66.5023 314.459 64.8381 309.762 63.1739 305.064C62.7936 304.38 62.4133 303.695 62.0329 303.011C60.8622 305.875 59.6915 308.738 58.5208 311.602C57.7717 311.02 57.0226 310.437 56.2735 309.854C56.2735 307.126 56.2735 304.399 56.2735 301.675C53.2807 301.706 45.7085 294.07 45.534 291.223C45.1975 285.732 44.9453 280.236 44.6582 274.742C45.1213 274.893 45.5845 275.044 46.0476 275.195C47.0653 273.788 47.879 272.136 49.1708 271.057C50.0652 270.311 51.641 270.422 52.8731 270.027C54.67 269.452 56.4316 268.767 58.6766 267.96C58.7781 268.096 59.482 269.037 60.6772 270.291C61.6089 270.65 62.0493 270.696 62.4897 270.742C62.2212 270.267 61.9528 269.792 61.6844 269.317Z" fill="#007BFE" fill-opacity="0.1"/>
<path d="M300.752 251.231C304.329 254.159 307.489 257.079 311.051 259.377C312.797 260.504 315.31 260.956 317.437 260.857C320.452 260.718 323.431 259.789 326.703 259.904C323.967 263.461 319.176 262.095 314.526 264.24C318.011 267.783 321.098 270.92 324.185 274.058C323.813 274.456 323.441 274.855 323.069 275.253C319.373 272.098 315.677 268.943 311.981 265.788C311.606 265.794 311.231 265.8 310.856 265.807C312.058 269.529 313.155 273.29 314.529 276.947C314.902 277.939 316.304 278.5 316.886 279.468C317.643 280.725 318.053 282.19 318.613 283.566C317.432 282.912 316.227 282.297 315.078 281.59C314.284 281.101 313.569 280.485 312.818 279.925C312.415 280.237 312.012 280.549 311.609 280.861C313.878 283.928 316.147 286.996 318.416 290.063C318.148 290.232 317.88 290.402 317.612 290.571C314.68 289.052 311.574 286.092 308.864 286.418C306.151 286.744 303.833 290.354 300.632 293.142C296.874 286.158 292.188 279.172 289.275 271.511C286.759 264.893 292.49 259.955 301.197 259.719C288.176 246.867 276.041 234.89 263.906 222.913C264.37 222.434 264.835 221.955 265.299 221.476C273.008 227.343 278.964 235.208 286.551 241.789C286.949 240.772 287.249 240.005 287.917 238.301C292.324 242.737 296.412 246.852 300.752 251.231ZM301.73 255.391C301.352 255.481 300.973 255.57 300.594 255.659C300.997 255.801 301.399 255.942 301.73 255.391Z" fill="#007BFE" fill-opacity="0.1"/>
<path d="M325.885 214.042C324.147 212.792 322.408 211.543 320.67 210.293C320.886 209.917 321.102 209.541 321.318 209.166C322.729 209.57 324.139 209.975 325.55 210.379C325.656 210.224 325.763 210.069 325.869 209.914C321.252 206.611 316.531 203.442 312.05 199.964C308.224 196.994 304.634 193.713 301.061 190.438C300.693 190.102 301.151 188.864 301.698 188.325C302.61 188.65 303.05 188.695 303.491 188.741C303.222 188.266 302.953 187.792 302.684 187.317C299.35 184.976 295.982 182.683 292.703 180.269C291.554 179.423 290.624 178.28 289.594 177.272C289.92 176.731 290.247 176.191 290.574 175.65C294.097 177.322 297.799 178.7 301.112 180.717C315.865 189.702 328.956 200.845 341.879 212.235C346.121 215.974 351.351 218.57 355.775 222.13C359.991 225.523 363.802 229.431 367.691 233.217C375.806 241.117 383.049 250.001 393.439 255.293C394.707 255.938 395.369 257.774 396.312 259.058C395.955 259.405 395.599 259.753 395.243 260.1C389.888 256.291 384.525 252.495 379.182 248.671C370.537 242.485 361.953 236.213 353.223 230.15C351.711 229.099 349.607 228.9 347.366 228.174C347.366 227.951 347.366 227.124 347.366 226.227C346.109 226.488 344.866 226.746 343.3 227.046C342.977 227.088 343.038 227.173 343.038 227.173C341.412 221.682 337.181 218.26 333.069 214.77C332.958 214.676 332.115 215.444 331.047 215.755C328.948 215.148 327.417 214.595 325.885 214.042ZM326.983 210.635C326.68 210.826 326.377 211.016 326.074 211.207C326.618 211.426 327.161 211.645 327.705 211.863C327.668 211.568 327.63 211.273 326.983 210.635Z" fill="#007BFE" fill-opacity="0.1"/>
<path d="M187.249 221.551C184.82 215.278 186.162 213.472 192.33 212.877C194.631 212.655 196.786 210.995 199.03 210.042C199.999 209.63 201.076 208.946 202.012 209.072C206.04 209.611 210.075 210.243 214.009 211.234C214.868 211.45 215.503 213.214 215.924 214.379C216.836 216.908 217.544 219.511 218.048 221.15C217.247 224.42 216.585 227.125 215.826 230.223C214.865 229.531 213.926 228.856 212.991 228.178C211.229 231.247 204.675 232.135 201.978 229.403C199.231 226.619 196.672 224.259 192.204 224.803C190.755 224.979 189.035 222.931 187.249 221.551Z" fill="#007BFE" fill-opacity="0.1"/>
<path d="M140.401 289.711C138.242 286.049 136.491 282.531 134.529 279.134C134.006 278.228 132.839 277.694 131.357 276.495C131.027 274.172 130.542 270.759 130.02 267.087C131.472 267.178 132.541 267.245 132.865 267.265C134.168 262.348 135.414 257.65 136.843 252.26C141.276 255.734 147.252 258.469 150.144 263.121C155.017 270.959 152.039 274.035 144.319 276.002C142.739 276.404 141.218 277.038 139.427 277.648C139.195 276.91 138.886 275.93 138.577 274.95C138.181 275.092 137.785 275.235 137.389 275.377C138.919 279.218 140.467 283.052 141.969 286.904C142.491 288.245 144.276 290.203 140.401 289.711Z" fill="#007BFE" fill-opacity="0.1"/>
<path d="M414.772 212.256C419.955 215.428 424.867 218.347 429.779 221.265C429.693 221.812 429.608 222.359 429.522 222.906C427.963 222.739 426.131 223.049 424.887 222.335C399.535 207.784 374.249 193.118 348.957 178.464C347.972 177.893 346.736 177.407 346.187 176.526C345.603 175.589 345.7 174.228 345.499 173.053C346.625 173.023 348.003 172.553 348.837 173.032C358.448 178.55 367.998 184.175 377.52 189.844C389.868 197.195 402.176 204.613 414.772 212.256Z" fill="#007BFE" fill-opacity="0.1"/>
<path d="M168.315 276.423C168.315 275.688 168.315 274.953 168.315 273.396C169.811 275.005 170.73 275.993 172.127 277.494C172.655 275.87 173.018 274.751 173.335 273.778C174.968 274.185 176.584 274.785 178.247 274.967C184.621 275.665 187.74 279.567 187.091 286.096C186.998 287.038 187.114 288.139 187.528 288.969C189.501 292.918 191.555 296.283 191.377 301.483C191.221 306.052 195.591 310.764 197.909 315.439C198.402 316.432 198.666 317.538 199.036 318.593C198.593 318.798 198.15 319.004 197.707 319.21C196.142 316.491 194.504 313.812 193.026 311.047C188.556 302.683 184.17 294.412 175.769 288.939C173.412 287.403 172.524 283.591 171 280.803C170.231 279.395 169.546 277.941 168.538 276.424C168.254 276.34 168.315 276.423 168.315 276.423ZM189.827 298.592C189.659 298.936 189.492 299.28 189.324 299.623C189.614 299.692 189.904 299.76 190.194 299.828C190.239 299.573 190.284 299.317 189.827 298.592Z" fill="#007BFE" fill-opacity="0.1"/>
<path d="M152.435 305.936C156.233 312.041 152.897 316.827 150.161 322.04C147.732 321.152 145.226 320.328 142.793 319.328C136.626 316.793 133.901 309.967 136.633 303.856C139.167 298.191 143.792 297.896 148.925 301.945C150.19 302.943 151.079 304.419 152.435 305.936Z" fill="#007BFE" fill-opacity="0.1"/>
<path d="M349.253 207.685C345.161 204.813 341.361 202.162 337.562 199.512C337.906 199.021 338.251 198.531 338.596 198.041C350.407 204.865 362.742 210.856 373.411 219.489C373.056 220.069 372.701 220.649 372.346 221.229C368.603 218.894 364.859 216.559 361.104 214.217C357.182 219.126 354.125 219.346 351.991 214.716C351.592 213.851 351.433 212.497 351.835 211.711C353.216 209.003 351.328 208.548 349.253 207.685Z" fill="#007BFE" fill-opacity="0.1"/>
<path d="M76.1657 334.725C76.2584 332.493 76.749 330.497 76.2336 328.808C74.9994 324.764 76.4747 320.238 79.8432 319.102C82.6573 318.153 87.436 321.291 87.948 324.585C88.5895 328.712 87.4611 332.834 81.7613 333.025C81.4327 333.036 81.1059 333.102 80.5419 333.171C79.9142 335.323 79.2568 337.577 78.5994 339.831C78.2321 339.899 77.8648 339.967 77.4975 340.035C77.0337 338.39 76.5699 336.745 76.1657 334.725Z" fill="#007BFE" fill-opacity="0.1"/>
<path d="M328.31 250.171C326.128 250.568 323.37 251.555 322.513 250.68C319.91 248.021 315.141 246.358 316.182 241.478C316.54 239.804 319.221 237.021 319.769 237.255C323.065 238.663 326.558 240.334 328.918 242.899C330.034 244.113 328.782 247.505 328.31 250.171Z" fill="#007BFE" fill-opacity="0.1"/>
<path d="M168.214 276.306C168.073 277.924 167.97 279.576 167.853 281.448C164.5 282.534 161.13 283.417 165.686 287.774C167.854 289.847 168.613 293.392 169.199 297.053C168.458 296.326 167.449 295.729 167.022 294.85C164.617 289.891 162.236 284.914 160.088 279.841C159.015 277.308 157.69 274.278 161.18 272.482C164.721 270.659 166.156 273.505 167.969 276.183C168.315 276.423 168.253 276.34 168.214 276.306Z" fill="#007BFE" fill-opacity="0.1"/>
<path d="M175.357 325.96C171.079 324.389 172.417 321.781 173.567 319.195C175.001 319.195 176.405 319.195 178.101 319.195C176.075 314.5 174.145 310.026 172.189 305.492C174.304 305.684 174.3 305.686 179.99 317.925C182.178 322.632 184.39 327.329 186.591 332.03C186.076 332.271 185.561 332.511 185.047 332.752C183.313 329.49 181.579 326.228 180.163 323.565C178.583 324.432 177.166 325.209 175.357 325.96Z" fill="#007BFE" fill-opacity="0.1"/>
<path d="M151.167 342C149.779 338.863 149.524 334.934 144.598 334.577C143.629 334.507 142.56 331.602 142.169 329.863C142.015 329.181 143.928 327.225 144.328 327.375C145.689 327.885 146.87 328.997 147.969 330.038C148.532 330.571 148.775 331.441 148.556 331.035C151.315 332.279 153.61 332.672 154.878 334.027C157.031 336.328 157.18 339.195 154.08 341.878C152.658 342.02 151.912 342.01 151.167 342Z" fill="#007BFE" fill-opacity="0.1"/>
<path d="M298.67 199.29C298.885 200.217 298.885 200.858 298.885 202.14C287.134 193.716 275.84 185.619 264.546 177.523C264.968 176.939 265.391 176.356 265.814 175.773C276.694 183.517 287.574 191.261 298.67 199.29Z" fill="#007BFE" fill-opacity="0.1"/>
<path d="M342.934 227.058C343.872 229.16 345.368 231.237 345.608 233.45C345.722 234.492 343.478 236.686 342.208 236.762C340.538 236.861 338.517 235.692 337.114 234.513C335.249 232.943 332.156 230.823 335.15 228.259C336.769 226.873 339.889 227.242 342.685 226.996C343.038 227.173 342.977 227.088 342.934 227.058Z" fill="#007BFE" fill-opacity="0.1"/>
<path d="M380.026 267.007C370.938 260.465 362.208 254.004 353.479 247.543C353.913 246.959 354.348 246.374 354.783 245.79C365.235 253.405 375.687 261.021 386.139 268.636C385.807 269.139 385.475 269.642 385.143 270.144C383.557 269.126 381.971 268.108 380.026 267.007Z" fill="#007BFE" fill-opacity="0.1"/>
<path d="M201.361 290.806C202.104 292.403 202.627 293.724 203.151 295.045C202.692 295.299 202.233 295.553 201.774 295.807C195.716 285.832 189.659 275.856 183.602 265.88C184.09 265.573 184.578 265.267 185.067 264.96C189.657 271.814 194.29 278.639 198.804 285.542C199.8 287.064 200.374 288.861 201.361 290.806Z" fill="#007BFE" fill-opacity="0.1"/>
<path d="M338.174 245.648C336.616 242.712 335.711 239.026 338.949 238.476C341.274 238.082 344.36 241.005 346.739 242.907C347.345 243.392 347.034 246.029 346.267 246.932C345.544 247.784 343.61 248.036 342.31 247.849C340.959 247.654 339.729 246.617 338.174 245.648Z" fill="#007BFE" fill-opacity="0.1"/>
<path d="M273.247 128.806C272.818 129.71 271.808 131.023 271.463 130.867C264.479 127.71 257.548 124.43 250.681 121.025C249.995 120.684 249.784 119.383 248.928 117.684C257.405 121.508 265.19 125.019 273.247 128.806Z" fill="#007BFE" fill-opacity="0.1"/>
<path d="M296.208 98.9388C293.134 97.8462 290.47 96.7975 287.807 95.7489C288.024 95.0867 288.241 94.4245 288.459 93.7623C296.312 95.8631 304.165 97.9639 312.426 100.174C310.032 102.758 310.047 102.709 304.566 101.032C301.953 100.232 299.27 99.6587 296.208 98.9388Z" fill="#007BFE" fill-opacity="0.1"/>
<path d="M144.251 225.148C145.18 226.909 145.705 228.569 146.23 230.23C144.303 230.809 142.212 232.142 140.492 231.768C138.519 231.34 136.874 229.397 135.087 228.113C136.031 227.079 136.817 225.451 137.955 225.148C139.798 224.657 141.872 225.036 144.251 225.148Z" fill="#007BFE" fill-opacity="0.1"/>
<path d="M325.93 214.407C327.417 214.595 328.949 215.148 330.766 215.899C330.928 218.847 330.804 221.597 330.678 224.389C327.326 224.95 323.454 222.543 323.053 219.373C322.875 217.971 322.353 215.882 325.221 216.757C325.266 216.771 325.714 215.463 325.93 214.407Z" fill="#007BFE" fill-opacity="0.1"/>
<path d="M194.822 268.294C191.815 266.119 191.497 263.673 194.056 261.697C195.109 260.885 198.604 261.136 198.766 261.631C199.496 263.863 199.431 266.355 199.652 268.754C198.128 268.686 196.605 268.618 194.822 268.294Z" fill="#007BFE" fill-opacity="0.1"/>
<path d="M270.804 199.276C266.306 195.366 262.065 191.707 257.823 188.047C258.233 187.569 258.643 187.091 259.053 186.612C265.541 191.959 272.029 197.305 278.517 202.651C278.144 203.142 277.771 203.634 277.398 204.126C275.286 202.593 273.173 201.06 270.804 199.276Z" fill="#007BFE" fill-opacity="0.1"/>
<path d="M99.5249 212.259C101.018 215.452 102.144 218.467 103.269 221.483C102.74 221.777 102.211 222.072 101.682 222.367C98.3449 218.251 95.0078 214.135 91.0967 209.311C94.7226 210.557 96.9399 211.319 99.5249 212.259Z" fill="#007BFE" fill-opacity="0.1"/>
<path d="M214.689 34.3237C214.992 33.2796 215.295 32.2356 215.598 31.1915C216.629 31.8796 218.18 32.3524 218.574 33.3041C219.234 34.8995 219.157 36.8001 219.46 39.1028C215.314 38.3718 211.194 37.6454 207.074 36.919C207.101 36.2907 207.127 35.6623 207.154 35.0339C209.124 35.0339 211.095 35.0339 213.634 35.3424C214.955 35.7501 215.707 35.8493 217.241 36.0517C215.937 35.1688 215.313 34.7462 214.689 34.3237Z" fill="#007BFE" fill-opacity="0.1"/>
<path d="M133.726 207.206C132.97 205.425 132.474 203.916 131.979 202.407C132.413 202.243 132.848 202.079 133.283 201.914C136.832 208.039 140.381 214.163 143.931 220.288C143.379 220.625 142.827 220.963 142.275 221.301C139.512 216.694 136.749 212.086 133.726 207.206Z" fill="#007BFE" fill-opacity="0.1"/>
<path d="M163.793 325.635C162.919 327.329 162.158 329.221 160.83 329.79C159.974 330.156 157.177 328.575 157.181 327.876C157.191 325.832 158.169 323.793 158.768 321.753C159.507 321.535 160.245 321.317 160.984 321.099C161.878 322.49 162.772 323.881 163.793 325.635Z" fill="#007BFE" fill-opacity="0.1"/>
<path d="M338.663 152.133C339.241 155.577 339.241 155.577 333.696 157.333C333.538 154.694 332.395 151.583 333.478 150.121C335.325 147.629 337.43 149.233 338.663 152.133Z" fill="#007BFE" fill-opacity="0.1"/>
<path d="M227.985 207.039C226.833 208.625 225.674 209.794 224.516 210.964C223.354 209.777 221.784 208.756 221.202 207.332C220.914 206.626 222.702 204.145 223.104 204.245C224.82 204.676 226.369 205.77 227.985 207.039Z" fill="#007BFE" fill-opacity="0.1"/>
<path d="M76.0428 195.061C75.8491 186.266 76.4915 183.499 80.1549 180.571C78.9952 185.93 80.8429 191.003 76.3238 194.951C75.9179 194.942 76.0044 195.018 76.0428 195.061Z" fill="#007BFE" fill-opacity="0.1"/>
<path d="M341.319 191.894C340.888 191.86 340.914 191.962 340.901 191.986C344.566 189.573 348.861 190.939 351.012 195.509C346.903 196.668 344.3 194.373 341.319 191.894Z" fill="#007BFE" fill-opacity="0.1"/>
<path d="M336.781 285.254C336.685 284.369 336.838 283.757 336.99 283.145C340.437 284.914 343.884 286.683 347.33 288.452C346.971 289.146 346.612 289.84 346.254 290.534C343.179 288.865 340.104 287.197 336.781 285.254Z" fill="#007BFE" fill-opacity="0.1"/>
<path d="M71.9462 189.323C71.7218 189.032 71.8217 189.161 71.8598 189.179C70.0266 186.328 68.1554 183.46 66.2842 180.591C66.6752 180.296 67.0661 180.001 67.4571 179.707C70.1692 182.953 72.8813 186.199 75.5934 189.446C75.297 189.782 75.0005 190.119 74.704 190.455C73.8596 190.175 73.0151 189.894 71.9462 189.323Z" fill="#007BFE" fill-opacity="0.1"/>
<path d="M195.731 352.362C196.971 355.28 198.015 357.878 199.06 360.476C198.582 360.688 198.104 360.899 197.626 361.111C195.499 356.558 193.371 352.004 191.244 347.451C191.583 347.232 191.922 347.013 192.261 346.794C193.353 348.544 194.445 350.293 195.731 352.362Z" fill="#007BFE" fill-opacity="0.1"/>
<path d="M9.11837 269.891C4.55191 268.168 4.11858 264.188 3.01758 260.558C3.5479 260.27 4.07822 259.981 4.60854 259.693C6.16403 262.721 7.71952 265.748 9.4882 269.056C9.57191 269.459 9.44243 269.583 9.11837 269.891Z" fill="#007BFE" fill-opacity="0.1"/>
<path d="M134.231 301.799C134.145 303.673 133.776 305.264 133.407 306.855C131.816 305.777 130.225 304.7 128.634 303.623C128.759 303.024 128.885 302.425 129.011 301.826C130.657 301.723 132.303 301.619 134.231 301.799Z" fill="#007BFE" fill-opacity="0.1"/>
<path d="M128.174 152.967C129.671 153.516 130.803 154.028 131.48 154.335C131.017 156.462 130.645 158.171 130.085 160.744C128.202 157.777 126.601 155.253 124.47 151.895C126.152 152.417 126.98 152.674 128.174 152.967Z" fill="#007BFE" fill-opacity="0.1"/>
<path d="M201.766 317.243C200.782 315.458 200.044 313.939 199.306 312.42C199.728 312.169 200.151 311.917 200.573 311.666C202.97 315.562 205.366 319.459 207.762 323.355C207.409 323.616 207.055 323.878 206.702 324.14C205.138 321.929 203.575 319.719 201.766 317.243Z" fill="#007BFE" fill-opacity="0.1"/>
<path d="M246.112 327.343C246.537 327 246.907 327 247.555 327C247.593 327.616 247.354 328.232 247.115 328.848C246.763 328.461 246.41 328.074 246.112 327.343Z" fill="#007BFE" fill-opacity="0.1"/>
<path d="M151.233 342.326C151.912 342.01 152.657 342.021 153.775 342.043C153.199 342.255 152.25 342.454 151.233 342.326Z" fill="#007BFE" fill-opacity="0.1"/>
<path d="M184.07 103.915C187.941 105.946 192.384 106.982 194.262 111.924C194.922 113.661 197.998 114.323 199.374 115.974C203.626 121.075 210.904 121.716 215.081 126.92C215.619 127.59 217.386 127.273 219.107 127.475C204.713 109.119 183.534 100.651 167.122 85.9111C173.125 82.8278 167.934 81.9087 166.387 80.4087C171.036 77.8859 175.748 78.9391 179.545 81.8112C181.985 83.6561 185.638 83.7962 188.481 85.2302C193.086 87.5534 198.327 89.4968 201.742 93.0836C206.492 98.0718 211.697 101.941 217.57 105.36C222.291 108.108 226.47 111.788 230.89 115.055C230.644 115.459 230.399 115.863 230.154 116.267C225.374 114.081 220.593 111.896 215.535 109.583C215.706 112.594 215.921 112.255 226.761 119.162C230.529 121.563 232.939 126.095 235.73 129.374C232.483 130.493 228.84 130.963 226.254 132.868C223.869 134.624 222.619 137.921 220.55 141.016C215.386 137.277 209.282 132.857 204.143 129.137C202.698 127.036 202.083 125.214 200.835 124.506C197.474 122.6 193.853 121.275 194.014 116.354C194.049 115.289 192.972 114.005 192.101 113.126C189.401 110.403 186.553 107.827 183.728 104.747C183.819 104.172 183.945 104.044 184.07 103.915Z" fill="#007BFE" fill-opacity="0.1"/>
<path d="M21.2597 174.604C20.6352 171.142 20.2097 168.04 19.6367 163.862C28.0132 170.702 32.2386 180.942 29.6742 186.347C27.5526 185.314 28.6555 180.057 24.1794 182.126C23.2725 179.738 22.3656 177.35 21.2597 174.604Z" fill="#007BFE" fill-opacity="0.1"/>
<path d="M36.3008 168.32C35.6458 170.179 35.1893 171.718 34.6341 173.589C31.0878 168.546 27.6888 163.82 28.8379 156.165C32.3351 160.509 36.9589 162.528 36.3008 168.32Z" fill="#007BFE" fill-opacity="0.1"/>
<path d="M75.6836 165.396C77.0285 164.752 78.3734 164.108 80.8303 162.932C82.332 166.297 84.2 170.483 86.068 174.669C85.4229 175.012 84.7778 175.356 84.1327 175.699C82.4321 173.074 80.8097 170.393 78.9881 167.855C78.358 166.977 77.2328 166.454 76.0377 165.547C75.7416 165.325 75.6836 165.396 75.6836 165.396Z" fill="#007BFE" fill-opacity="0.1"/>
<path d="M151.171 21.0419C154.633 21.9737 157.716 22.8122 160.584 23.5923C156.576 28.0387 151.952 24.3534 147.429 23.8141C147.227 23.3149 147.025 22.8157 146.822 22.3165C148.145 21.8605 149.468 21.4046 151.171 21.0419Z" fill="#007BFE" fill-opacity="0.1"/>
<path d="M75.7729 165.292C73.6977 163.204 71.5909 161.15 69.4951 159.106C70.4197 157.407 71.2456 155.89 72.0716 154.372C72.6153 154.289 73.1591 154.205 73.7029 154.121C74.4483 157.565 75.1938 161.008 75.8113 164.923C75.6832 165.396 75.7412 165.325 75.7729 165.292Z" fill="#007BFE" fill-opacity="0.1"/>
<path d="M134.705 131.339C136.807 134.952 138.91 138.564 140.849 142.735C140.556 143.416 140.425 143.538 140.295 143.661C138.199 140.04 136.103 136.418 134.16 132.252C134.443 131.584 134.574 131.462 134.705 131.339Z" fill="#007BFE" fill-opacity="0.1"/>
<path d="M85.2952 163.661C79.8583 156.1 79.6761 155.494 81.5203 150.713C83.0495 154.598 84.5326 158.367 85.8518 162.714C85.5569 163.416 85.4261 163.538 85.2952 163.661Z" fill="#007BFE" fill-opacity="0.1"/>
<path d="M191.07 123.916C192.994 124.831 194.918 125.746 196.842 126.66C196.593 127.167 196.344 127.674 196.096 128.181C194.329 127.19 192.561 126.198 190.744 124.754C190.819 124.172 190.944 124.044 191.07 123.916Z" fill="#007BFE" fill-opacity="0.1"/>
<path d="M41.115 217.889C39.9082 216.347 38.897 214.62 37.8857 212.894C38.1988 212.71 38.5118 212.527 38.8248 212.344C39.6461 213.828 40.4674 215.313 41.4947 217.066C41.5706 217.458 41.4406 217.581 41.115 217.889Z" fill="#007BFE" fill-opacity="0.1"/>
<path d="M204.881 133.481C203.941 133.739 202.751 133.658 201.562 133.576C201.655 133.037 201.748 132.498 201.842 131.958C202.772 132.353 203.702 132.747 204.881 133.481Z" fill="#007BFE" fill-opacity="0.1"/>
<path d="M200.852 130.453C199.907 130.716 198.715 130.646 197.523 130.575C197.627 130.035 197.73 129.495 197.833 128.955C198.757 129.343 199.681 129.731 200.852 130.453Z" fill="#007BFE" fill-opacity="0.1"/>
<path d="M172.059 118.231C172.64 119.262 172.807 120.283 172.975 121.303C172.582 121.339 172.189 121.375 171.796 121.41C171.747 120.347 171.697 119.284 172.059 118.231Z" fill="#007BFE" fill-opacity="0.1"/>
<path d="M281.19 148.849C279.969 148.321 279.097 147.619 278.225 146.918C278.509 146.591 278.792 146.264 279.076 145.936C279.897 146.85 280.718 147.763 281.19 148.849Z" fill="#007BFE" fill-opacity="0.1"/>
<path d="M231.722 117.831C231.367 117.3 231.356 116.865 231.346 116.43C231.936 116.72 232.526 117.01 233.116 117.3C232.766 117.509 232.416 117.718 231.722 117.831Z" fill="#007BFE" fill-opacity="0.1"/>
<path d="M187.829 122.189C187.103 122.292 186.499 122.053 185.896 121.813C185.944 121.626 185.992 121.439 186.04 121.252C186.677 121.45 187.314 121.648 187.829 122.189Z" fill="#007BFE" fill-opacity="0.1"/>
<path d="M190.506 124.492C189.518 124.132 188.719 123.58 187.92 123.028C188.033 122.814 188.146 122.6 188.258 122.385C189.055 122.678 189.852 122.97 190.859 123.589C190.944 124.044 190.819 124.172 190.506 124.492Z" fill="#007BFE" fill-opacity="0.1"/>
<path d="M134.116 131.89C133.688 131.571 133.457 131.068 133.226 130.566C133.594 130.681 133.963 130.796 134.518 131.125C134.574 131.462 134.443 131.584 134.116 131.89Z" fill="#007BFE" fill-opacity="0.1"/>
<path d="M259.505 135.492C259.047 135.208 258.778 134.733 258.51 134.258C258.95 134.304 259.391 134.35 259.951 134.656C259.945 135.044 259.819 135.172 259.505 135.492Z" fill="#007BFE" fill-opacity="0.1"/>
<path d="M140.884 143.11C141.312 143.43 141.543 143.932 141.774 144.435C141.405 144.32 141.036 144.204 140.481 143.875C140.426 143.538 140.556 143.416 140.884 143.11Z" fill="#007BFE" fill-opacity="0.1"/>
<path d="M120.077 150.827C120.283 151.317 120.239 151.573 120.194 151.828C119.904 151.76 119.614 151.692 119.324 151.623C119.492 151.28 119.659 150.936 120.077 150.827Z" fill="#007BFE" fill-opacity="0.1"/>
<path d="M133.216 113.806C132.755 113.549 132.613 113.13 132.472 112.71C132.826 113.021 133.181 113.332 133.216 113.806Z" fill="#007BFE" fill-opacity="0.1"/>
<path d="M111.077 157.827C111.283 158.317 111.239 158.573 111.194 158.828C110.904 158.76 110.614 158.691 110.324 158.623C110.492 158.28 110.659 157.936 111.077 157.827Z" fill="#007BFE" fill-opacity="0.1"/>
<path d="M183.505 104.492C183.047 104.208 182.779 103.733 182.51 103.258C182.95 103.304 183.391 103.35 183.951 103.655C183.945 104.044 183.82 104.172 183.505 104.492Z" fill="#007BFE" fill-opacity="0.1"/>
<path d="M85.8844 163.11C86.3125 163.429 86.5433 163.932 86.7742 164.435C86.4053 164.32 86.0364 164.204 85.4811 163.875C85.4256 163.538 85.5564 163.416 85.8844 163.11Z" fill="#007BFE" fill-opacity="0.1"/>
<path d="M61.495 269.509C61.9526 269.792 62.221 270.267 62.4895 270.742C62.0491 270.696 61.6087 270.651 61.0488 270.345C61.0548 269.957 61.1803 269.828 61.495 269.509Z" fill="#007BFE" fill-opacity="0.1"/>
<path d="M301.766 255.738C301.399 255.942 300.996 255.8 300.594 255.659C300.972 255.57 301.351 255.481 301.766 255.738Z" fill="#007BFE" fill-opacity="0.1"/>
<path d="M327.288 210.806C327.63 211.273 327.668 211.568 327.705 211.864C327.161 211.645 326.618 211.426 326.074 211.207C326.377 211.016 326.68 210.826 327.288 210.806Z" fill="#007BFE" fill-opacity="0.1"/>
<path d="M302.495 187.508C302.953 187.792 303.222 188.266 303.491 188.741C303.05 188.695 302.61 188.65 302.05 188.344C302.055 187.956 302.181 187.827 302.495 187.508Z" fill="#007BFE" fill-opacity="0.1"/>
<path d="M190.078 298.827C190.284 299.317 190.239 299.573 190.195 299.828C189.905 299.76 189.614 299.692 189.324 299.624C189.492 299.28 189.66 298.936 190.078 298.827Z" fill="#007BFE" fill-opacity="0.1"/>
<path d="M214.494 34.5193C215.313 34.7463 215.937 35.1688 217.241 36.0517C215.707 35.8494 214.955 35.7501 214.056 35.3788C214.04 34.9761 214.169 34.8455 214.494 34.5193Z" fill="#007BFE" fill-opacity="0.1"/>
</g>
<defs>
<clipPath id="clip0_116_644">
<rect width="500" height="375" fill="white"/>
</clipPath>
</defs>
</svg>
